<svg width="26" height="26" viewBox="0 0 26 26" fill="none" xmlns="http://www.w3.org/2000/svg">
<path d="M14.9458 4.48087C13.8815 3.3817 12.1187 3.3817 11.0544 4.48087L5.85605 9.84958C5.5575 10.1579 5.35689 10.5477 5.27948 10.9699C4.64815 14.4127 4.60155 17.9372 5.14163 21.3955L5.33284 22.6199C5.39324 23.0066 5.72632 23.2917 6.11774 23.2917H9.75011C10.0493 23.2917 10.2918 23.0492 10.2918 22.7501V15.1667H15.7084V22.7501C15.7084 23.0492 15.951 23.2917 16.2501 23.2917H19.8824C20.2738 23.2917 20.6069 23.0066 20.6673 22.6199L20.8585 21.3955C21.3986 17.9372 21.352 14.4127 20.7207 10.9699C20.6433 10.5477 20.4427 10.1579 20.1441 9.84958L14.9458 4.48087Z" fill="#0B392C"/>
</svg>
