<svg width="428" height="544" viewBox="0 0 428 544" fill="none" xmlns="http://www.w3.org/2000/svg">
<path d="M87.3569 472C87.3569 472 3.50016 375.158 77.3379 309.888C151.176 244.617 144.073 195.79 237.992 205.152C331.912 214.492 375.649 306.27 341.952 367.988C308.256 429.707 358.483 466.256 358.483 466.256L87.3569 472Z" fill="#EBFCF4"/>
<path d="M115.369 298.828C114.191 300.038 113.035 301.293 112.098 302.701C111.16 304.131 110.44 305.671 109.655 307.189C108.805 308.817 107.867 310.402 106.777 311.876C105.991 312.954 105.119 313.966 104.356 315.088C102.502 317.861 101.477 321.095 99.9726 324.087C100.845 320.677 101.957 317.31 102.502 313.812C102.742 312.25 102.917 310.644 103.026 309.015C105.381 307.497 107.365 305.407 108.739 302.965C110.942 299.092 111.552 294.538 112.992 290.313C114.017 287.299 115.456 284.417 115.892 281.27C116.088 279.972 116.088 278.674 116.263 277.376C116.546 275.176 117.288 273.041 118.4 271.127C116.394 271.963 115.238 274.031 114.235 275.946C112.926 278.432 111.64 280.94 110.331 283.427C109.699 284.615 109.088 285.825 108.587 287.079C106.667 291.986 106.951 297.508 105.468 302.591C104.857 304.703 103.963 306.705 103.026 308.685C103.331 303.889 103.091 298.916 102.415 294.296C102.219 292.954 101.935 291.634 101.586 290.313C102.59 288.663 103.571 286.969 103.985 285.099C104.247 283.867 104.269 282.612 104.443 281.358C104.923 277.64 106.689 274.23 107.714 270.621C109.197 265.34 109.044 259.73 108.826 254.229C108.696 250.709 108.543 247.056 109.917 243.822C109.044 245.538 108.15 247.254 107.278 248.971C106.362 250.753 105.446 252.535 104.836 254.449C103.723 257.926 103.702 261.666 103.004 265.23C102.742 266.573 102.371 267.893 102.132 269.213C100.845 275.946 102.306 282.965 101.499 289.763C100.191 285.253 97.9882 281.006 95.4149 276.936C96.5053 271.149 97.5084 265.12 95.8292 259.488C95.3931 258.036 94.7825 256.628 94.4118 255.175C93.7357 252.403 93.932 249.499 93.4522 246.682C93.2124 245.252 92.798 243.866 92.2092 242.546C91.0752 239.95 89.287 237.529 89.069 234.713C87.8914 237.221 88.7637 240.17 88.8291 242.942C88.8727 245.164 88.3929 247.364 88.2839 249.587C88.044 254.251 89.4615 258.828 91.0534 263.206C92.6017 267.475 94.3463 271.743 94.9569 276.254C91.6204 271.083 87.7387 266.221 84.3804 261.446C84.315 261.358 84.2277 261.292 84.1405 261.27C82.0688 256.121 81.5018 250.269 78.3615 245.692C74.7415 240.412 68.4828 237.815 63.2709 234.119C60.087 231.853 57.2739 229.102 54.8969 226C55.1367 230.511 57.0558 234.911 60.2178 238.101C64.1214 242.062 69.7258 244.152 73.0406 248.619C75.2431 251.567 76.2244 255.285 78.427 258.256C79.9317 260.302 82.0034 261.93 84.3586 262.92C86.9536 266.551 89.7668 270.203 92.3837 274.009C89.4615 270.841 86.125 268.069 82.5049 265.737C73.4113 259.884 62.573 256.98 53.9591 250.379C53.7411 251.677 54.5043 252.931 55.3112 253.965C56.4016 255.373 57.6228 256.65 58.844 257.948C60.8721 260.082 62.922 262.26 65.408 263.844C66.4547 264.526 67.6105 265.098 68.8317 265.385C70.0093 265.649 71.2524 265.649 72.4518 265.825C74.3272 266.111 76.0936 266.903 77.8382 267.673C82.723 269.829 87.6079 272.007 92.4927 274.164C97.1159 280.94 101.041 288.135 101.826 296.298C101.935 297.332 102.023 298.388 102.088 299.444C101.216 297.574 100.343 295.704 99.4711 293.812C98.01 290.687 96.5053 287.475 94.0628 285.055C92.798 283.801 91.2933 282.788 89.8104 281.776C86.8446 279.774 83.857 277.75 80.7386 275.99C78.8631 274.934 76.9223 273.965 74.8288 273.481C73.0406 273.063 71.1651 272.997 69.4423 272.359C67.5451 271.655 65.8223 270.225 63.7724 270.203C64.4703 271.259 65.4516 272.117 66.4111 272.953C69.5078 275.66 72.6698 278.41 76.3553 280.236C80.1716 282.128 84.6857 283.141 87.2808 286.529C88.4366 288.025 89.0908 289.873 90.312 291.303C91.5114 292.69 93.1469 293.592 94.6735 294.582C97.5302 296.474 100.103 298.828 102.219 301.513C102.328 304.175 102.328 306.837 102.132 309.5C102.11 309.5 102.11 309.522 102.088 309.522H102.132C101.979 311.722 101.674 313.878 101.216 315.99C101.194 316.122 101.15 316.232 101.128 316.364C100.234 312.976 99.1658 309.632 97.4648 306.573C96.767 305.319 95.9601 304.131 94.8697 303.229C93.4304 302.085 91.5986 301.557 89.9194 300.765C85.667 298.74 82.5704 294.868 78.6014 292.316C77.184 291.413 75.6356 290.665 74.3708 289.543C72.8443 288.201 71.7975 286.397 70.7726 284.615C70.0093 289.851 72.1901 295.418 76.3335 298.674C78.8631 300.677 82.047 301.843 84.3368 304.131C85.7542 305.539 86.7792 307.321 88.2839 308.641C90.3338 310.424 93.0379 311.172 95.5239 312.272C97.7919 313.284 100.103 314.824 100.954 317.112C99.6237 322.591 97.5956 327.872 97.9009 333.592C97.9227 334.164 98.795 334.12 98.7732 333.548C98.5988 330.336 99.1658 327.278 99.9508 324.241L100.387 323.515C101.281 321.579 102.786 320.039 104.269 318.499C107.845 314.758 111.356 310.886 113.995 306.397C115.761 303.427 117.113 300.192 119.163 297.42C120.144 296.1 121.278 294.868 121.824 293.306C119.425 294.934 117.331 296.826 115.369 298.828Z" fill="#0B7A6A" fill-opacity="0.5"/>
<path d="M365.698 279.653C361.839 281.592 358.221 284.015 354.976 286.856C357.98 283.332 361.181 279.984 364.142 276.658C366.575 275.931 368.834 274.521 370.544 272.627C373.044 269.917 374.425 266.305 376.925 263.596C380.718 259.498 386.529 258.001 390.848 254.476C394.335 251.635 396.725 247.45 397.427 243C394.73 245.842 391.616 248.287 388.217 250.203C382.626 253.353 376.092 255.269 371.926 260.159C368.33 264.389 367.146 270.138 364.536 275.05C364.449 275.072 364.339 275.116 364.273 275.204C360.414 279.609 356.029 284.037 352.148 288.839C353.222 284.411 355.415 280.358 357.41 276.261C359.449 272.054 361.335 267.649 361.576 262.979C361.686 260.754 361.445 258.507 361.708 256.304C362.058 253.551 363.243 250.71 362.322 248.088C361.817 250.886 359.778 253.111 358.375 255.556C357.651 256.811 357.103 258.155 356.708 259.543C355.941 262.296 355.853 265.226 354.866 267.891C354.34 269.323 353.595 270.644 353.003 272.054C350.744 277.473 351.117 283.596 351.599 289.456C348.617 293.222 345.964 297.231 344.188 301.593C344.078 294.742 346.249 287.914 345.679 281.063C345.569 279.697 345.35 278.354 345.219 276.988C344.89 273.354 345.241 269.631 344.495 266.041C344.078 264.08 343.355 262.186 342.631 260.335C341.93 258.529 341.228 256.723 340.526 254.939C341.557 258.309 341.031 261.921 340.526 265.402C339.737 270.842 338.991 276.415 339.934 281.834C340.57 285.535 341.973 289.125 342.083 292.87C342.127 294.125 341.995 295.381 342.149 296.636C342.368 298.553 343.179 300.337 344.013 302.077C343.53 303.333 343.092 304.632 342.763 305.954C341.623 310.492 340.855 315.404 340.658 320.228C339.934 318.157 339.233 316.065 338.838 313.906C337.895 308.707 338.728 303.245 337.325 298.134C336.974 296.835 336.47 295.579 335.965 294.324C334.913 291.702 333.882 289.081 332.83 286.46C332.019 284.433 331.076 282.253 329.168 281.217C330.089 283.244 330.593 285.447 330.659 287.649C330.703 288.949 330.571 290.249 330.637 291.57C330.769 294.742 331.909 297.782 332.611 300.888C333.597 305.249 333.751 309.853 335.549 313.928C336.667 316.505 338.443 318.796 340.636 320.558C340.57 322.188 340.592 323.796 340.68 325.382C340.855 328.906 341.623 332.387 342.149 335.867C340.965 332.739 340.285 329.391 338.706 326.439C338.07 325.25 337.303 324.149 336.623 323.003C335.68 321.417 334.913 319.743 334.233 318.025C333.597 316.439 333.049 314.809 332.26 313.289C331.47 311.791 330.44 310.404 329.387 309.082C327.633 306.879 325.748 304.787 323.533 303.046C323.928 304.654 324.936 305.998 325.769 307.43C327.546 310.404 328.576 313.752 330.023 316.902C332.194 321.637 335.286 325.867 338.487 329.964C339.803 331.638 341.162 333.356 341.842 335.36L342.193 336.131C342.653 339.237 342.894 342.343 342.39 345.515C342.302 346.066 343.158 346.198 343.245 345.647C344.144 339.964 342.675 334.501 341.908 328.906C343.004 326.704 345.46 325.404 347.85 324.655C350.437 323.818 353.222 323.356 355.458 321.792C357.103 320.646 358.309 318.972 359.866 317.717C362.409 315.69 365.676 314.853 368.439 313.113C372.89 310.293 375.675 304.985 375.456 299.698C374.25 301.35 373.022 303.046 371.355 304.236C369.974 305.205 368.351 305.8 366.839 306.549C362.607 308.663 359.098 312.188 354.647 313.774C352.893 314.39 351.007 314.699 349.451 315.712C348.245 316.483 347.324 317.584 346.512 318.752C344.495 321.615 343.092 324.853 341.842 328.113C341.82 327.981 341.82 327.871 341.798 327.739C341.557 325.58 341.469 323.4 341.535 321.197L341.579 321.219C341.557 321.219 341.557 321.197 341.535 321.197C341.623 318.532 341.886 315.866 342.28 313.245C344.692 310.778 347.499 308.707 350.547 307.143C352.169 306.306 353.902 305.58 355.239 304.324C356.621 303.024 357.476 301.262 358.769 299.896C361.708 296.791 366.334 296.24 370.347 294.764C374.228 293.332 377.648 290.931 381.047 288.552C382.1 287.826 383.152 287.077 383.963 286.085C381.924 285.909 380.06 287.143 378.087 287.649C376.289 288.112 374.403 287.98 372.583 288.2C370.435 288.464 368.395 289.235 366.422 290.072C363.111 291.504 359.932 293.2 356.752 294.874C355.173 295.711 353.573 296.57 352.169 297.694C349.472 299.852 347.631 302.87 345.855 305.844C344.78 307.628 343.728 309.39 342.653 311.174C342.829 310.139 343.026 309.104 343.245 308.069C344.89 300.029 349.56 293.266 354.888 287.011C359.997 285.358 365.106 283.728 370.215 282.076C372.035 281.482 373.877 280.909 375.785 280.799C377.013 280.733 378.241 280.887 379.446 280.733C380.696 280.579 381.902 280.138 383.021 279.565C385.652 278.244 387.932 276.305 390.191 274.389C391.55 273.243 392.91 272.076 394.137 270.798C395.058 269.851 395.957 268.684 395.87 267.362C386.529 273.023 375.412 274.763 365.698 279.653Z" fill="#0B7A6A" fill-opacity="0.5"/>
<path d="M374.937 445.73C370.646 445.253 366.295 445.314 362.028 445.93C366.463 444.61 370.968 443.546 375.259 442.368C377.696 443.085 380.357 443.133 382.821 442.476C386.391 441.565 389.513 439.288 393.082 438.377C398.491 437.007 404.18 438.917 409.719 438.314C414.188 437.831 418.468 435.622 421.474 432.271C417.667 433.185 413.727 433.54 409.834 433.295C403.431 432.891 396.908 430.937 390.755 432.769C385.44 434.358 381.323 438.536 376.464 441.235C376.379 441.205 376.263 441.182 376.16 441.221C370.528 442.813 364.443 444.138 358.577 446.051C361.885 442.922 365.927 440.717 369.827 438.367C373.824 435.949 377.8 433.281 380.541 429.494C381.841 427.688 382.86 425.671 384.278 423.967C386.068 421.848 388.606 420.109 389.258 417.408C387.315 419.48 384.395 420.236 381.889 421.522C380.599 422.181 379.409 423.01 378.324 423.959C376.184 425.85 374.518 428.26 372.242 429.959C371.023 430.873 369.679 431.576 368.416 432.436C363.577 435.751 360.562 441.091 357.782 446.27C353.234 447.805 348.829 449.722 344.969 452.413C348.6 446.606 354.132 442.06 357.376 436.003C358.026 434.797 358.573 433.55 359.204 432.333C360.904 429.104 363.221 426.173 364.547 422.754C365.262 420.882 365.685 418.899 366.083 416.952C366.476 415.054 366.869 413.157 367.25 411.277C366.283 414.666 363.878 417.41 361.564 420.055C357.945 424.19 354.291 428.459 352.138 433.518C350.66 436.97 349.886 440.747 347.943 443.948C347.298 445.025 346.505 446.007 345.952 447.144C345.094 448.871 344.805 450.81 344.559 452.724C343.472 453.515 342.397 454.366 341.403 455.295C337.981 458.481 334.668 462.184 331.881 466.123C332.399 463.992 332.947 461.854 333.789 459.828C335.823 454.952 339.491 450.824 341.091 445.771C341.503 444.49 341.762 443.162 342.021 441.834C342.562 439.061 343.122 436.3 343.664 433.527C344.084 431.385 344.478 429.042 343.441 427.134C343.112 429.336 342.338 431.458 341.196 433.342C340.527 434.457 339.71 435.475 339.047 436.62C337.434 439.353 336.738 442.524 335.639 445.512C334.097 449.709 331.724 453.655 331.018 458.054C330.556 460.825 330.801 463.715 331.683 466.388C330.742 467.72 329.886 469.081 329.098 470.459C327.33 473.512 326.083 476.85 324.633 480.056C325.339 476.787 326.588 473.608 326.868 470.271C326.981 468.926 326.935 467.584 326.988 466.253C327.058 464.408 327.324 462.586 327.688 460.774C328.016 459.097 328.442 457.43 328.606 455.725C328.758 454.038 328.647 452.312 328.482 450.63C328.208 447.826 327.763 445.043 326.85 442.376C326.308 443.94 326.424 445.617 326.345 447.272C326.219 450.735 325.264 454.106 324.766 457.537C324.014 462.693 324.309 467.926 324.769 473.108C324.963 475.23 325.17 477.412 324.651 479.464L324.526 480.302C323.224 483.159 321.739 485.896 319.592 488.282C319.219 488.696 319.865 489.273 320.238 488.859C324.08 484.581 325.816 479.197 328.213 474.085C330.33 472.835 333.096 473.083 335.508 473.757C338.134 474.465 340.722 475.595 343.448 475.501C345.45 475.437 347.371 474.69 349.36 474.485C352.595 474.171 355.791 475.249 359.054 475.295C364.321 475.355 369.542 472.419 372.231 467.865C370.321 468.593 368.369 469.347 366.325 469.437C364.639 469.497 362.955 469.112 361.278 468.915C356.579 468.383 351.72 469.428 347.124 468.333C345.317 467.894 343.568 467.125 341.711 467.127C340.28 467.116 338.909 467.538 337.594 468.076C334.346 469.379 331.409 471.33 328.589 473.384C328.642 473.261 328.702 473.169 328.755 473.046C329.726 471.104 330.838 469.226 332.09 467.414L332.115 467.457C332.096 467.445 332.108 467.426 332.09 467.414C333.612 465.226 335.281 463.133 337.036 461.149C340.401 460.394 343.88 460.187 347.287 460.536C349.104 460.718 350.952 461.052 352.756 460.727C354.621 460.39 356.296 459.378 358.124 458.937C362.277 457.933 366.457 459.992 370.626 460.941C374.66 461.855 378.834 461.705 382.978 461.561C384.256 461.525 385.546 461.47 386.766 461.081C385.151 459.821 382.917 459.841 380.986 459.19C379.226 458.598 377.716 457.46 376.069 456.653C374.123 455.703 371.993 455.239 369.883 454.865C366.327 454.262 362.738 453.952 359.161 453.624C357.381 453.466 355.572 453.314 353.784 453.492C350.348 453.833 347.163 455.361 344.057 456.888C342.186 457.799 340.345 458.704 338.474 459.615C339.184 458.842 339.912 458.081 340.659 457.332C346.408 451.483 354.001 448.356 361.87 446.011C367.054 447.409 372.226 448.826 377.41 450.225C379.26 450.718 381.117 451.241 382.777 452.188C383.843 452.802 384.789 453.6 385.885 454.128C387.017 454.68 388.268 454.968 389.518 455.097C392.444 455.422 395.41 455.039 398.346 454.662C400.109 454.442 401.884 454.203 403.609 453.8C404.896 453.508 406.285 453.018 406.929 451.862C396.035 451.532 385.744 446.922 374.937 445.73Z" fill="#ADD57F"/>
<path d="M228.12 366.58C225.329 363.043 221.518 360.478 218.527 357.117C215.669 353.889 213.631 349.954 210.551 346.925C208.048 344.471 204.968 342.724 202.177 340.602C197.458 337.043 193.559 332.488 189.726 328C193.337 333.969 196.926 339.939 200.537 345.908C203.55 350.905 206.674 356.012 211.216 359.66C214.473 362.269 218.328 364.015 221.629 366.558C226.237 370.139 229.516 375.092 232.662 380C232.728 375.202 231.111 370.361 228.12 366.58Z" fill="#0B7A6A"/>
<path d="M251.83 394.758C245.28 402.594 243.637 413.196 242.608 423.469C240.351 414.799 238.292 406.084 236.802 397.282C240.702 393.726 244.601 390.17 248.478 386.614C250.603 384.683 252.728 382.729 254.941 380.863C265.697 371.798 278.49 364.422 285.588 352.284C283.682 353.666 281.776 355.071 279.848 356.454C277.701 358.013 275.511 359.593 273.123 360.756C270.976 361.788 268.676 362.491 266.485 363.434C256.606 367.671 249.574 376.473 242.958 384.946C240.329 388.304 237.635 391.838 236.561 395.921C235.62 390.214 234.918 384.485 234.568 378.712C237.131 374.607 241.49 371.798 245.061 368.417C249.464 364.247 252.838 359.022 257.657 355.357C260.045 353.535 262.718 352.152 265.215 350.462C272.05 345.83 277.176 339.157 282.192 332.594C274.678 338.85 263.857 339.706 256.036 345.589C253.32 347.63 251.063 350.198 248.807 352.745C246.244 355.642 243.703 358.561 241.49 361.744C238.38 366.222 235.992 371.205 234.437 376.451C234.261 372.873 234.239 369.273 234.371 365.651C234.48 362.469 234.743 359.33 235.138 356.235C242.279 348.837 249.815 341.506 259.3 337.665C262.718 336.282 266.376 335.36 269.509 333.428C271.414 332.265 273.057 330.75 274.7 329.214C277.548 326.536 280.44 323.638 281.557 319.885C279.279 321.311 276.979 322.738 274.7 324.165C271.502 326.162 268.282 328.16 264.777 329.499C261.469 330.772 257.92 331.453 254.766 333.033C252.159 334.35 249.88 336.282 247.712 338.257C242.87 342.713 238.314 347.762 235.51 353.666C236.452 347.542 237.92 341.528 239.804 335.579C248.435 330.223 256.54 324.055 264.01 317.163C269.837 311.785 275.314 305.924 279.301 299.054C283.266 292.183 285.653 284.215 284.974 276.313C277.285 287.398 273.386 301.249 263.484 310.424C261.118 312.619 258.468 314.463 255.949 316.482C250.121 321.114 244.995 326.623 240.746 332.748C241.556 330.377 242.41 328.028 243.331 325.701C244.733 322.146 246.178 318.611 247.646 315.077C257.022 307 266.464 298.197 270.385 286.52C272.006 281.691 272.597 276.576 273.035 271.506C273.605 264.701 273.912 257.896 273.912 251.07C267.734 263.362 270.648 279.035 263.287 290.668C261.338 293.763 258.731 296.42 256.737 299.493C253.736 304.146 252.093 309.831 248.238 313.651C251.239 306.363 254.174 299.076 256.474 291.525C258.731 288.978 260.176 285.708 260.965 282.371C261.885 278.464 261.973 274.403 261.951 270.386C261.841 253.067 259.651 235.77 255.379 219C250.888 238.734 256.014 259.213 256.496 279.496C256.211 278.508 255.905 277.542 255.576 276.598C254.043 272.032 252.487 267.467 250.428 263.121C249.179 260.486 247.756 257.962 246.638 255.284C245.412 252.365 244.579 249.292 243.747 246.241C242.783 242.707 241.819 239.194 240.855 235.66C239.694 242.377 239.037 249.336 240.811 255.921C242.476 262.089 246.156 267.489 249.42 272.976C252.4 277.981 255.138 283.381 255.62 289.154C255.62 289.176 255.598 289.198 255.598 289.242C253.583 296.266 250.954 303.049 248.216 309.787C250.143 296.99 247.12 283.491 239.804 272.801C238.073 270.276 236.101 267.884 234.458 265.294C231.523 260.662 229.683 255.438 227.843 250.279C227.448 255.482 228.237 260.772 230.165 265.601C232.027 270.298 234.897 274.513 237.328 278.947C243.09 289.505 246.332 301.446 246.682 313.475C245.236 316.987 243.769 320.499 242.367 324.033C242.673 319.314 241.403 314.529 239.826 310.007C235.313 296.968 228.456 284.764 219.672 274.14C220.723 280.352 222.629 286.41 225.302 292.117C228.303 298.483 232.224 304.366 235.357 310.665C238.248 316.482 240.439 322.848 240.329 329.323C240.242 329.565 240.154 329.806 240.066 330.048C237.701 336.567 235.86 343.174 234.612 349.891L234.59 349.496C234.086 336.852 230.34 324.384 223.856 313.541C222.585 311.434 221.227 309.392 220.044 307.241C217.985 303.553 216.451 299.558 214.064 296.068C213.538 302.544 215.619 308.953 218.467 314.792C221.315 320.631 224.929 326.031 227.821 331.848C230.866 337.972 233.078 344.513 234.393 351.23C234.283 351.91 234.174 352.591 234.064 353.293V353.271C232.969 344.447 226.638 337.182 219.759 331.584C212.881 325.987 205.104 321.377 199.189 314.748C200.876 323.836 208.478 330.509 215.816 336.106C222.848 341.462 230.45 347.059 233.801 355.159C233.254 359.176 232.947 363.259 232.859 367.364C232.772 371.424 232.881 375.441 233.144 379.458C233.1 379.392 233.078 379.349 233.035 379.283C233.035 379.392 233.035 379.502 233.035 379.612L233.166 379.7C233.451 383.892 233.911 388.085 234.524 392.255C228.434 382.883 220.373 374.805 211.019 368.725C207.842 366.661 204.513 364.795 201.577 362.381C196.67 358.32 193.165 352.876 189.726 347.52C192.157 354.654 195.641 361.415 200.022 367.517C201.774 369.932 203.68 372.281 205.98 374.168C208.828 376.517 212.202 378.097 215.4 379.919C222.98 384.244 229.749 389.995 235.225 396.799C236.781 406.106 238.971 415.347 241.359 424.523L240.242 422.723C236.824 416.05 233.385 409.333 228.894 403.319C224.403 397.304 218.774 391.992 211.939 388.919C204.819 385.736 196.254 384.792 191.062 378.975C193.275 385.275 198.839 389.775 204.6 393.155C210.362 396.536 216.627 399.192 221.687 403.538C226.485 407.643 229.946 413.065 234.349 417.586C236.693 420.001 239.322 422.174 241.425 424.83C243.856 434.093 246.485 443.312 248.895 452.51C249.136 453.454 250.56 452.905 250.319 451.961C247.975 443.027 245.412 434.049 243.046 425.05C248.018 417.784 250.428 408.85 256.036 402.045C260.461 396.668 266.551 393.002 272.028 388.7C277.504 384.397 282.674 378.975 283.967 372.127C280.133 374.98 276.278 377.834 272.225 380.358C265.105 384.748 257.197 388.326 251.83 394.758Z" fill="#0B7A6A"/>
<path d="M341.27 334.894C341.728 332.433 341.575 329.776 340.353 327.579C339.132 325.382 336.732 323.801 334.245 324.02C331.954 324.24 330.012 325.931 328.943 327.996C327.896 330.061 327.613 332.411 327.547 334.718C327.307 342.582 329.292 350.314 331.234 357.936C331.583 359.298 331.932 360.638 332.281 362C333.307 355.059 336.056 348.447 338.826 341.967C339.83 339.682 340.833 337.354 341.27 334.894Z" fill="#0B7A6A"/>
<path d="M372.537 349.37C371.879 348.6 371.002 348.051 370.059 347.721C366.046 346.248 361.66 348.095 357.823 350.007C352.1 352.887 346.464 355.964 340.982 359.261C338.987 360.448 336.969 361.723 335.281 363.306C338.636 358.316 342.166 353.458 345.85 348.71C348.438 347.721 351.047 346.732 353.635 345.743C357.889 344.138 362.187 342.49 365.936 339.918C369.686 337.346 372.909 333.741 374.115 329.345C374.598 327.565 374.686 325.52 373.633 324.026C373.107 323.278 372.339 322.729 371.528 322.311C366.879 319.827 360.652 320.992 357.012 324.795C355.082 326.817 353.854 329.411 352.648 331.939C350.214 337.104 347.78 342.27 345.368 347.435C345.192 347.457 345.017 347.545 344.863 347.721C340.609 353.194 336.575 358.821 332.759 364.58C332.584 363.899 332.408 363.24 332.233 362.558C332.079 363.657 331.948 364.778 331.882 365.877H331.904C330.786 367.592 329.667 369.328 328.593 371.065C326.246 366.888 325.501 362.009 324.251 357.349C322.935 352.491 320.742 347.457 316.423 344.864C315.238 344.16 313.879 343.655 312.519 343.743C311.511 343.808 310.546 344.16 309.669 344.622C308.156 345.413 306.796 346.534 305.963 348.029C304.187 351.238 305.371 355.436 307.739 358.25C310.107 361.064 313.44 362.822 316.598 364.69C320.479 366.976 324.207 369.504 327.759 372.252L327.891 372.186C324.448 377.769 321.225 383.484 318.199 389.309C315.852 381.396 312.717 373.703 308.857 366.405C307.717 364.251 306.489 362.075 304.603 360.536C301.511 358.008 296.731 357.656 293.42 359.921C290.109 362.163 288.684 366.91 290.372 370.537C291.49 372.955 293.727 374.648 295.942 376.142C303.134 380.956 311.226 384.473 317.76 390.122C316.269 393.024 314.822 395.947 313.44 398.915C306.029 390.782 297.06 384.078 287.17 379.286C285.833 378.626 284.408 378.011 282.916 378.055C280.482 378.143 278.399 380.165 277.807 382.517C277.215 384.869 277.939 387.441 279.32 389.419C280.702 391.419 282.719 392.892 284.802 394.123C287.85 395.903 291.183 397.178 294.626 397.904C297.959 398.607 301.358 398.783 304.757 398.959C307.586 399.113 310.392 399.244 313.221 399.398C312.147 401.706 311.094 404.036 310.085 406.366C306.862 408.301 302.739 407.663 299.187 406.52C295.591 405.355 292.038 403.685 288.245 403.751C285.438 403.795 282.653 404.85 280.504 406.674C278.597 408.301 277.171 410.916 278.048 413.268C278.311 413.972 278.772 414.587 279.276 415.159C280.351 416.346 281.71 417.335 283.245 417.774C284.912 418.258 286.71 418.082 288.42 417.818C295.986 416.631 303.222 413.378 309.164 408.542C305.042 418.324 301.511 428.347 298.573 438.546C295.92 447.756 292.587 457.802 294.341 467.473C294.494 468.375 295.854 468.023 295.7 467.144C293.815 456.747 297.937 445.426 300.919 435.579C303.178 428.061 305.766 420.654 308.682 413.378C308.528 417.555 310.063 421.863 312.015 425.666C314.975 431.425 319.427 437.052 325.72 438.524C327.08 438.832 328.549 438.942 329.865 438.436C331.663 437.755 332.913 435.975 333.329 434.084C333.746 432.194 333.395 430.216 332.737 428.391C330.457 422.105 324.711 417.774 318.9 414.455C315.831 412.697 312.41 410.828 311.05 407.619C311.598 406.344 312.147 405.069 312.717 403.794C313.199 402.695 313.703 401.618 314.208 400.541C323.067 408.916 332.43 417.379 344.052 420.918C345.609 421.401 347.232 421.775 348.832 421.555C350.433 421.335 352.034 420.368 352.604 418.851C353.371 416.829 352.187 414.609 351.025 412.763C349.008 409.554 346.837 406.234 343.548 404.322C341.64 403.223 339.469 402.673 337.298 402.234C329.777 400.695 322.102 400.343 314.427 400.014C315.809 397.046 317.234 394.123 318.725 391.221C327.189 393.046 335.04 397.354 343.592 398.651C345.74 398.981 347.977 399.113 350.104 398.607C352.231 398.101 354.249 396.892 355.389 395.046C356.529 393.178 356.617 390.606 355.301 388.869C354.687 388.034 353.81 387.441 352.911 386.935C347.626 383.88 341.201 383.132 335.149 384.078C329.514 384.957 324.185 387.265 319.273 390.144C321.751 385.352 324.382 380.627 327.145 375.989L327.167 376.077C333.373 377.307 339.601 378.538 345.806 379.791C350.718 380.758 355.915 381.726 360.586 379.945C362.296 379.308 363.919 378.231 364.774 376.626C366.375 373.593 364.467 369.548 361.353 368.119C360.081 367.548 358.656 367.328 357.253 367.174C347.034 366.097 336.487 368.779 328.001 374.56C330.172 370.977 332.43 367.438 334.755 363.965C345.631 361.943 357.077 363.525 367.756 360.58C370.366 359.855 373.216 358.536 373.896 355.92C374.137 354.953 374.05 353.942 373.874 352.975C373.743 351.656 373.37 350.359 372.537 349.37Z" fill="#0B7A6A"/>
<path d="M103.709 304.985C103.953 302.208 103.975 299.321 102.979 296.697C102.005 294.072 99.8584 291.754 97.092 291.142C94.1042 290.508 90.8952 292.061 89.1025 294.51C87.2877 296.959 86.7123 300.13 86.9115 303.148C87.0886 306.166 87.9738 309.096 88.8369 312.005C91.2714 320.183 93.6616 328.537 93.8829 337C94.5026 335.425 95.1444 333.851 95.7641 332.276C99.283 323.442 102.846 314.432 103.709 304.985Z" fill="#0B7A6A"/>
<path d="M155.709 368.947C155.337 366.035 153.107 363.299 150.199 362.839C148.406 362.555 146.613 363.102 144.886 363.693C132.314 368.005 120.551 374.748 110.471 383.417C109.247 379.673 107.935 375.93 106.557 372.23C115.238 366.386 125.47 363.343 134.828 358.636C137.714 357.191 140.622 355.462 142.328 352.725C144.886 348.61 143.858 342.721 140.207 339.525C136.556 336.329 130.783 336.044 126.695 338.627C124.202 340.204 122.409 342.634 120.726 345.042C115.041 353.251 110.143 362.007 106.164 371.158C103.387 363.715 100.326 356.403 97.0023 349.179L97.1554 349.288C101.834 346.508 106.688 344.035 111.674 341.845C115.74 340.072 120.004 338.43 123.262 335.409C126.52 332.388 128.553 327.529 126.891 323.413C126.126 321.508 124.639 319.932 122.934 318.772C121.928 318.072 120.813 317.502 119.632 317.283C117.992 316.999 116.287 317.393 114.757 318.072C109.181 320.545 105.836 326.259 103.54 331.907C101.353 337.292 99.7354 343.049 96.3245 347.734C95.275 345.479 94.2037 343.246 93.0886 341.014H93.1104C93.1979 339.656 93.2197 338.321 93.176 336.964C92.8699 337.752 92.5638 338.54 92.2577 339.306C88.5188 331.819 84.4739 324.486 80.1665 317.305C80.0353 317.065 79.8167 316.933 79.6199 316.889C77.4553 310.322 75.2907 303.777 73.1261 297.209C72.0547 293.991 70.9615 290.707 68.928 287.993C65.0799 282.892 57.777 280.594 51.8298 282.892C50.8022 283.286 49.7964 283.834 49.053 284.644C47.5443 286.285 47.3694 288.759 47.6974 290.97C48.4845 296.421 51.8298 301.237 55.9841 304.871C60.1166 308.505 65.0361 311.088 69.912 313.65C72.8856 315.204 75.8592 316.78 78.8546 318.334C82.5935 324.573 86.1137 330.944 89.4372 337.423C87.6224 335.3 85.3922 333.483 83.162 331.754C77.0399 326.981 70.7209 322.45 64.249 318.181C59.9416 315.335 54.9128 312.467 49.8839 313.65C48.7032 313.934 47.5443 314.438 46.6698 315.269C45.5328 316.342 44.8768 317.831 44.4396 319.341C44.0897 320.48 43.8273 321.684 43.9804 322.888C44.4177 326.128 47.6537 328.142 50.671 329.389C63.0902 334.468 77.0617 334.271 89.8526 338.277C92.1484 342.787 94.3567 347.362 96.4339 351.981C87.0539 343.816 74.7659 339.043 62.3249 338.846C60.6194 338.824 58.8921 338.868 57.2741 339.394C53.3385 340.641 50.4524 345.239 51.9173 349.091C52.7044 351.149 54.5192 352.682 56.4652 353.71C61.822 356.534 68.2284 356.14 74.263 355.681C81.9157 355.112 89.5683 354.52 97.221 353.951L97.2647 353.864C99.9104 359.84 102.403 365.882 104.677 372.012C99.1888 367.808 93.1104 364.284 86.4854 362.401C79.3575 360.365 71.5299 360.344 64.73 363.233C63.5712 363.715 62.4342 364.306 61.5596 365.203C59.723 367.108 59.4606 370.195 60.5539 372.603C61.6471 375.011 63.921 376.74 66.3917 377.66C68.8624 378.579 71.5737 378.732 74.1974 378.667C84.6706 378.36 94.7503 374.332 105.18 373.369C106.535 377.068 107.847 380.79 109.072 384.555C99.8229 383.833 90.5304 383.132 81.2597 383.877C78.5923 384.096 75.9029 384.424 73.4322 385.475C69.2123 387.27 66.1075 390.948 63.2214 394.494C61.5596 396.53 59.8105 399.003 60.4445 401.565C60.9256 403.469 62.6966 404.848 64.5988 405.352C66.5011 405.855 68.5126 405.637 70.4367 405.286C84.933 402.725 97.3959 393.947 109.268 385.168C109.706 386.547 110.143 387.926 110.58 389.306C111.083 390.926 111.564 392.524 112.045 394.144C109.946 397.799 105.551 399.551 101.616 401.214C94.1599 404.345 86.5947 408.679 82.9652 415.904C81.9157 417.983 81.216 420.326 81.4347 422.646C81.6533 424.967 82.8996 427.287 84.9767 428.382C86.4854 429.17 88.2565 429.279 89.9619 429.082C97.7457 428.25 103.912 422.143 108.306 415.663C111.193 411.394 113.685 406.447 114.101 401.412C116.549 410.584 118.583 419.844 120.201 429.192C122.344 441.451 125.645 455.658 121.863 467.851C121.535 468.902 123.131 469.493 123.437 468.464C126.957 457.103 124.399 444.559 122.562 433.11C120.529 420.435 117.73 407.891 114.21 395.567C120.638 402.243 128.859 407.213 137.78 409.752C139.813 410.321 141.934 410.781 144.011 410.453C145.936 410.146 147.707 409.183 149.172 407.891C149.849 407.3 150.505 406.622 150.921 405.812C152.32 403.119 150.964 399.77 148.931 397.537C146.635 395.019 143.443 393.356 140.076 392.896C135.55 392.261 131.024 393.75 126.542 394.625C122.081 395.501 117.03 395.632 113.466 392.852C112.592 389.897 111.674 386.941 110.733 384.03C114.144 384.271 117.555 384.49 120.966 384.73C125.077 385.015 129.187 385.3 133.298 384.949C137.54 384.577 141.738 383.526 145.651 381.863C148.341 380.702 150.964 379.214 152.932 377.025C154.835 374.836 156.081 371.858 155.709 368.947Z" fill="#0B7A6A"/>
<path d="M209.543 453.284C213.324 437.731 211.333 420.581 208.939 404.962C206.657 389.956 202.966 375.212 198.737 360.622C198.536 359.944 199.632 359.747 199.811 360.403C204.286 375.825 208.156 391.422 210.393 407.303C212.519 422.375 214.197 438.693 210.572 453.634C210.416 454.312 209.387 453.962 209.543 453.284Z" fill="#1C734A"/>
<path d="M200 360.521C197.374 353.135 191.832 347.057 188.691 339.867C186.088 333.963 185.168 327.362 186.066 321C187.883 322.111 189.297 323.723 190.576 325.401C193.695 329.54 196.051 334.224 197.801 339.061C200.314 346.076 201.593 353.723 200.022 361" fill="#1C734A"/>
<path d="M201.708 370.75C201.887 364.695 202.511 358.575 204.428 352.828C206.368 347.081 209.734 341.641 214.639 338C214.75 338.746 214.661 339.514 214.549 340.281C212.967 351.622 208.642 362.59 202.021 372" fill="#1C734A"/>
<path d="M204.704 380C206.297 372.312 211.054 365.553 216.771 360.09C219.389 357.585 222.27 355.274 225.674 354C225.019 356.548 223.841 358.924 222.684 361.299C221.768 363.156 220.852 365.035 219.651 366.741C218.691 368.101 217.535 369.311 216.356 370.498C213.847 373.047 211.185 375.508 208.174 377.452C207.017 378.186 205.817 378.877 204.944 379.914" fill="#1C734A"/>
<path d="M205.703 384.914C207.917 382.179 210.154 379.444 212.691 377.011C215.228 374.577 218.131 372.445 221.378 371.132C224.324 369.926 227.506 369.431 230.667 369C225.334 374.642 218.84 379.207 211.723 382.265C209.767 383.105 207.745 383.837 205.961 385" fill="#1C734A"/>
<path d="M206.701 390.048C207.982 388.377 209.902 387.402 211.8 386.59C218.069 383.898 224.955 382.25 231.665 383.341C229.348 384.385 227.008 385.43 224.691 386.474C223.256 387.124 221.843 387.751 220.364 388.284C216.148 389.816 211.668 390.42 207.231 391" fill="#1C734A"/>
<path d="M207.7 394.215C210.171 392.818 212.923 392.108 215.633 391.421C222.2 389.75 229.049 388.101 235.66 389.567C232.56 390.483 229.851 392.498 226.882 393.803C225.343 394.49 223.739 394.97 222.157 395.451C219.794 396.161 217.388 396.871 214.939 396.985C212.49 397.1 209.911 396.55 207.96 394.993" fill="#1C734A"/>
<path d="M208.698 398.424C213.654 397.906 218.676 397.798 223.609 398.467C228.542 399.136 233.387 400.626 237.657 403.151C236.263 403.432 234.869 403.734 233.476 404.014C232.104 404.295 230.732 404.576 229.361 404.77C222.193 405.698 214.738 403.777 208.787 399.784" fill="#1C734A"/>
<path d="M208.984 403C213.91 404.199 218.66 406.148 222.992 408.761C226.071 410.603 229.018 412.873 230.667 416C227.632 414.758 224.51 413.666 221.365 412.745C220.199 412.402 219.012 412.081 217.89 411.61C214.218 410.089 211.403 407.133 208.698 404.264" fill="#1C734A"/>
<path d="M209.697 408C211.992 409.327 214.243 410.719 216.448 412.174C220.296 414.743 224.189 417.761 225.674 422C223.964 420.865 222.209 419.795 220.408 418.81C216.493 416.648 212.172 414.593 209.945 410.847" fill="#1C734A"/>
<path d="M210.696 412C212.122 414.8 213.917 417.4 216.033 419.756C217.782 421.711 219.807 423.556 220.681 426C215.711 424.622 211.708 420.422 210.719 415.511" fill="#1C734A"/>
<path d="M202.575 370.764C198.54 366.013 194.506 361.242 191.088 356.058C189.964 354.344 188.906 352.587 187.671 350.96C185.268 347.772 182.225 345.039 178.742 343C180.351 345.169 181.476 347.642 182.666 350.049C184.915 354.561 187.472 358.942 190.758 362.803C194.021 366.664 198.033 369.983 202.707 372" fill="#1C734A"/>
<path d="M204.704 380C200.379 375.914 195.307 372.667 191.223 368.359C190.214 367.299 189.269 366.173 188.26 365.135C185.296 362.064 181.673 359.635 177.743 358C181.453 361.645 183.276 366.857 186.81 370.679C188.918 372.976 191.575 374.699 194.253 376.267C195.812 377.195 197.393 378.078 199.127 378.608C200.928 379.183 202.816 379.337 204.704 379.448" fill="#1C734A"/>
<path d="M206.701 391C204.697 386.523 200.536 383.538 196.505 380.887C195.211 380.019 193.918 379.172 192.603 378.326C188.292 375.542 183.786 372.757 178.742 372C181.63 374.272 184.541 376.522 187.472 378.727C193.336 383.182 199.372 387.614 206.292 389.931" fill="#1C734A"/>
<path d="M207.7 397.997C206.279 396.036 204.378 394.499 202.433 393.072C196.183 388.482 189.211 384.85 181.737 383C189.78 389.306 197.997 395.724 207.612 399" fill="#1C734A"/>
<path d="M208.611 403.441C206.483 401.028 203.746 399.263 200.987 397.676C195.013 394.212 188.714 391.352 182.218 389.162C180.437 388.559 178.613 388 176.744 388C184.543 394.57 193.558 399.62 203.137 402.816C204.94 403.419 206.787 403.955 208.698 404" fill="#1C734A"/>
<path d="M208.198 405.863C204.979 405.093 201.695 404.542 198.411 404.212C196.214 403.992 193.996 403.882 191.821 404.19C189.646 404.498 187.493 405.225 185.731 406.589C186.732 407.052 187.819 407.272 188.907 407.492C190.19 407.756 191.495 408.02 192.778 408.262C194.018 408.504 195.279 408.768 196.541 408.9C200.651 409.319 204.827 408.372 208.698 406.941" fill="#1C734A"/>
<path d="M209.285 408C205.556 409.366 201.892 411.04 198.748 413.485C195.604 415.93 192.959 419.167 191.723 423C199.03 420.115 205.426 414.85 209.697 408.176" fill="#1C734A"/>
<path d="M209.023 411C206.601 414.299 204.285 417.684 202.053 421.112C199.905 424.411 197.756 428.011 197.714 432C198.409 431.59 198.999 431.008 199.547 430.426C204.432 425.165 207.97 418.589 209.697 411.539" fill="#1C734A"/>
<path d="M374.392 483.863C375.082 484.733 375.458 485.822 375.458 486.932C375.458 489.715 373.203 492 370.421 492H62.4673C59.9534 492 57.9155 489.962 57.9155 487.448C57.9155 486.395 58.2811 485.373 58.9499 484.559L59.2672 484.173C60.3971 482.797 62.0836 482 63.8637 482H370.536C372.038 482 373.458 482.686 374.392 483.863Z" fill="#14988B"/>
<path d="M28.2816 416.489C33.3977 420.712 39.3361 423.466 44.9528 426.889C51.0998 430.61 56.808 435.019 62.0114 440.002C72.448 449.976 80.4879 462.039 85.8937 475.391C86.1014 475.878 86.8476 475.542 86.6399 475.055C81.3064 461.914 73.4827 450.004 63.3161 440.099C58.6002 435.515 53.4492 431.362 47.9213 427.785C41.5727 423.676 34.5952 420.669 28.7503 415.809C28.3559 415.482 27.8572 416.154 28.2816 416.489Z" fill="#ADD57F"/>
<path d="M28.8921 416.001C26.4877 415.141 24.1107 414.24 21.7312 413.291C20.1584 412.667 18.5749 412.025 17.1285 411.177C14.1434 409.411 11.7947 406.799 9.51696 404.22C8.91896 403.548 8.27756 402.802 8.18004 401.887C12.1649 403.516 16.1797 405.152 19.8152 407.459C23.4507 409.766 26.707 412.744 28.6635 416.534" fill="#ADD57F"/>
<path d="M38.5517 422.991C36.6546 419.651 34.3424 416.579 31.6483 413.832C29.7846 411.947 27.7383 410.169 26.3985 407.876C25.0588 405.582 24.6045 402.567 26.0506 400.193C28.6303 403.21 31.138 406.244 33.6568 409.297C34.7326 410.626 35.8195 411.973 36.5909 413.48C37.9363 416.203 38.1877 419.338 38.2398 422.411" fill="#ADD57F"/>
<path d="M38.435 422.503C33.7399 421.375 28.8901 421.476 24.1185 421.583C22.7898 421.612 21.4424 421.651 20.1671 421.985C18.4086 422.472 16.8796 423.523 15.4328 424.629C14.2419 425.534 13.1033 426.485 11.9873 427.475C11.7611 427.685 11.5243 428.005 11.719 428.253C11.805 428.357 11.9429 428.38 12.0621 428.414C13.9624 428.851 15.9033 429.188 17.8508 429.366C18.8302 429.464 19.817 429.532 20.8031 429.472C26.8989 429.158 31.7845 424.512 37.5608 422.627" fill="#ADD57F"/>
<path d="M44.8704 426.406C37.6614 426.098 30.3031 428.596 24.7355 433.254C23.5308 434.254 22.3389 435.491 22.1501 437.022C23.8721 436.822 25.5941 436.621 27.3054 436.402C30.586 436.024 34.0086 435.586 36.8271 433.812C39.852 431.918 41.807 428.666 44.7893 426.698" fill="#ADD57F"/>
<path d="M56.0118 434.32C51.4102 435.278 46.7975 436.217 42.1772 437.186C40.2353 437.593 38.2638 437.993 36.4116 438.725C33.1213 439.998 30.2187 442.278 28.2015 445.172C28.0509 445.387 27.9069 445.698 28.0758 445.901C28.1712 446.021 28.327 446.031 28.4642 446.051C32.2504 446.528 36.1111 445.802 39.6222 444.35C43.1332 442.897 46.3463 440.763 49.2983 438.354C51.0829 436.905 52.8688 435.33 55.0939 434.807" fill="#ADD57F"/>
<path d="M56.41 433.644C54.7323 428.816 53.9947 423.639 54.5803 418.602C55.1659 413.564 57.1339 408.68 60.4486 404.911C60.539 414.679 59.2391 424.45 56.6056 433.809" fill="#ADD57F"/>
<path d="M47.2132 427.62C44.0868 420.894 42.0326 413.464 42.8397 406.186C43.0353 404.522 43.3798 402.822 44.3529 401.491C46.2674 404.102 47.3232 407.241 48.2915 410.356C49.0139 412.675 49.7514 415.062 49.6739 417.469C49.5775 420.801 48.0123 423.825 46.4644 426.713" fill="#ADD57F"/>
<path d="M68.6597 448.18C65.8939 447.849 63.1236 447.596 60.3486 447.42C58.4087 447.306 56.461 447.221 54.5324 447.425C49.1017 448.005 43.9739 450.984 40.7568 455.396C43.5498 456.286 46.5598 455.924 49.4737 455.568C54.5163 454.965 59.7745 454.261 64.0056 451.457C65.6631 450.361 67.1354 448.948 69.0169 448.321" fill="#ADD57F"/>
<path d="M70.4851 448.173C68.3077 443.218 66.802 437.92 66.749 432.521C66.6961 427.123 68.1949 421.616 71.5422 417.432C72.6176 418.922 73.0136 420.784 73.3568 422.6C74.1154 426.706 74.6336 430.927 73.9022 435.027C73.1395 439.249 71.1213 443.121 69.1266 446.901" fill="#ADD57F"/>
<path d="M77.8042 459.582C71.8559 457.497 65.3863 457.16 59.3582 458.603C56.6729 459.248 53.9632 460.32 52.2315 462.469C52.2734 462.754 52.5936 462.876 52.8615 462.951C54.9157 463.527 56.9806 463.993 59.0748 464.34C60.7264 464.61 62.3926 464.82 64.0422 464.576C65.0974 464.422 66.1258 464.051 67.1356 463.692C70.8219 462.332 74.3882 460.681 77.9545 459.03" fill="#ADD57F"/>
<path d="M77.976 460.537C78.3584 456.173 78.2848 451.764 78.9763 447.454C79.6678 443.144 81.2638 438.824 84.4142 435.911C85.3671 441.263 84.6773 446.874 82.4942 451.745C81.8892 453.089 81.1824 454.388 80.4643 455.668C79.6184 457.205 78.7537 458.753 77.9191 460.31" fill="#ADD57F"/>
<path d="M420.893 409C421.559 409 421.559 408 420.893 408C420.227 408 420.227 409 420.893 409Z" fill="#AEDCF6"/>
<path d="M374.954 485.361C375.159 485.62 374.974 486 374.645 486H62.9865C60.9293 486 59.7766 483.629 61.0469 482.011L73.431 466.175C77.6137 460.826 84.0165 457.689 90.8063 457.661L324.48 457.066L338.483 457.034C347.883 457.013 356.749 461.398 362.437 468.882L372.414 482.011L374.954 485.361Z" fill="#0B7A6A"/>
<path opacity="0.14" d="M165.479 481.433C73.5171 481.672 79.9448 466.361 91.1329 457.586L325.227 457C345.761 488.666 292.738 481.108 165.479 481.433Z" fill="black"/>
<path d="M220.7 331.057C220.176 334.997 219.653 337 219.653 337L200.58 317.124C200.58 317.124 204.879 299.45 202.501 294.717C200.1 289.985 187.771 290.667 187.771 290.667L175.246 286.772L171.929 285.737L137.516 302.927C137.516 302.927 136.796 302.465 135.749 301.761C134.767 301.101 133.501 300.22 132.235 299.318C131.166 298.547 130.097 297.755 129.246 297.029C129.049 296.852 128.853 296.676 128.657 296.522C128.177 296.104 127.806 295.708 127.587 295.422C126.082 293.331 126.671 292.098 130.337 289.325C134.003 286.551 133.37 285.077 134.876 282.259C136.382 279.442 136.185 278.76 144.957 278.804C153.73 278.848 159.774 276.999 171.209 275.238C182.643 273.477 213.15 273.433 215.375 276.162C217.601 278.892 221.398 296.016 221.66 312.282C221.791 320.602 221.245 326.897 220.7 331.057Z" fill="#EDB08E"/>
<path opacity="0.14" d="M221.68 331.105C221.155 335.013 220.631 337 220.631 337L201.541 317.286C201.541 317.286 205.844 299.755 203.463 295.062C201.061 290.368 188.72 291.045 188.72 291.045L176.183 287.181C175.899 286.526 175.746 286.176 175.746 286.176C176.226 286.176 201.738 284.19 206.368 293.555C210.999 302.921 210.366 323.53 221.112 330.734C221.287 330.844 221.483 330.975 221.68 331.105Z" fill="black"/>
<path d="M133.806 298.282C133.806 298.282 133.239 298.67 132.366 299.251C129.137 301.383 121.652 306.206 121.826 304.721C121.87 304.333 122.197 303.752 122.721 303.041C124.292 300.888 127.522 297.744 128.809 296.517C129.158 296.194 129.355 296 129.355 296L130.009 296.345L133.806 298.282Z" fill="#EDB08E"/>
<path opacity="0.14" d="M135.883 301.566C135.84 301.587 135.797 301.609 135.732 301.63C134.76 300.982 133.508 300.118 132.256 299.232C129.06 301.371 121.654 306.21 121.826 304.72C121.87 304.331 122.194 303.748 122.712 303.035C124.223 301.846 126.836 299.664 129.319 296.964C129.405 296.856 129.513 296.769 129.6 296.661C129.708 296.553 129.816 296.424 129.945 296.294C134.048 291.8 144.088 281.431 146.399 286.248C148.752 291.26 139.813 300.032 135.883 301.566Z" fill="black"/>
<path d="M197.021 334.807C196.668 334.895 196.337 335.005 196.028 335.137C195.521 335.357 195.058 335.621 194.639 335.929C191.573 338.196 190.735 342.926 188.772 347.811C186.919 352.431 184.029 357.227 177.258 360.198C163.737 366.16 151.738 362.112 146.51 352.739C145.738 351.375 145.121 349.879 144.657 348.295C144.194 346.71 143.929 345.258 143.841 343.894C143.643 341.298 144.062 339.12 144.79 337.294C146.642 332.695 150.502 330.319 151.804 328.977C153.855 326.799 152.002 321.144 154.098 319.912C156.193 318.658 159.171 321.034 159.7 319.714C160.23 318.394 162.281 318.68 162.347 317.668C162.435 316.656 164.31 318.68 166.097 316.106C167.861 313.531 170.045 313.003 175.317 316.304C175.493 316.414 175.692 316.546 175.912 316.656C178.625 318.24 183.169 320.286 187.183 322.002C191.617 323.894 195.411 325.368 195.411 325.368C195.411 325.368 206.175 332.431 197.021 334.807Z" fill="#FFC7A2"/>
<path opacity="0.13" d="M171.752 336.163C171.752 336.163 171.729 336.206 171.685 336.313C171.151 337.561 167.036 346.532 156.272 349.716C152.602 350.792 149.488 351.91 146.886 352.728C143.371 353.825 140.814 354.406 139.146 353.674C138.1 348.855 139.346 344.682 143.905 343.348C143.905 343.348 143.972 343.671 144.194 344.101C143.994 341.563 144.417 339.433 145.151 337.647C145.862 339.282 147.62 340.81 152.001 339.519C159.941 337.174 168.215 330.634 171.752 336.163Z" fill="black"/>
<path d="M196.713 342.212C196.626 348.72 194.124 359.133 188.924 365.355C186.379 368.399 183.856 370.296 181.201 371.532C175.87 373.981 170.011 373.606 162.442 373.936C162.179 373.936 161.915 373.958 161.652 373.981C153.666 374.378 146.469 368.642 142.388 362.023C140.808 359.464 139.667 356.751 139.141 354.236C138.11 349.294 139.338 345.014 143.836 343.646C143.836 343.646 143.902 343.977 144.121 344.418C144.692 345.544 146.315 347.397 150.857 346.669C157.176 345.654 157.308 340.271 164.482 336.432C168.629 334.226 170.341 334.844 171.262 336.432C171.92 337.602 172.162 339.3 172.579 340.778C173.039 342.367 174.663 342.19 176.703 341.859C179.183 341.44 182.254 340.756 184.536 342.631C187.103 344.749 189.166 341.595 191.206 339.058C192.347 337.624 193.466 336.388 194.673 336.388C194.805 336.388 194.914 336.41 195.046 336.432C196.165 336.653 196.757 338.947 196.713 342.212Z" fill="#76484A"/>
<path d="M183.709 379.34C183.687 380.055 183.622 380.814 183.512 381.619C182.443 391.07 169.082 392.768 162.795 385.484C162.271 384.881 161.812 384.211 161.397 383.496C158.625 378.602 159.847 375.318 161.703 373.307C163.428 371.408 165.698 370.604 165.698 370.604C165.698 370.604 167.052 370.268 174.059 370.023C176.657 369.933 178.775 370.09 180.369 370.849C182.748 371.989 183.927 374.447 183.709 379.34Z" fill="#76484A"/>
<path opacity="0.3" d="M195.717 342.161C195.63 348.683 193.147 359.118 187.986 365.352C185.46 368.403 182.955 370.304 180.32 371.542C182.694 372.647 183.87 375.079 183.63 379.921C183.173 378.262 182.15 376.494 179.972 375.543C175.159 373.443 175.769 379.169 171.065 377.4C166.491 375.676 157.78 377.047 162.789 386C162.266 385.403 161.809 384.74 161.395 384.032C158.629 379.191 159.849 375.941 161.7 373.952C161.439 373.952 161.177 373.974 160.916 373.996C152.989 374.394 145.846 368.646 141.795 362.014C144.517 365.109 149.395 369.53 155.014 370.193C163.442 371.21 162.724 366.28 169.889 367.651C177.054 369.022 182.759 367.209 185.307 359.869C187.855 352.53 183.26 343.598 177.337 342.36C176.727 342.228 176.226 342.051 175.834 341.808C178.295 341.388 181.344 340.702 183.609 342.581C186.157 344.704 188.204 341.542 190.229 339C192.124 339.84 194.04 340.879 195.717 342.161Z" fill="black"/>
<path d="M171.816 334.42C168.64 337.6 165.702 345.04 169.677 347.485C173.652 349.929 178.146 343.18 177.714 337.773C177.304 332.365 174.236 332.019 171.816 334.42Z" fill="#FFC7A2"/>
<path opacity="0.14" d="M175.487 337.348C173.916 336.24 171.97 337.984 172.955 339.667C173.94 341.349 175.44 339.708 174.573 338.702C174.573 338.702 175.768 339.79 174.784 341.472C173.799 343.155 170.845 343.196 170.985 340.651C170.985 340.651 169.836 343.339 172.65 343.955C175.487 344.529 178.512 339.482 175.487 337.348Z" fill="black"/>
<path d="M257.628 405.157C257.715 418.072 244.545 419.494 233.149 416.955C232.273 416.758 231.396 416.539 230.541 416.299C224.581 414.613 219.474 411.921 217.634 409.425C217.546 409.316 217.48 409.228 217.414 409.119C217.327 408.988 217.261 408.856 217.195 408.703C216.647 407.565 216.078 406.273 215.508 404.872C214.829 403.187 214.105 401.326 213.382 399.378C213.229 398.962 213.053 398.525 212.9 398.109C212.834 397.955 212.79 397.824 212.725 397.671C212.177 396.204 211.607 394.672 211.015 393.118C210.862 392.702 210.709 392.308 210.555 391.892C210.511 391.761 210.446 391.63 210.402 391.476C210.292 391.214 210.183 390.929 210.073 390.666C210.029 390.535 209.964 390.404 209.92 390.251C209.876 390.119 209.81 389.988 209.766 389.835C209.701 389.681 209.635 389.506 209.569 389.353C209.503 389.2 209.438 389.025 209.372 388.871C209.306 388.718 209.24 388.543 209.175 388.39C209.109 388.259 209.065 388.105 208.999 387.974C208.977 387.952 208.977 387.908 208.955 387.886C208.824 387.58 208.692 387.252 208.561 386.945C208.495 386.792 208.43 386.617 208.364 386.464C208.298 386.31 208.232 386.135 208.167 385.982C208.101 385.829 208.035 385.654 207.969 385.501C207.925 385.391 207.86 385.26 207.816 385.15C207.772 385.063 207.728 384.953 207.684 384.866C207.421 384.253 207.158 383.662 206.874 383.071C206.83 382.94 206.764 382.83 206.698 382.699C206.611 382.524 206.523 382.349 206.457 382.152C206.435 382.13 206.435 382.108 206.413 382.064C205.427 379.963 204.397 377.927 203.302 376.044C198.612 367.989 191.139 356.979 189.21 347.808C188.926 346.429 188.75 345.093 188.728 343.824C188.685 339.993 189.999 336.688 193.418 334.302C202.732 327.845 207.443 329.618 216.845 333.361C217.042 333.448 217.239 333.514 217.436 333.602C217.809 333.755 218.181 333.908 218.576 334.061C220.395 334.784 222.367 335.55 224.581 336.338C225.435 336.644 226.312 336.951 227.232 337.235C244.501 342.948 246.627 344.896 250.352 360.81C250.374 360.919 250.396 361.029 250.44 361.16C250.462 361.269 250.483 361.379 250.505 361.488C250.593 361.838 250.659 362.167 250.746 362.517C250.768 362.605 250.79 362.714 250.812 362.802C251.097 363.94 251.36 365.034 251.645 366.107C251.689 366.282 251.733 366.457 251.776 366.654C251.842 366.939 251.93 367.223 251.996 367.486C252.061 367.705 252.105 367.924 252.171 368.143C252.215 368.318 252.259 368.493 252.302 368.668C252.302 368.712 252.324 368.734 252.324 368.777C252.368 368.952 252.412 369.128 252.456 369.303C252.587 369.784 252.697 370.266 252.828 370.725C254.823 378.343 256.488 384.734 257.211 394.694C257.277 395.482 257.321 396.27 257.365 397.102C257.365 397.277 257.387 397.474 257.387 397.671C257.474 399.225 257.518 400.867 257.562 402.596C257.562 402.859 257.562 403.121 257.584 403.384C257.628 403.931 257.628 404.544 257.628 405.157Z" fill="#FFC7A2"/>
<path d="M304.893 477.203C291.746 477.05 224.717 481.12 204.206 472.213C203.261 471.797 202.403 471.359 201.656 470.878C184.97 460.263 188.487 436.691 204.756 422.662C211.747 416.622 215.396 412.113 217.265 408.918C217.286 408.852 217.33 408.809 217.352 408.743C219.727 404.628 219.155 402.768 219.155 402.768L221.837 402.002L223.684 401.477L231.07 399.376L257.055 392C257.055 392 257.165 392.832 257.297 394.276C257.363 394.955 257.429 395.743 257.495 396.662C257.517 396.837 257.517 397.034 257.539 397.209C257.649 398.61 257.737 400.251 257.803 402.068C258.023 407.561 258.023 414.674 257.231 421.721C255.539 436.495 248.24 438.968 248.24 438.968C265.409 437.72 279.985 445.118 291.724 445.752C303.486 446.387 306.409 445.599 315.247 452.493C324.063 459.475 318.655 477.356 304.893 477.203Z" fill="#FFC7A2"/>
<path d="M234.661 408.9C234.661 408.9 234.595 409.164 234.464 409.669C234.399 409.911 234.333 410.197 234.246 410.549C233.94 411.758 233.481 413.605 232.891 415.891C232.848 416.067 232.804 416.243 232.76 416.419C232.738 416.529 232.717 416.616 232.673 416.726C231.93 419.628 230.991 423.146 229.92 426.993C225.092 444.384 217.533 468.303 212.115 470.392C209.865 471.249 207.113 471.997 203.923 472.612C194.879 474.371 182.295 475.185 167.614 474.965C147.756 474.679 126.696 473.997 115.292 474.129C108.629 474.195 106.444 469.776 105.767 463.401C105.286 458.872 105.527 453.375 105.439 447.813C105.439 447.747 105.439 447.703 105.439 447.637C105.439 447.593 105.439 447.549 105.439 447.505C105.439 447.483 105.439 447.484 105.439 447.462C105.439 447.396 105.439 447.33 105.439 447.264C105.439 447.066 105.439 446.868 105.417 446.648C105.417 446.604 105.417 446.56 105.417 446.494C105.417 446.384 105.417 446.274 105.417 446.142C105.417 446.076 105.417 446.032 105.417 445.967C105.417 445.725 105.396 445.483 105.396 445.241C105.396 445.197 105.396 445.131 105.396 445.087C105.396 444.955 105.396 444.823 105.396 444.691C105.396 444.625 105.396 444.559 105.396 444.494C105.396 444.472 105.396 444.45 105.396 444.428C105.396 444.34 105.396 444.274 105.396 444.186C105.396 443.9 105.374 443.592 105.374 443.284C105.374 443.174 105.374 443.086 105.374 442.977C105.374 442.779 105.352 442.559 105.352 442.361C105.352 442.273 105.352 442.185 105.352 442.097C105.352 441.921 105.33 441.745 105.33 441.57C105.33 441.46 105.33 441.35 105.308 441.24C105.308 441.02 105.286 440.822 105.286 440.602C105.286 440.558 105.286 440.536 105.286 440.492C105.264 439.943 105.243 439.393 105.221 438.821C105.221 438.755 105.221 438.667 105.221 438.602C105.221 438.58 105.221 438.58 105.221 438.558C105.221 438.448 105.221 438.36 105.199 438.25C105.177 437.766 105.155 437.26 105.133 436.755C105.133 436.667 105.133 436.601 105.133 436.513C105.133 436.315 105.112 436.117 105.112 435.941C105.112 435.743 105.09 435.546 105.09 435.326C105.068 435.084 105.068 434.842 105.046 434.6C105.046 434.446 105.024 434.27 105.024 434.117C104.98 433.281 104.937 432.424 104.893 431.566C104.871 431.346 104.871 431.105 104.849 430.863C104.849 430.819 104.849 430.775 104.849 430.731C104.828 430.467 104.828 430.181 104.806 429.895C104.784 429.61 104.784 429.324 104.762 429.06C104.762 428.928 104.74 428.796 104.74 428.664C104.718 428.379 104.696 428.071 104.696 427.785C104.696 427.653 104.675 427.543 104.675 427.411C104.675 427.279 104.653 427.125 104.653 426.993C104.653 426.862 104.631 426.708 104.631 426.576C104.609 426.268 104.587 425.982 104.565 425.674C104.544 425.41 104.544 425.169 104.522 424.905C104.5 424.597 104.478 424.311 104.456 424.003C104.456 423.872 104.434 423.718 104.434 423.586C104.412 423.322 104.391 423.058 104.391 422.794C104.391 422.706 104.369 422.618 104.369 422.53C104.347 422.355 104.347 422.179 104.325 422.003C104.303 421.827 104.303 421.651 104.281 421.475C104.216 420.596 104.15 419.716 104.085 418.815C104.063 418.463 104.041 418.111 103.997 417.76C103.997 417.672 103.975 417.584 103.975 417.474C103.954 417.122 103.932 416.77 103.888 416.441C103.888 416.353 103.866 416.265 103.866 416.177C103.844 415.935 103.823 415.693 103.801 415.451C103.648 413.429 103.473 411.428 103.298 409.493C103.298 409.427 103.276 409.361 103.276 409.295C103.276 409.186 103.255 409.054 103.255 408.944C103.233 408.79 103.233 408.658 103.211 408.504C103.189 408.306 103.167 408.13 103.167 407.932C103.145 407.757 103.145 407.603 103.123 407.427C103.123 407.339 103.102 407.251 103.102 407.141C103.102 407.031 103.08 406.921 103.08 406.811C103.058 406.613 103.036 406.415 103.014 406.218C102.992 406.086 102.992 405.954 102.971 405.822C102.927 405.294 102.861 404.789 102.818 404.283C102.818 404.195 102.796 404.085 102.796 403.997C102.73 403.425 102.665 402.876 102.599 402.326C102.599 402.26 102.577 402.172 102.577 402.106C102.577 402.04 102.555 401.952 102.555 401.887C102.534 401.733 102.512 401.601 102.512 401.447C102.512 401.425 102.512 401.403 102.512 401.381C102.49 401.271 102.49 401.139 102.468 401.029C102.424 400.743 102.403 400.435 102.359 400.15C102.337 400.04 102.337 399.93 102.315 399.82C102.315 399.798 102.315 399.754 102.293 399.732C102.293 399.666 102.271 399.6 102.271 399.534C102.271 399.468 102.25 399.402 102.25 399.336C102.228 399.226 102.228 399.116 102.206 399.006C102.206 398.984 102.206 398.963 102.206 398.919C102.206 398.831 102.184 398.743 102.162 398.677C102.14 398.567 102.14 398.457 102.119 398.347C102.119 398.325 102.119 398.325 102.119 398.303C102.075 398.039 102.053 397.797 102.009 397.533V397.511C101.987 397.314 101.944 397.138 101.922 396.94C101.922 396.874 101.9 396.808 101.9 396.764C101.878 396.676 101.878 396.566 101.856 396.478C101.856 396.434 101.835 396.368 101.835 396.324C101.813 396.17 101.791 396.038 101.769 395.885C101.747 395.819 101.747 395.753 101.725 395.665C101.725 395.599 101.703 395.555 101.703 395.489C101.66 395.203 101.616 394.917 101.572 394.631C101.572 394.631 101.572 394.631 101.572 394.609C101.551 394.5 101.529 394.39 101.529 394.302C101.507 394.236 101.507 394.148 101.485 394.082C101.463 393.994 101.463 393.906 101.441 393.818C101.419 393.708 101.398 393.62 101.376 393.51C101.376 393.466 101.354 393.4 101.354 393.356C101.332 393.268 101.31 393.18 101.31 393.092C101.267 392.829 101.201 392.587 101.157 392.345C101.157 392.301 101.135 392.257 101.135 392.235C101.135 392.213 101.135 392.191 101.114 392.169C101.092 392.103 101.092 392.037 101.07 391.971C101.048 391.905 101.026 391.817 101.026 391.751C101.004 391.641 100.983 391.532 100.961 391.444C100.917 391.29 100.873 391.114 100.851 390.96C100.677 390.278 100.502 389.619 100.327 388.959C97.9459 380.165 95.5865 373.152 94.9092 359.697C94.1883 345.253 101.966 319.245 105.155 318.211C108.345 317.178 111.294 319.333 109.59 338.35C109.503 339.449 109.437 340.46 109.415 341.428C109.219 357.257 119.989 356.487 121.256 361.83C122.611 367.48 119.705 370.338 116.144 372.712C113.741 374.317 114.003 377.153 116.188 384.408C117.236 387.882 118.722 392.345 120.557 398.171C126.259 416.155 130.41 441.35 129.645 446.274C129.427 447.681 129.732 448.693 130.519 449.33C132.507 450.891 137.619 450.166 145.615 447.857C156.866 444.603 176.2 439.635 179.914 437.634C183.628 435.634 185.135 427.433 193 420.464C200.864 413.473 211.46 416.287 212.967 409.186C213.142 408.394 213.273 407.625 213.361 406.899C213.47 405.932 213.535 405.03 213.535 404.195C213.557 401.974 213.273 400.194 212.989 399.028C212.749 397.995 212.509 397.424 212.509 397.402L221.488 402.04L222.929 402.788L229.177 406.02L230.226 406.569L234.661 408.9Z" fill="#FFC7A2"/>
<path d="M252.635 370.585C250.858 375.156 244.311 380.535 229.723 385.937C221.182 389.108 214.83 391.338 211.254 393C211.102 392.585 210.95 392.191 210.798 391.775C210.755 391.644 210.69 391.513 210.647 391.36C210.538 391.097 210.43 390.813 210.321 390.551C210.278 390.42 210.213 390.288 210.17 390.135C210.126 390.004 210.061 389.873 210.018 389.72C209.953 389.567 209.888 389.392 209.823 389.239C209.758 389.086 209.693 388.911 209.628 388.758C209.563 388.605 209.498 388.43 209.433 388.277C209.368 388.145 209.324 387.992 209.259 387.861C209.238 387.839 209.238 387.795 209.216 387.774C209.086 387.467 208.956 387.139 208.826 386.833C208.761 386.68 208.696 386.505 208.631 386.352C208.566 386.199 208.501 386.024 208.436 385.871C208.371 385.718 208.306 385.543 208.24 385.39C208.197 385.281 208.132 385.149 208.089 385.04C208.045 384.953 208.002 384.843 207.959 384.756C207.699 384.143 207.438 383.553 207.157 382.963C207.113 382.831 207.048 382.722 206.983 382.591C206.897 382.416 206.81 382.241 206.745 382.044C206.723 382.022 206.723 382 206.701 381.957C207.373 381.519 208.154 381.038 209.064 380.513C215.979 376.599 227.858 365.096 227.967 350.029C227.988 348.039 227.446 346.027 226.579 344.103C224.758 340.036 221.464 336.296 218.732 334C220.531 334.722 222.482 335.487 224.672 336.274C225.517 336.58 226.384 336.887 227.295 337.171C244.376 342.878 246.479 344.825 250.164 360.723C250.186 360.832 250.207 360.941 250.251 361.073C250.272 361.182 250.294 361.291 250.316 361.401C250.402 361.751 250.468 362.079 250.554 362.428C250.576 362.516 250.598 362.625 250.619 362.713C250.901 363.85 251.161 364.943 251.443 366.015C251.486 366.19 251.53 366.365 251.573 366.562C251.638 366.846 251.725 367.13 251.79 367.393C251.855 367.611 251.898 367.83 251.963 368.049C252.007 368.223 252.05 368.398 252.093 368.573C252.093 368.617 252.115 368.639 252.115 368.683C252.158 368.858 252.202 369.033 252.245 369.208C252.397 369.623 252.527 370.104 252.635 370.585Z" fill="#EBFCF4"/>
<path d="M233.662 415.815C233.641 415.924 233.619 416.012 233.575 416.121C232.83 419.003 231.888 422.497 230.814 426.318C225.973 443.591 218.392 467.349 212.959 469.423C210.702 470.275 207.942 471.017 204.743 471.629C195.673 473.375 183.054 474.183 168.332 473.965C148.417 473.681 127.297 473.004 115.861 473.135C109.179 473.201 106.988 468.812 106.309 462.479C105.827 457.981 106.068 452.522 105.98 446.997C105.98 446.932 105.98 446.888 105.98 446.823C105.98 446.779 105.98 446.735 105.98 446.692C105.98 446.67 105.98 446.67 105.98 446.648C105.98 446.582 105.98 446.517 105.98 446.451C105.98 446.255 105.98 446.058 105.958 445.84C105.958 445.796 105.958 445.753 105.958 445.687C105.958 445.578 105.958 445.469 105.958 445.338C105.958 445.272 105.958 445.229 105.958 445.163C105.958 444.923 105.937 444.683 105.937 444.443C105.937 444.399 105.937 444.333 105.937 444.29C105.937 444.159 105.937 444.028 105.937 443.897C105.937 443.831 105.937 443.766 105.937 443.7C105.937 443.678 105.937 443.656 105.937 443.635C105.937 443.547 105.937 443.482 105.937 443.394C105.937 443.111 105.915 442.805 105.915 442.499C105.915 442.39 105.915 442.303 105.915 442.193C105.915 441.997 105.893 441.779 105.893 441.582C105.893 441.495 105.893 441.407 105.893 441.32C105.893 441.145 105.871 440.971 105.871 440.796C105.871 440.687 105.871 440.578 105.849 440.468C105.849 440.25 105.827 440.053 105.827 439.835C105.827 439.791 105.827 439.77 105.827 439.726C105.805 439.18 105.783 438.634 105.761 438.066C105.761 438.001 105.761 437.914 105.761 437.848C105.761 437.826 105.761 437.826 105.761 437.804C105.761 437.695 105.761 437.608 105.739 437.499C105.717 437.018 105.696 436.516 105.674 436.014C105.674 435.926 105.674 435.861 105.674 435.774C105.674 435.577 105.652 435.381 105.652 435.206C105.652 435.009 105.63 434.813 105.63 434.594C105.608 434.354 105.608 434.114 105.586 433.874C105.586 433.721 105.564 433.546 105.564 433.393C105.52 432.564 105.476 431.712 105.433 430.86C105.411 430.642 105.411 430.402 105.389 430.162C105.389 430.118 105.389 430.074 105.389 430.031C105.367 429.769 105.367 429.485 105.345 429.201C105.323 428.917 105.323 428.633 105.301 428.371C105.301 428.24 105.279 428.109 105.279 427.978C105.257 427.694 105.235 427.388 105.235 427.105C105.235 426.974 105.214 426.864 105.214 426.733C105.214 426.602 105.192 426.45 105.192 426.318C105.192 426.187 105.17 426.035 105.17 425.904C105.148 425.598 105.126 425.314 105.104 425.008C105.082 424.746 105.082 424.506 105.06 424.244C105.038 423.938 105.016 423.654 104.994 423.349C104.994 423.218 104.973 423.065 104.973 422.934C104.951 422.672 104.929 422.41 104.929 422.148C104.929 422.06 104.907 421.973 104.907 421.886C104.885 421.711 104.885 421.536 104.863 421.362C104.841 421.187 104.841 421.012 104.819 420.838C104.753 419.964 104.688 419.091 104.622 418.195C104.6 417.846 104.578 417.497 104.534 417.147C104.534 417.06 104.512 416.973 104.512 416.863C104.491 416.514 104.469 416.165 104.425 415.837C104.425 415.75 104.403 415.662 104.403 415.575C104.381 415.335 104.359 415.095 104.337 414.855C104.184 412.846 104.009 410.858 103.833 408.937C103.833 408.871 103.811 408.806 103.811 408.74C103.811 408.631 103.789 408.5 103.789 408.391C103.768 408.238 103.768 408.107 103.746 407.954C103.724 407.758 103.702 407.583 103.702 407.387C103.68 407.212 103.68 407.059 103.658 406.884C103.658 406.797 103.636 406.71 103.636 406.6C103.636 406.491 103.614 406.382 103.614 406.273C103.592 406.076 103.57 405.88 103.549 405.683C103.527 405.552 103.527 405.421 103.505 405.29C103.461 404.766 103.395 404.264 103.351 403.762C103.351 403.674 103.329 403.565 103.329 403.478C103.264 402.91 103.198 402.364 103.132 401.818C103.132 401.753 103.11 401.665 103.11 401.6C103.11 401.534 103.088 401.447 103.088 401.382C103.067 401.229 103.045 401.098 103.045 400.945C103.045 400.923 103.045 400.901 103.045 400.879C103.023 400.77 103.023 400.639 103.001 400.53C102.957 400.246 102.935 399.94 102.891 399.657C102.869 399.547 102.869 399.438 102.847 399.329C102.847 399.307 102.847 399.263 102.826 399.242C102.826 399.176 102.804 399.111 102.804 399.045C102.804 398.98 102.782 398.914 102.782 398.849C102.76 398.739 102.76 398.63 102.738 398.521C102.738 398.499 102.738 398.477 102.738 398.434C102.738 398.346 102.716 398.259 102.694 398.194C102.672 398.084 102.672 397.975 102.65 397.866C102.65 397.844 102.65 397.844 102.65 397.822C102.606 397.56 102.585 397.32 102.541 397.058V397.036C102.519 396.84 102.475 396.665 102.453 396.468C102.453 396.403 102.431 396.337 102.431 396.294C102.409 396.206 102.409 396.097 102.387 396.01C102.387 395.966 102.365 395.901 102.365 395.857C102.344 395.704 102.322 395.573 102.3 395.42C102.278 395.355 102.278 395.289 102.256 395.202C102.256 395.136 102.234 395.093 102.234 395.027C102.19 394.743 102.146 394.46 102.103 394.176C102.103 394.176 102.103 394.176 102.103 394.154C102.081 394.045 102.059 393.935 102.059 393.848C102.037 393.783 102.037 393.695 102.015 393.63C101.993 393.542 101.993 393.455 101.971 393.368C101.949 393.259 101.927 393.171 101.905 393.062C101.905 393.018 101.883 392.953 101.883 392.909C101.862 392.822 101.84 392.734 101.84 392.647C101.796 392.385 101.73 392.145 101.686 391.905C101.686 391.861 101.664 391.817 101.664 391.796C101.664 391.774 101.664 391.752 101.642 391.73C101.621 391.665 101.621 391.599 101.599 391.533C101.577 391.468 101.555 391.381 101.555 391.315C101.533 391.206 101.511 391.097 101.489 391.009C101.445 390.857 101.401 390.682 101.38 390.529C101.204 389.852 101.029 389.197 100.854 388.542C103.877 389.11 110.691 389.525 116.781 384C117.833 387.45 119.323 391.883 121.163 397.669C126.881 415.531 131.044 440.556 130.277 445.447C130.058 446.845 130.364 447.849 131.153 448.482C133.147 450.033 138.273 449.312 146.292 447.019C157.575 443.787 176.964 438.852 180.688 436.865C184.412 434.878 185.924 426.733 193.811 419.811C201.698 412.867 212.324 415.662 213.835 408.609C214.011 407.823 214.142 407.059 214.23 406.338C214.339 405.378 214.405 404.482 214.405 403.653C214.427 401.447 214.142 399.678 213.857 398.521C213.616 397.495 213.375 396.927 213.375 396.905L222.38 401.513L223.826 402.255L230.091 405.465C230.157 405.618 230.223 405.793 230.289 405.945C230.595 406.731 230.88 407.539 231.187 408.347C231.296 408.631 231.406 408.915 231.494 409.199C232.195 411.164 232.896 413.195 233.553 415.248C233.575 415.488 233.619 415.662 233.662 415.815Z" fill="#0B4654"/>
<path d="M257.628 402.338C257.584 402.382 257.519 402.403 257.475 402.446C256.601 403.03 255.683 403.592 254.787 404.154C250.722 406.661 246.656 408.779 245.454 408.974C243.99 409.211 239.663 409.514 234.898 409.73C234.067 409.773 233.237 409.795 232.406 409.838C231.926 409.86 231.445 409.881 230.964 409.881C225.325 410.054 219.992 410.076 218.769 409.687C218.441 409.579 218.047 409.428 217.632 409.233C217.523 409.19 217.435 409.147 217.326 409.082C216.233 408.563 214.922 407.807 213.72 407.028C213.829 406.078 213.895 405.191 213.895 404.37C213.917 402.187 213.632 400.436 213.348 399.291C213.195 398.88 213.02 398.448 212.867 398.037C212.802 397.886 212.758 397.756 212.693 397.605C213.807 397.821 216.539 398.318 220.32 398.794C223.336 399.161 226.986 399.507 231.03 399.68C239.116 400.004 248.667 399.55 257.256 397.022C257.278 397.022 257.278 397.022 257.3 397C257.322 397.173 257.322 397.367 257.344 397.54C257.453 398.945 257.54 400.566 257.628 402.338Z" fill="#0B4654"/>
<path d="M252.635 370.28C250.845 374.913 244.253 380.366 229.562 385.841C220.961 389.055 214.565 391.315 210.963 393C210.548 391.914 210.134 390.806 209.697 389.697C214.914 388.035 246.61 377.573 251.784 367C252.089 368.108 252.373 369.194 252.635 370.28Z" fill="#0B4654"/>
<path opacity="0.14" d="M230.667 426.937C225.814 444.349 218.216 468.297 212.77 470.389C210.508 471.247 207.741 471.995 204.535 472.612C204.447 472.634 204.381 472.634 204.293 472.656C197.002 474.042 187.472 474.835 176.404 474.967C173.703 475.011 170.892 475.011 168.015 474.967C148.054 474.681 126.884 473.998 115.421 474.131C108.723 474.197 106.527 469.772 105.847 463.389C107.867 467.263 112.039 470.521 120.318 470.521C140.873 470.521 146.758 470.124 172.1 468.826C199.484 467.417 174.515 425.353 218.194 421.104C224.474 420.466 228.427 422.799 230.667 426.937Z" fill="black"/>
<path d="M304.894 477.2C291.748 477.047 224.718 481.129 204.207 472.196C203.262 471.779 202.405 471.34 201.657 470.857C198.953 469.123 196.777 467.06 195.106 464.756C186.444 452.794 191.127 434.291 204.735 422.504C211.726 416.447 215.375 411.925 217.244 408.721C217.266 408.655 217.31 408.611 217.332 408.545C218.189 407.074 218.651 405.889 218.915 404.967C219.376 403.321 219.134 402.553 219.134 402.553L221.817 401.785L223.663 401.258C231.885 402.641 243.976 402.816 257.475 397.022C257.497 397.022 257.519 397 257.541 397C257.651 398.405 257.739 400.051 257.804 401.873C257.826 402.136 257.826 402.421 257.826 402.707C257.98 406.811 257.98 411.728 257.651 416.798C257.541 418.378 257.409 419.98 257.233 421.583C255.54 436.398 248.241 438.878 248.241 438.878C248.417 438.856 248.615 438.856 248.791 438.834C265.719 437.781 280.096 445.046 291.726 445.682C303.487 446.319 306.411 445.529 315.249 452.442C315.535 452.684 315.821 452.925 316.084 453.167C323.691 460.585 318.195 477.354 304.894 477.2Z" fill="#0B4654"/>
<path d="M257.628 403.25C257.562 403.272 257.519 403.294 257.453 403.316C256.557 403.668 255.662 403.976 254.744 404.263C246.552 406.837 237.902 407.256 230.584 406.882C230.3 406.859 230.016 406.86 229.732 406.838C228.683 406.771 227.678 406.683 226.717 406.595C223.768 406.309 221.125 405.935 218.962 405.561C217.608 405.319 216.428 405.077 215.489 404.879C214.855 404.747 214.331 404.615 213.894 404.505C213.916 402.282 213.632 400.499 213.348 399.333C213.195 398.915 213.02 398.475 212.867 398.056C212.802 397.902 212.758 397.77 212.693 397.616C213.807 397.836 216.537 398.342 220.317 398.827C223.331 399.201 226.979 399.553 231.021 399.729C239.103 400.059 248.65 399.597 257.235 397.022C257.257 397.022 257.257 397.022 257.278 397C257.3 397.176 257.3 397.374 257.322 397.55C257.431 398.959 257.519 400.609 257.584 402.436C257.584 402.502 257.584 402.568 257.584 402.634C257.584 402.788 257.606 402.964 257.606 403.118C257.628 403.162 257.628 403.206 257.628 403.25Z" fill="#0B4654"/>
<path opacity="0.14" d="M109.349 338.326C109.264 339.424 109.199 340.434 109.178 341.4C108.49 341.356 107.673 341.181 106.706 340.851C100.345 338.677 96.5417 350.865 98.6691 369.421C100.775 387.801 106.728 408.728 105.095 438C104.428 422.233 102.795 398.78 100.754 390.875C100.582 390.194 100.41 389.535 100.238 388.877C97.8955 380.093 95.5746 373.088 94.9085 359.649C94.1993 345.221 101.85 319.243 104.987 318.211C108.125 317.179 111.026 319.331 109.349 338.326Z" fill="black"/>
<path opacity="0.14" d="M195.717 335.381C195.215 335.6 194.756 335.863 194.341 336.17C191.303 338.426 190.473 343.136 188.528 348C187.698 347.956 187.086 347.189 186.933 345.305C186.168 336.586 180.313 319.235 180.903 324.317C181.493 329.4 179.701 329.115 177.559 321.163C177.079 319.388 176.445 318.03 175.746 317C178.433 318.577 182.935 320.615 186.911 322.324C189.927 326.749 193.51 332.073 195.717 335.381Z" fill="black"/>
<path d="M218.684 333.711C218.684 333.711 190.809 352.336 189.255 347.058C189.234 346.993 189.212 346.927 189.19 346.862C188.446 344.267 187.943 340.93 187.308 337.179C186.652 333.275 185.864 328.935 184.551 324.486C181.947 315.698 183.545 312.775 177.637 305.971C171.729 299.167 171.883 293.584 166.303 295.176C160.702 296.768 147.683 301.74 141.338 305.557C134.993 309.373 126.131 314.782 124.687 317.508C123.265 320.19 122.893 322.218 119.567 324.901C119.545 324.923 119.524 324.944 119.502 324.966C116.11 327.67 111.559 330.658 110.837 333.886C110.115 337.114 110.596 338.182 108.365 337.419C106.133 336.656 107.052 331.574 108.452 329.502C109.853 327.431 112.959 325.838 112.959 325.838C112.959 325.838 111.953 324.923 108.89 327.431C105.805 329.939 97.2277 340.363 96.1118 338.902C94.9959 337.419 97.9497 333.559 98.2342 332.621C98.5186 331.661 97.7528 329.153 98.2342 327.409C98.7155 325.664 100.182 323.658 100.182 323.658C99.4157 319.165 111.253 312.557 115.519 309.329C119.786 306.102 123.79 304.313 131.82 297.16C139.85 289.985 167.091 270.881 173.064 273.193C179.059 275.504 199.736 300.541 204.812 311.445C208.247 318.86 211.157 324.901 214.199 329.088C214.636 329.699 215.074 330.266 215.533 330.789C216.146 331.509 216.759 332.141 217.393 332.686C217.809 333.079 218.247 333.406 218.684 333.711Z" fill="#FFC7A2"/>
<path opacity="0.14" d="M187.692 338C187.034 334.038 186.245 329.634 184.93 325.119C182.321 316.2 183.921 313.234 178.003 306.329C172.084 299.424 172.238 293.758 166.648 295.373C161.037 296.989 147.994 302.035 141.637 305.908C135.28 309.781 126.403 315.27 124.956 318.037C123.531 320.759 123.158 322.817 119.826 325.54C121.646 323.105 123.268 320.029 123.268 316.842C123.268 309.693 129.143 311.552 135.061 308.033C140.979 304.514 152.466 298.14 161.3 294.776C170.133 291.434 172.019 286.565 174.101 288.402C176.183 290.217 172.106 293.846 178.178 301.57C184.25 309.295 183.549 316.023 186.135 326.403C187.67 332.378 187.823 336.008 187.692 338Z" fill="black"/>
<path opacity="0.14" d="M226.002 353.99C222.897 367.309 215.146 365.264 217.81 351.789C219.241 344.473 218.074 337.669 216.687 333C216.885 333.089 217.083 333.156 217.282 333.245C217.656 333.4 218.03 333.556 218.427 333.712C220.254 334.445 222.236 335.224 224.46 336.024C225.297 338.381 226.024 341.094 226.42 344.007C226.817 347.164 226.795 350.566 226.002 353.99Z" fill="black"/>
<path opacity="0.14" d="M233.105 415.71C233.017 415.71 232.908 415.732 232.821 415.732C232.036 415.798 231.185 415.842 230.291 415.864C228.895 415.908 227.368 415.886 225.731 415.82C220.409 415.556 215.741 415.556 211.596 416.018C203.416 416.921 197.199 419.605 191.811 425.569C183.696 434.57 190.131 440.864 170.302 443.835C150.691 446.784 130.339 456.819 130.819 449.205C132.804 450.767 137.908 450.041 145.892 447.73C157.127 444.473 176.432 439.5 180.14 437.497C183.849 435.494 185.354 427.286 193.207 420.31C201.06 413.312 211.64 416.128 213.145 409.02C213.319 408.228 213.45 407.458 213.537 406.732C213.647 405.763 213.712 404.861 213.712 404.025C213.734 401.802 213.45 400.019 213.167 398.853C213.014 398.435 212.839 397.995 212.687 397.577C212.621 397.423 212.578 397.291 212.512 397.137C211.967 395.662 211.4 394.122 210.811 392.559C210.658 392.141 210.505 391.745 210.353 391.327C210.309 391.195 210.244 391.063 210.2 390.909C210.091 390.645 209.982 390.359 209.873 390.094C209.829 389.962 209.764 389.83 209.72 389.676C209.676 389.544 209.611 389.412 209.567 389.258C209.502 389.104 209.436 388.928 209.371 388.774C209.306 388.62 209.24 388.444 209.175 388.29C209.109 388.136 209.044 387.96 208.978 387.806C208.913 387.674 208.869 387.52 208.804 387.388C208.782 387.366 208.782 387.322 208.76 387.3C208.629 386.991 208.498 386.661 208.368 386.353C208.302 386.199 208.237 386.023 208.171 385.869C208.106 385.715 208.04 385.539 207.975 385.385C207.909 385.231 207.844 385.055 207.779 384.901C207.735 384.791 207.67 384.659 207.626 384.549C207.582 384.461 207.539 384.351 207.495 384.263C207.233 383.646 206.971 383.052 206.688 382.458C206.644 382.326 206.579 382.216 206.513 382.084C206.426 381.908 206.339 381.732 206.273 381.534C206.252 381.512 206.252 381.49 206.23 381.446C205.248 379.333 204.223 377.287 203.132 375.394C198.464 367.295 191.025 356.226 189.106 347.005C188.822 345.619 188.648 344.276 188.626 343C190.306 346.829 193.665 353.101 200.209 361.926C212.032 377.881 211.88 379.003 217.246 392.449C218.118 394.628 219.078 396.608 220.103 398.347C220.802 399.557 221.543 400.658 222.307 401.67C222.547 402 222.808 402.308 223.048 402.616C224.139 403.959 225.295 405.103 226.473 406.093C227.738 407.172 229.047 408.052 230.378 408.756C230.945 409.064 231.534 409.328 232.123 409.57C232.886 409.879 233.628 410.143 234.392 410.341C235.962 410.759 237.511 410.979 239.06 411.023C245.56 411.155 243.03 414.83 233.105 415.71Z" fill="black"/>
<path opacity="0.14" d="M257.628 417C257.519 418.599 257.388 420.22 257.214 421.841C255.536 436.832 248.303 439.341 248.303 439.341C248.478 439.319 248.674 439.319 248.848 439.297C238.892 441.673 225.689 437.276 230.809 437.143C236.778 436.987 242.573 438.675 249.61 433.079C253.946 429.636 256.408 422.263 257.628 417Z" fill="black"/>
<path opacity="0.14" d="M304.966 478.194C291.884 478.039 225.184 482.156 204.774 473.147C203.833 472.726 202.98 472.284 202.236 471.797C199.545 470.048 197.38 467.967 195.717 465.643C200.749 469.672 211.533 474.298 234.613 475.515C277.731 477.773 323.736 475.936 316.342 454.73C316.254 454.487 316.167 454.243 316.101 454C323.67 461.437 318.201 478.349 304.966 478.194Z" fill="black"/>
<path d="M127.815 295.475C127.815 295.475 132.938 301.239 135.336 300.992C137.734 300.746 137.211 298.368 134.704 296.193C132.197 294.018 131.957 292.56 131.957 292.56C131.957 292.56 137.603 298.256 140.067 297.83C142.53 297.426 140.416 293.95 138.192 292.47C135.968 290.99 135.358 288.658 135.358 288.658C135.358 288.658 136.906 288.904 139.653 291.887C142.399 294.87 143.162 292.291 142.639 290.609C142.116 288.927 137.778 286.348 137.821 285.092C137.887 283.858 127.815 295.475 127.815 295.475Z" fill="#EDB08E"/>
<path opacity="0.13" d="M145.75 290.014C150.215 284.422 159.889 279.29 165.054 278.128C170.198 276.966 171.007 283.94 160.786 290.409C150.543 296.901 136.645 301.396 145.75 290.014Z" fill="#FFC7A2"/>
<path opacity="0.13" d="M101.964 326.369C104.718 321.581 107.406 317.22 114.602 313.286C121.82 309.352 123.063 315.331 120.798 319.355C118.533 323.379 111.426 323.244 106.495 327.201C101.564 331.157 99.3435 330.955 101.964 326.369Z" fill="#FFC7A2"/>
<path opacity="0.13" d="M185.558 276.25C199.968 275.909 210.388 275.179 211.608 280.08C212.851 284.98 200.338 285.527 190.834 284.661C181.351 283.772 178.757 276.41 185.558 276.25Z" fill="#FFC7A2"/>
<path opacity="0.13" d="M184.896 303.123C186.818 315.66 189.517 337.412 200.075 351.665C210.634 365.917 215.297 353.952 211.238 337.214C207.179 320.455 182.5 287.419 184.896 303.123Z" fill="#FFC7A2"/>
<path opacity="0.13" d="M103.144 371.363C101.037 362.563 101.319 353.957 105.403 355.103C109.488 356.249 116.461 360.509 112.812 366.779C109.162 373.05 104.447 376.834 103.144 371.363Z" fill="#FFC7A2"/>
<path opacity="0.13" d="M127.714 457.796C138.638 453.873 159.052 448.558 170.241 449.029C181.43 449.501 180.238 462.168 165.761 464.29C151.328 466.391 111.272 463.712 127.714 457.796Z" fill="#FFC7A2"/>
<path opacity="0.13" d="M109.636 448.433C111.214 435.702 110.666 430.46 108.386 409.161C106.107 387.862 111.477 386.849 115.794 403.567C120.112 420.284 124.189 428.169 123.794 442.64C123.4 457.133 107.795 463.322 109.636 448.433Z" fill="#FFC7A2"/>
<path opacity="0.13" d="M215.32 465.79C198.89 458.139 199.305 446.021 206.243 440.659C213.182 435.298 226.71 444.474 243.75 446.457C260.791 448.44 283.418 448.92 293.215 452.146C303.011 455.371 306.764 466.858 280.145 468.863C253.547 470.824 225.466 470.519 215.32 465.79Z" fill="#FFC7A2"/>
<path opacity="0.13" d="M225.775 376.162C225.579 388.258 224.422 401.289 239.156 405.271C253.89 409.252 254.086 396.373 251.139 380.295C248.193 364.218 244.416 354.885 239.309 350.599C234.223 346.313 225.928 366.089 225.775 376.162Z" fill="#FFC7A2"/>
<path opacity="0.14" d="M204.704 472.626C197.395 474.051 187.84 474.864 176.744 475C182.975 474.186 194.973 472.084 193.058 468.195C190.482 462.951 190.614 458 190.614 458C192.574 471.202 204.704 472.559 204.704 472.559C204.704 472.559 204.704 472.581 204.704 472.626Z" fill="black"/>
<path d="M42.0426 433L42.313 439.098L45.9328 439.721L42.3547 440.064L41.9386 447L41.4809 440.172L37.9443 439.721L41.5017 439.184L42.0426 433Z" fill="#1C734A"/>
<path d="M142.033 50L142.728 64.8328L151.78 66.3357L142.858 67.1851L141.773 84L140.644 67.4029L131.809 66.3357L140.688 65.0506L142.033 50Z" fill="#FCF6A0"/>
<path d="M108.094 180L108.789 194.833L117.829 196.336L108.919 197.185L107.833 214L106.703 197.403L97.8582 196.336L106.746 195.051L108.094 180Z" fill="#FCF6A0"/>
<path d="M258.315 141L258.836 151.906L265.616 153.012L258.934 153.636L258.119 166L257.271 153.796L250.638 153.012L257.304 152.067L258.315 141Z" fill="#FCF6A0"/>
<path d="M15.2275 57L15.9229 71.8328L24.9632 73.3357L16.0533 74.1851L14.9667 91L13.8367 74.4029L4.99194 73.3357L13.8801 72.0506L15.2275 57Z" fill="#FCF6A0"/>
<path d="M373.689 219L374.385 233.833L383.447 235.336L374.515 236.185L373.429 253L372.299 236.403L363.476 235.336L372.342 234.051L373.689 219Z" fill="#FCF6A0"/>
<path d="M34.1784 319L34.8738 333.855L43.9358 335.357L35.0042 336.207L33.9176 353L32.7876 336.425L23.9646 335.357L32.831 334.072L34.1784 319Z" fill="#FCF6A0"/>
<path d="M385.694 327L386.389 341.855L395.429 343.357L386.52 344.207L385.433 361L384.303 344.425L375.458 343.357L384.346 342.072L385.694 327Z" fill="#FCF6A0"/>
<path d="M374.128 389L374.666 399.903L381.45 401.026L374.755 401.643L373.949 414L373.098 401.797L366.471 401.026L373.121 400.079L374.128 389Z" fill="#FCF6A0"/>
<g clip-path="url(#clip0_5_1646)">
<path d="M365.151 1.53677C332.879 5.93719 306.836 25.0299 295.209 52.8144C288.11 69.8706 286.589 91.109 291.261 109.074C294.376 121.185 299.809 130.967 308.43 139.95C317.811 149.769 328.315 156.279 342.694 161.225C352.51 164.607 359.066 165.734 370.475 165.953C383.406 166.244 391.302 165.225 401.009 162.061C411.368 158.679 421.655 151.915 431.507 142.132C447.842 125.803 457.405 105.692 458.274 85.6903C459.107 66.9976 451.899 46.8502 438.642 30.7759C435.817 27.3574 428.972 20.6295 425.603 17.9383C414.411 9.10112 400.864 3.28238 387.318 1.5004C382.03 0.809418 370.258 0.845795 365.151 1.53677ZM387.173 2.22774C403.653 4.40977 419.59 12.5924 432.34 25.3936C448.096 41.2497 457.296 62.5245 457.332 83.2174C457.332 90.7453 455.775 99.2916 452.95 107.329C450.994 112.82 451.175 112.638 449.327 111.002C447.444 109.256 444.546 107.911 442.156 107.62C433.789 106.638 422.053 115.548 417.961 125.949C417.091 128.131 416.983 128.931 416.946 132.786C416.946 137.186 416.946 137.186 418.359 140.059C419.337 142.059 420.46 143.587 422.126 145.26C423.43 146.533 424.335 147.696 424.154 147.805C423.937 147.951 422.488 149.078 420.894 150.278C406.913 161.079 393.331 165.371 373.337 165.334C365.839 165.334 361.094 164.934 355.299 163.771L351.387 162.97L350.808 160.788C350.482 159.588 349.468 157.043 348.562 155.152C347.656 153.26 346.389 150.206 345.773 148.424C343.274 141.259 340.666 137.332 337.261 135.695C335.414 134.822 331.683 134.531 330.09 135.186C329.474 135.441 327.627 136.459 326.069 137.404C322.519 139.55 321.469 139.841 317.34 139.805C315.13 139.805 313.573 139.986 312.45 140.387L310.82 141.005L309.118 139.223C307.56 137.586 307.415 137.295 307.198 135.004C306.836 131.586 307.089 130.24 308.828 126.567C311.907 120.057 310.965 114.857 306.474 113.111C304.518 112.384 301.91 112.566 300.534 113.584C300.026 113.984 298.94 115.257 298.107 116.457C297.31 117.621 296.404 118.639 296.115 118.712C295.209 118.894 292.456 110.638 291.116 103.692C289.45 95.1458 289.197 82.4536 290.537 73.6892C293.362 55.1055 300.968 39.7223 313.537 27.1392C325.127 15.5017 338.782 8.04648 355.553 4.08246C358.994 3.28238 364.934 2.2641 368.23 1.9368C371.888 1.53676 383.406 1.7186 387.173 2.22774ZM445.778 109.693C447.553 110.602 449.617 112.457 449.907 113.329C450.414 114.966 443.496 126.676 437.846 133.695C434.187 138.168 427.45 145.078 426.835 144.896C425.784 144.569 422.923 140.168 422.198 137.841C419.953 130.495 422.669 122.567 429.805 115.73C433.246 112.457 435.998 110.602 439.222 109.438C441.866 108.493 443.496 108.529 445.778 109.693ZM435.527 110.165C430.565 112.966 425.168 118.493 422.742 123.33C421.039 126.712 420.387 129.258 420.387 132.822C420.387 137.659 421.836 141.296 425.205 144.86C426.183 145.914 426.219 146.06 425.675 146.278C425.205 146.46 424.444 145.951 422.887 144.387C416.91 138.459 416.294 130.095 421.148 121.803C423.683 117.475 430.638 111.366 435.057 109.584C437.483 108.602 437.701 108.893 435.527 110.165ZM306.256 113.838C308.466 115.002 308.212 115.33 305.206 115.33C301.801 115.33 301.041 115.766 298.867 118.966C297.201 121.403 296.694 121.694 296.368 120.53C296.223 119.912 296.368 119.548 296.912 119.184C297.31 118.894 298.288 117.73 299.085 116.566C299.845 115.402 300.86 114.202 301.294 113.911C302.308 113.184 304.916 113.148 306.256 113.838ZM307.271 116.202C309.263 117.112 309.661 117.984 309.48 120.93C309.371 122.821 308.973 124.094 307.597 127.076C305.967 130.604 305.894 130.967 306.003 133.368L306.112 135.913L305.278 134.895C303.721 132.968 299.375 126.349 298.324 124.239C297.274 122.167 297.274 122.13 297.998 121.476C298.397 121.112 299.049 120.239 299.483 119.548C301.729 115.766 304.083 114.748 307.271 116.202ZM336.464 136.277C337.189 136.677 337.805 137.004 337.805 137.077C337.805 137.113 336.537 137.113 335.016 137.041C331.937 136.895 331.828 136.932 326.214 140.277L323.534 141.878H319.513C317.05 141.914 315.022 142.096 314.189 142.423C312.957 142.859 312.776 142.859 312.088 142.241L311.327 141.55L312.341 141.005C313.03 140.641 314.732 140.423 317.666 140.35C322.447 140.205 323.316 139.95 327.953 137.004C329.22 136.204 330.705 135.477 331.212 135.404C332.734 135.15 334.943 135.55 336.464 136.277ZM336.79 137.914C340.449 139.15 342.079 141.478 344.868 149.296C345.592 151.369 347.005 154.715 347.982 156.715C349.504 159.879 350.228 162.425 349.54 162.425C349.431 162.425 346.968 161.625 344.034 160.643C332.915 156.897 323.896 152.06 315.638 145.369C314.515 144.46 313.573 143.587 313.573 143.441C313.501 142.896 316.108 142.423 319.332 142.423C323.461 142.423 324.729 142.059 328.206 139.805C332.19 137.223 333.784 136.859 336.79 137.914Z" fill="#EBFCF4"/>
<path d="M307.271 116.202C309.263 117.112 309.661 117.984 309.48 120.93C309.371 122.821 308.973 124.094 307.597 127.076C305.967 130.604 305.894 130.967 306.003 133.368L306.112 135.913L305.278 134.895C303.721 132.968 299.375 126.349 298.324 124.239C297.274 122.167 297.274 122.13 297.998 121.476C298.397 121.112 299.049 120.239 299.483 119.548C301.729 115.766 304.083 114.748 307.271 116.202Z" fill="#EBFCF4"/>
<path d="M336.79 137.914C340.449 139.15 342.079 141.478 344.868 149.296C345.592 151.369 347.005 154.715 347.982 156.715C349.504 159.879 350.228 162.425 349.54 162.425C349.431 162.425 346.968 161.625 344.034 160.643C332.915 156.897 323.896 152.06 315.638 145.369C314.515 144.46 313.573 143.587 313.573 143.441C313.501 142.896 316.108 142.423 319.332 142.423C323.461 142.423 324.729 142.059 328.206 139.805C332.19 137.223 333.784 136.859 336.79 137.914Z" fill="#EBFCF4"/>
<path d="M445.778 109.693C447.553 110.602 449.617 112.457 449.907 113.329C450.414 114.966 443.496 126.676 437.846 133.695C434.187 138.168 427.45 145.078 426.835 144.896C425.784 144.569 422.923 140.168 422.198 137.841C419.953 130.495 422.669 122.567 429.805 115.73C433.246 112.457 435.998 110.602 439.222 109.438C441.866 108.493 443.496 108.529 445.778 109.693Z" fill="#EBFCF4"/>
<path d="M352.4 15.4506C343.695 17.4121 335.173 23.5873 329.577 32.0146C321.786 43.7837 320.652 49.4141 325.224 53.991C328.626 57.4055 332.978 57.914 337.587 55.5166C339.891 54.2816 346.914 47.8884 359.46 35.5744C366.226 28.927 367.47 27.1108 367.47 23.8415C367.433 17.4847 360.557 13.6343 352.4 15.4506ZM361.471 16.7582C363.227 17.5937 363.227 17.63 362.166 17.739C354.924 18.3929 346.914 22.3522 341.208 28.0552C337.989 31.2881 336.197 33.6492 333.125 38.7346C328.735 45.9995 327.528 50.9034 329.284 54.3905C329.723 55.2623 330.016 55.9525 329.906 55.9525C329.211 55.9525 326.687 54.2452 325.663 53.0465C323.322 50.3222 323.066 47.053 324.822 42.3671C325.809 39.8244 329.65 33.2496 332.21 29.7988C339.891 19.3736 353.973 13.0895 361.471 16.7582ZM364.617 19.1557C366.592 21.4078 366.885 24.4954 365.458 27.6193C364.69 29.2539 362.971 31.1428 355.656 38.2624C338.977 54.5722 336.563 56.4974 333.051 56.2431C331.625 56.1341 331.405 55.9888 330.637 54.5358C328.991 51.4482 329.723 46.6897 332.612 41.4226C337.88 31.833 344.024 25.2945 351.047 21.771C356.863 18.9014 363.264 17.6664 364.617 19.1557Z" fill="#EBFCF4"/>
<path d="M364.617 19.1557C366.592 21.4078 366.885 24.4954 365.458 27.6193C364.69 29.2539 362.971 31.1428 355.656 38.2624C338.977 54.5722 336.563 56.4974 333.051 56.2431C331.625 56.1341 331.405 55.9888 330.637 54.5358C328.991 51.4482 329.723 46.6897 332.612 41.4226C337.88 31.833 344.024 25.2945 351.047 21.771C356.863 18.9014 363.264 17.6664 364.617 19.1557Z" fill="#EBFCF4"/>
<path d="M392.075 29.5667C389.164 30.2539 387.235 31.3027 385.016 33.4004C381.34 36.8724 380.467 41.2124 382.578 45.661C383.196 46.9268 384.106 48.482 384.543 49.133C387.126 52.5689 392.621 59.0428 394.113 60.3809C399.535 65.3358 407.032 65.1911 412.745 60.0193C417.621 55.5707 418.749 48.265 415.729 40.9954C414.783 38.7169 414.091 37.7043 411.835 35.4619C406.377 30.0369 399.135 27.8668 392.075 29.5667ZM400.591 30.1092C403.502 30.724 407.541 32.7494 409.688 34.7747L411.617 36.5469L409.251 35.3172C405.94 33.6174 403.101 32.9302 399.208 32.9302C390.765 32.9302 384.324 37.8489 384.033 44.5036C383.997 46.2035 383.706 46.0588 383.051 44.0335C381.231 38.3553 384.797 32.4962 391.42 30.3985C393.713 29.639 397.789 29.5305 400.591 30.1092ZM404.557 34.2684C407.541 35.1364 410.634 36.9086 412.745 38.9701C414.31 40.4529 414.783 41.2486 415.438 43.3101C417.366 49.5308 415.656 56.7642 411.435 60.0916C405.758 64.5401 398.989 64.1061 394.077 58.9343C391.238 55.9686 386.035 49.133 385.671 47.831C384.943 45.5163 385.125 42.406 386.107 40.3806C387.563 37.2702 391.348 34.5577 395.496 33.6897C397.534 33.2557 402.083 33.545 404.557 34.2684Z" fill="#EBFCF4"/>
<path d="M404.557 34.2684C407.541 35.1364 410.634 36.9086 412.745 38.9701C414.31 40.4529 414.783 41.2486 415.438 43.3101C417.366 49.5308 415.656 56.7642 411.435 60.0916C405.758 64.5401 398.989 64.1061 394.077 58.9343C391.238 55.9686 386.035 49.133 385.671 47.831C384.943 45.5163 385.125 42.406 386.107 40.3806C387.563 37.2702 391.348 34.5577 395.496 33.6897C397.534 33.2557 402.083 33.545 404.557 34.2684Z" fill="#EBFCF4"/>
<path d="M342.162 96.1239C337.053 96.7686 332.124 100.422 329.858 105.292C328.958 107.19 328.67 108.301 328.562 110.628C328.383 114.102 328.85 115.786 330.325 117.039C332.124 118.543 333.419 118.293 337.053 115.857C340.003 113.852 340.831 114.031 347.702 118.042C352.308 120.728 355.438 120.656 358.208 117.791C360.043 115.857 360.654 113.816 360.438 110.27C359.863 101.496 351.444 95.0137 342.162 96.1239ZM341.838 97.7713C337.881 99.7053 334.463 104.289 333.491 108.909C332.988 111.309 333.24 114.425 334.067 115.642C334.607 116.466 334.571 116.538 333.707 116.932C333.06 117.218 332.592 117.218 331.944 116.932C327.915 115.105 328.994 105.937 333.815 101.138C336.262 98.7025 340.003 96.876 342.666 96.8402C343.637 96.8044 343.529 96.9118 341.838 97.7713ZM350.689 98.0579C355.617 100.242 359.431 106.009 359.431 111.273C359.431 114.353 358.855 116.001 357.272 117.72C355.941 119.152 355.797 119.188 353.603 119.188C351.516 119.188 351.048 119.045 348.638 117.612C343.529 114.604 342.162 113.995 340.363 113.995C339.14 113.995 338.276 114.246 337.305 114.926C335.65 116.036 335.11 115.857 334.643 114.102C334.103 112.24 334.139 111.166 334.823 108.265C336.01 102.964 340.507 98.3802 345.652 97.1983C347.307 96.8402 348.242 96.9834 350.689 98.0579Z" fill="#EBFCF4"/>
<path d="M350.689 98.0579C355.617 100.242 359.431 106.009 359.431 111.273C359.431 114.353 358.855 116.001 357.272 117.72C355.941 119.152 355.797 119.188 353.603 119.188C351.516 119.188 351.048 119.045 348.638 117.612C343.529 114.604 342.162 113.995 340.363 113.995C339.14 113.995 338.276 114.246 337.305 114.926C335.65 116.036 335.11 115.857 334.643 114.102C334.103 112.24 334.139 111.166 334.823 108.265C336.01 102.964 340.507 98.3802 345.652 97.1983C347.307 96.8402 348.242 96.9834 350.689 98.0579Z" fill="#EBFCF4"/>
<path d="M420.275 95.9594C419.132 97.2296 419.096 99.1894 420.203 100.859C421.31 102.601 424.488 104.198 426.274 103.98C427.988 103.726 429.381 102.492 429.381 101.149C429.381 99.9153 428.738 99.262 426.56 98.1369C425.667 97.6651 424.56 96.7578 424.096 96.1408C423.06 94.6891 421.489 94.6166 420.275 95.9594ZM423.31 96.8304C423.739 97.4474 424.846 98.3184 425.774 98.7902C427.917 99.9153 428.452 100.569 428.167 101.73C427.809 103.145 426.381 103.545 424.381 102.782C421.132 101.512 419.561 98.645 421.025 96.5401C421.775 95.4513 422.417 95.5239 423.31 96.8304Z" fill="#EBFCF4"/>
</g>
<ellipse cx="210.196" cy="526" rx="164.263" ry="18" fill="url(#paint0_radial_5_1646)" fill-opacity="0.7"/>
<defs>
<radialGradient id="paint0_radial_5_1646" cx="0" cy="0" r="1" gradientUnits="userSpaceOnUse" gradientTransform="translate(210.196 526) rotate(90) scale(18 164.263)">
<stop stop-color="#EBFCF4"/>
<stop offset="1" stop-color="#EBFCF4" stop-opacity="0"/>
</radialGradient>
<clipPath id="clip0_5_1646">
<rect width="169.755" height="166" fill="white" transform="translate(288.583)"/>
</clipPath>
</defs>
</svg>
