<svg width="424" height="475" viewBox="0 0 424 475" fill="none" xmlns="http://www.w3.org/2000/svg">
<path d="M361.906 446C361.906 446 379.089 394.108 363.382 372.53C347.675 350.952 335.224 341.429 343.093 324.029C350.964 306.63 347.46 278.188 326.662 269.647C305.864 261.106 315.52 228.949 292.493 210.486C269.466 192.022 250.692 200.373 239.652 177.598C229.956 157.595 209.841 138.74 189.711 158.124C185.297 162.374 182.336 167.915 180.797 173.909C179.188 180.178 173.565 191.035 154.576 201.891C125.363 218.592 136.946 229.357 125.212 248.648C113.478 267.938 75.862 258.232 61.7488 295.238C47.6359 332.245 78.0954 344.667 75.6241 366.791C73.1532 388.914 58.521 400.978 67.4344 445.39" stroke="#EBFCF4" stroke-opacity="0.4" stroke-miterlimit="10"/>
<path d="M371.053 446C371.053 446 391.155 388.724 374.206 366.97C357.257 345.217 343.821 335.617 352.313 318.077C360.805 300.536 357.024 271.864 334.583 263.254C312.14 254.642 322.56 222.225 297.713 203.612C272.866 184.998 256.235 186.778 244.322 163.819C233.86 143.654 208.529 131.285 186.807 150.826C182.045 155.111 178.85 160.696 177.189 166.739C175.452 173.06 169.385 184.003 148.895 194.947C117.372 211.785 129.871 222.636 117.21 242.083C104.549 261.531 69.5497 254.861 53.8972 287.433C36.443 323.755 63.5543 338.356 60.8874 360.659C58.221 382.961 51.5194 400.666 61.1374 445.439" stroke="#EBFCF4" stroke-opacity="0.4" stroke-miterlimit="10"/>
<path d="M192.032 170.101C187.734 174.339 184.849 179.864 183.35 185.841C181.782 192.092 176.305 202.918 157.809 213.742C129.353 230.395 140.636 241.13 129.206 260.365C117.777 279.599 85.2178 264.844 71.4704 301.744C57.7231 338.645 89.4191 355.301 87.0113 377.361C84.6044 399.421 65.6818 400.715 74.3643 445H361.2C361.2 445 376.5 405.407 361.2 383.891C345.9 362.375 333.771 352.879 341.437 335.53C349.102 318.181 345.69 289.821 325.431 281.304C305.172 272.787 314.579 240.723 292.149 222.312C269.719 203.902 251.432 212.228 240.679 189.519C231.234 169.574 211.641 150.772 192.032 170.101Z" fill="#EBFCF4"/>
<path d="M193.658 179.757C189.545 183.815 186.786 189.106 185.351 194.83C183.851 200.816 178.612 211.182 160.918 221.548C133.695 237.495 144.488 247.774 133.554 266.193C122.62 284.613 91.4715 270.483 78.3199 305.819C65.1685 341.155 95.4909 357.106 93.1878 378.23C90.8848 399.354 72.7824 400.593 81.0882 443H355.495C355.495 443 370.132 405.087 355.495 384.482C340.858 363.878 329.255 354.785 336.587 338.172C343.921 321.559 340.657 294.401 321.276 286.245C301.895 278.089 310.893 247.384 289.436 229.755C267.978 212.124 250.484 220.098 240.195 198.351C231.16 179.252 212.416 161.248 193.658 179.757V179.757Z" stroke="#0B7A6A" stroke-miterlimit="10"/>
<path d="M300.523 285.462C298.79 284.499 296.515 285.195 296.145 284.656C295.776 284.116 298.012 282.451 298.73 280.703C299.45 278.956 298.642 274.426 295.696 276.56C292.751 278.693 292.617 282.329 292.617 282.329C292.617 282.329 292.57 282.529 292.531 282.862C291.532 280.614 292.067 277.511 292.074 277.476C292.104 277.307 291.987 277.146 291.81 277.118C291.626 277.087 291.466 277.201 291.437 277.37C291.411 277.503 290.982 279.989 291.62 282.23C290.071 280.523 287.814 279.485 287.69 279.428C287.53 279.355 287.335 279.421 287.258 279.576C287.182 279.731 287.25 279.916 287.414 279.989C287.448 280.004 290.659 281.482 291.915 283.705C291.527 283.436 291.256 283.298 291.256 283.298C291.256 283.298 288.292 281.02 284.681 281.76C281.07 282.5 284.125 286.046 285.977 286.666C287.83 287.286 290.608 286.754 290.793 287.375C290.978 287.995 288.94 289.189 288.571 291.073C288.2 292.958 290.516 294.913 291.812 294.999C292.986 295.077 294.762 291.305 294.744 288.486C297.017 290.2 300.838 291.237 301.512 290.375C302.291 289.379 302.257 286.424 300.523 285.462Z" fill="#EF8E83"/>
<path d="M111.731 314.752C111.423 313.213 109.821 312.256 109.959 311.746C110.098 311.236 112.271 311.644 113.711 311.119C115.15 310.592 117.499 307.66 114.673 307.089C111.846 306.518 109.556 308.412 109.556 308.412C109.556 308.412 109.41 308.493 109.186 308.651C110.042 306.844 112.216 305.476 112.24 305.461C112.359 305.387 112.396 305.23 112.322 305.111C112.245 304.986 112.094 304.954 111.975 305.028C111.881 305.086 110.141 306.183 109.1 307.773C109.343 305.937 108.81 304.05 108.78 303.946C108.742 303.813 108.602 303.734 108.467 303.774C108.333 303.812 108.255 303.953 108.295 304.088C108.302 304.117 109.061 306.803 108.353 308.746C108.316 308.374 108.26 308.138 108.26 308.138C108.26 308.138 108.12 305.163 105.8 303.445C103.479 301.726 102.894 305.444 103.473 306.868C104.053 308.291 105.814 309.634 105.53 310.079C105.247 310.524 103.465 309.976 102.121 310.781C100.779 311.586 100.782 314.006 101.4 314.814C101.96 315.546 105.183 314.542 106.895 313C107.022 315.265 108.366 318.071 109.241 317.999C110.253 317.915 112.04 316.293 111.731 314.752Z" fill="#EF8E83"/>
<path d="M208.731 203.752C208.424 202.213 206.822 201.256 206.96 200.746C207.098 200.235 209.271 200.644 210.711 200.119C212.149 199.592 214.499 196.66 211.673 196.089C208.847 195.518 206.557 197.411 206.557 197.411C206.557 197.411 206.41 197.493 206.186 197.65C207.043 195.844 209.216 194.476 209.24 194.46C209.359 194.386 209.396 194.23 209.323 194.111C209.246 193.986 209.093 193.954 208.975 194.027C208.881 194.085 207.14 195.182 206.101 196.772C206.343 194.937 205.81 193.048 205.78 192.946C205.741 192.812 205.601 192.734 205.467 192.773C205.333 192.811 205.255 192.953 205.295 193.087C205.303 193.116 206.061 195.803 205.352 197.745C205.316 197.373 205.261 197.138 205.261 197.138C205.261 197.138 205.12 194.163 202.8 192.445C200.48 190.726 199.895 194.444 200.473 195.867C201.052 197.291 202.814 198.633 202.531 199.078C202.248 199.524 200.465 198.976 199.122 199.78C197.778 200.586 197.782 203.006 198.4 203.813C198.96 204.545 202.182 203.541 203.895 202C204.023 204.265 205.366 207.071 206.242 206.999C207.253 206.915 209.04 205.292 208.731 203.752Z" fill="#EF8E83"/>
<path d="M165.803 246.596C165.474 247.04 164.848 247.132 164.404 246.803C163.96 246.474 163.868 245.848 164.197 245.404C164.526 244.961 165.153 244.868 165.596 245.197C166.039 245.526 166.132 246.152 165.803 246.596Z" fill="#FCF6A0"/>
<path d="M167.803 242.596C167.474 243.039 166.848 243.132 166.404 242.803C165.96 242.474 165.868 241.848 166.197 241.404C166.526 240.96 167.152 240.868 167.596 241.197C168.039 241.526 168.132 242.153 167.803 242.596Z" fill="#FCF6A0"/>
<path d="M170.803 248.596C170.474 249.039 169.847 249.132 169.404 248.803C168.961 248.474 168.868 247.848 169.197 247.404C169.525 246.961 170.152 246.868 170.596 247.197C171.04 247.526 171.132 248.152 170.803 248.596Z" fill="#FCF6A0"/>
<path d="M289.803 257.596C289.474 258.04 288.848 258.132 288.404 257.803C287.96 257.474 287.868 256.847 288.197 256.404C288.526 255.961 289.153 255.868 289.596 256.197C290.039 256.526 290.132 257.152 289.803 257.596Z" fill="#FCF6A0"/>
<path d="M292.803 253.596C292.474 254.039 291.848 254.132 291.404 253.803C290.961 253.474 290.868 252.848 291.197 252.404C291.526 251.96 292.152 251.868 292.597 252.197C293.039 252.526 293.132 253.153 292.803 253.596Z" fill="#FCF6A0"/>
<path d="M295.803 259.596C295.473 260.04 294.848 260.132 294.404 259.803C293.96 259.474 293.868 258.847 294.197 258.404C294.527 257.961 295.153 257.868 295.595 258.197C296.04 258.526 296.132 259.152 295.803 259.596Z" fill="#FCF6A0"/>
<path d="M245.803 219.596C245.474 220.039 244.848 220.132 244.405 219.803C243.96 219.474 243.868 218.847 244.197 218.404C244.526 217.961 245.152 217.868 245.596 218.197C246.04 218.527 246.132 219.152 245.803 219.596Z" fill="#FCF6A0"/>
<path d="M248.803 215.596C248.474 216.039 247.848 216.132 247.404 215.803C246.961 215.474 246.868 214.848 247.197 214.404C247.525 213.961 248.152 213.868 248.596 214.197C249.039 214.526 249.133 215.152 248.803 215.596Z" fill="#FCF6A0"/>
<path d="M251.803 222.596C251.474 223.04 250.848 223.132 250.404 222.803C249.96 222.474 249.868 221.847 250.197 221.404C250.526 220.961 251.153 220.868 251.596 221.197C252.04 221.526 252.132 222.152 251.803 222.596Z" fill="#FCF6A0"/>
<path d="M258.363 273.771C257.937 273.419 257.878 272.789 258.229 272.364C258.581 271.937 259.21 271.878 259.636 272.229C260.062 272.581 260.123 273.211 259.771 273.637C259.42 274.062 258.789 274.123 258.363 273.771Z" fill="#FCF6A0"/>
<path d="M261.364 276.771C260.938 276.419 260.877 275.789 261.229 275.363C261.58 274.937 262.211 274.878 262.636 275.229C263.062 275.58 263.123 276.211 262.771 276.637C262.42 277.062 261.789 277.123 261.364 276.771Z" fill="#FCF6A0"/>
<path d="M255.363 278.771C254.937 278.419 254.878 277.789 255.229 277.363C255.58 276.937 256.21 276.878 256.636 277.229C257.062 277.581 257.123 278.211 256.771 278.637C256.419 279.062 255.788 279.123 255.363 278.771Z" fill="#FCF6A0"/>
<path d="M124 294C124 294.552 123.553 295 123.001 295C122.448 295 122 294.552 122 294C122 293.448 122.448 293 123.001 293C123.553 293 124 293.448 124 294Z" fill="white"/>
<path d="M283 232.5C283 233.329 282.328 234 281.5 234C280.671 234 280 233.329 280 232.5C280 231.672 280.671 231 281.5 231C282.328 231 283 231.672 283 232.5Z" fill="#FCF6A0"/>
<path d="M181 278.5C181 279.329 180.328 280 179.5 280C178.672 280 178 279.329 178 278.5C178 277.671 178.672 277 179.5 277C180.328 277 181 277.671 181 278.5Z" fill="#FCF6A0"/>
<path d="M209 183C209 183.552 208.552 184 208 184C207.447 184 207 183.552 207 183C207 182.449 207.447 182 208 182C208.552 182 209 182.449 209 183Z" fill="white"/>
<path d="M278 313.5C278 314.328 277.329 315 276.5 315C275.672 315 275 314.328 275 313.5C275 312.672 275.672 312 276.5 312C277.329 312 278 312.672 278 313.5Z" fill="#FCF6A0"/>
<path d="M191 212.5C191 213.328 190.329 214 189.5 214C188.671 214 188 213.328 188 212.5C188 211.672 188.671 211 189.5 211C190.329 211 191 211.672 191 212.5Z" fill="#FCF6A0"/>
<path d="M44.0871 436H398.61C401.22 436 401.938 439.587 399.523 440.577C375.811 450.294 312.928 472.308 224.797 474.822C142.844 477.16 74.3738 455.884 42.6384 443.875C38.3977 442.27 39.5512 436 44.0871 436Z" fill="#0B7A6A"/>
<path d="M162.939 360.803C162.153 346.806 147.451 343.991 145.981 340.509C144.511 337.025 142.137 329.901 131.551 326.541C120.966 323.181 114.379 329.391 108.447 325.588C102.515 321.784 97.236 318.639 90.1663 323.423C83.0957 328.208 78.0852 326.448 67.8778 325.295C57.6707 324.142 49.5643 333.963 49.564 333.964C45.5717 337.619 49.4226 342.246 58.8346 344.515C72.1246 347.72 68.3297 356.333 75.4138 359.822C82.4979 363.313 90.9179 359.855 96.2563 364.078C101.596 368.302 101.192 375.963 107.8 377.761C114.407 379.559 122.202 375.181 125.982 377.772C129.763 380.364 131.822 388.042 136.334 390.692C140.847 393.344 153.616 394 153.616 394L156.7 393.257C156.7 393.257 163.724 374.801 162.939 360.803Z" fill="#0B7A6A"/>
<path d="M154 389C154 389 150.689 360.614 131.12 347.684C111.551 334.753 79.4572 334.445 69.7286 333.909C60 333.373 60 333.373 60 333.373C60 333.373 99.2746 330.881 118.748 338.783C145.492 349.633 153.112 367.359 154 389Z" fill="#FFF9F0"/>
<path d="M139.64 359.544C139.64 359.544 123.283 344.855 120.819 332.631C118.355 320.408 125.586 315.841 120.717 309.653C115.85 303.463 118.025 292.357 123.265 289.539C128.504 286.721 130.65 280.57 131.164 272.065C131.678 263.562 138.126 260.399 140.123 262.758C145.625 269.253 142.889 275.896 151.303 280.027C159.718 284.16 162.701 292.717 160.59 299.723C158.479 306.731 167.757 308.966 173.902 319.663C180.045 330.359 175.595 339.302 172.988 346.01C170.382 352.718 177.605 360.802 174.983 368.535C172.36 376.269 154.258 389 154.258 389C154.258 389 145.502 385.747 139.64 359.544Z" fill="#ADD57F"/>
<path d="M139 274C139 274 144.429 294.896 150.968 321.836C157.505 348.775 158.606 382 158.606 382C158.606 382 162.391 357.888 157.487 335.26C152.583 312.632 139.415 277.484 139 274Z" fill="#FFF9F0"/>
<path d="M141.293 370.021C139.06 358.534 150.315 353.247 150.785 350.128C151.256 347.009 151.708 340.757 159.539 335.871C167.37 330.984 173.941 334.661 177.937 330.367C181.932 326.076 185.536 322.45 192.205 324.873C198.873 327.295 202.545 324.845 210.523 321.822C218.501 318.799 227.034 325.085 227.034 325.086C230.995 327.224 228.843 331.757 221.733 335.521C211.694 340.836 216.511 347.026 211.524 351.301C206.538 355.576 199.054 354.503 195.622 359.013C192.19 363.524 194.082 369.639 189.133 372.447C184.184 375.256 177.016 373.309 174.504 376.18C171.992 379.051 171.905 385.685 168.817 388.755C165.728 391.824 155.588 394.969 155.588 394.969L152.952 395C152.952 395 143.524 381.507 141.293 370.021Z" fill="#0B7A6A"/>
<path d="M154.461 391C154.461 391 151.303 367.08 164.461 352.445C177.619 337.809 203.495 330.908 211.247 328.454C219 326 219 326 219 326C219 326 186.745 332.095 172.63 342.596C153.245 357.018 150.73 373.103 154.461 391Z" fill="#FFF9F0"/>
<path d="M146.079 391.795C146.079 391.795 124.617 386.011 113.348 391.084C102.079 396.157 100 403.129 100 403.129C100 403.129 104.826 404.79 114.004 403.524C123.182 402.258 124.557 396.907 130.956 399.453C137.356 401.998 139.456 404.45 144.844 402.93C150.231 401.411 153 395.733 153 395.733L146.079 391.795Z" fill="#8A9375"/>
<path d="M157.341 392.103C157.341 392.103 163.207 385.586 171.713 386.021C180.22 386.454 181.713 389.313 185.882 389.495C190.05 389.678 192.352 388.411 198.041 390.284C203.671 392.136 207 394.675 207 394.675C207 394.675 201.216 402.744 192.211 400.655C183.206 398.564 176.393 397.218 173.447 400.126C170.502 403.035 152 397.734 152 397.734L157.341 392.103Z" fill="#8A9375"/>
<path d="M283.023 365.508C283.023 365.508 295.216 373.285 320.293 377.63C345.371 381.976 355.954 374.886 357.334 371.569C358.715 368.253 354.574 366.423 338.239 363.45C321.905 360.476 317.533 356.817 325.585 355.903C333.638 354.986 344.911 362.077 354.574 362.077C364.237 362.077 370.909 356.969 371.138 353.462C371.369 349.955 342.15 349.04 338.469 344.008C334.788 338.976 357.411 344.237 367.151 345.609C376.89 346.981 380.801 339.434 380.111 336.918C379.421 334.402 355.724 333.587 353.423 330.107C351.123 326.626 363.317 327.868 373.899 330.107C384.482 332.343 389.774 324.568 388.394 322.738C387.013 320.908 367.457 319.535 365.386 316.104C363.317 312.674 375.97 313.588 382.412 314.961C388.853 316.333 395.755 310.157 393.455 308.099C391.154 306.04 376.66 305.355 376.2 302.382C375.74 299.408 395.51 301.009 393.908 296.664C392.305 292.318 386.783 288.251 378.271 288.112C369.758 287.972 361.936 296.892 357.334 294.147C352.733 291.403 368.608 284.77 364.466 282.254C360.325 279.738 351.123 281.111 347.902 285.456C344.681 289.802 344.45 297.121 341 296.892C337.549 296.664 343.531 286.371 340.54 284.084C337.549 281.797 329.726 286.6 328.116 291.175C326.506 295.749 328.346 304.897 325.125 305.355C321.905 305.813 325.9 290.716 323.096 289.344C320.293 287.972 311.321 296.892 311.091 302.382C310.861 307.871 313.852 316.518 309.02 317.912C304.189 319.307 305.109 302.152 301.429 300.552C297.747 298.951 290.385 309.441 291.535 318.034C292.686 326.626 295.216 333.656 291.766 333.686C288.314 333.716 285.784 322.738 283.023 320.908C280.262 319.078 277.776 323.652 277.063 335.317C276.351 346.981 281.886 362.648 283.023 365.508Z" fill="#0B7A6A"/>
<path d="M278.412 384.033C278.412 384.033 291.277 350.771 306.242 332.34C321.206 313.908 350.086 302.794 364 302C364 302 331.081 308.167 309.917 334.549C288.753 360.929 280.775 397 280.775 397L275 395.855L278.412 384.033Z" fill="#FFF9F0"/>
<path d="M44.9931 432.463C44.9931 432.463 46.8197 425.786 55.7878 422.692C64.7558 419.597 66.0846 427.904 71.7313 427.578C77.3777 427.251 80 438 80 438H43L44.9931 432.463Z" fill="#8A9375"/>
<path d="M66.1924 437.539C65.6723 434.943 64.8752 432.019 63.8831 428.893C65.5076 425.724 70.1083 415.663 69.9981 403.482C69.8641 388.7 59.6601 373.196 59.6601 373.196C59.6601 373.196 56.9808 398.49 61.4215 421.756C58.3491 413.429 54.4092 404.396 50.7603 396.503C52.3131 393.238 55.106 386.211 55.0843 377.88C55.0543 366.355 47.1779 354.217 47.1779 354.217C47.1779 354.217 45.0638 372.989 48.072 390.774C45.3827 385.125 43.0617 380.479 41.6586 377.712C41.4109 373.81 40.4514 366.971 36.9197 360.26C31.5575 350.07 18.9647 343 18.9647 343C18.9647 343 26.893 363.471 39.3142 378.247C40.4372 380.462 42.3258 384.235 44.5855 388.927C42.8609 386.387 40.6562 383.684 37.8827 381.23C29.2713 373.61 15 371.482 15 371.482C15 371.482 31.2203 389.558 49.1422 398.613C51.0033 402.669 52.9218 406.985 54.7517 411.329C52.6821 408.505 50.1439 405.584 47.0753 402.904C35.9665 393.202 17.6425 390.591 17.6425 390.591C17.6425 390.591 37.485 412.421 59.8041 424.161C61.6504 429.285 63.1221 434.06 63.9126 438L66.1924 437.539Z" fill="#ADD57F"/>
<path d="M361.913 431H373.214C373.214 431 378.326 421.582 390.703 415.123C403.079 408.665 404.425 400.874 404.963 397.234C405.501 393.595 400.12 395.479 392.048 400.323C383.977 405.166 381.824 416.633 378.326 416.417C374.828 416.2 376.98 403.017 384.515 398.71C392.048 394.402 397.967 383.908 399.851 377.18C401.734 370.452 386.397 375.297 379.133 383.369C371.869 391.442 372.944 411.158 367.563 413.678C362.182 416.2 371.599 399.65 360.702 392.898C356.333 390.191 355.185 397.933 356.532 407.739C357.878 417.545 364.604 422.12 361.913 431Z" fill="#8A9375"/>
<path d="M343 436.815C343 436.815 363.058 439 378.551 439C394.042 439 400 437.61 400 437.61C400 437.61 396.624 431.25 386.693 428.865C376.763 426.479 375.771 432.442 371.401 428.865C367.031 425.287 359.086 422.703 352.136 424.69C345.184 426.678 343 436.815 343 436.815Z" fill="#D2C575"/>
<path d="M335 444.999C335 450.522 281.498 455 215.5 455C149.502 455 96 450.522 96 444.999C96 439.477 149.502 435 215.5 435C281.498 435 335 439.477 335 444.999Z" fill="#E7BCA4"/>
<path d="M327 391.749L317.921 401.289C317.921 401.289 317.921 401.298 317.911 401.318L316.204 403.104C316.195 403.114 316.184 403.114 316.184 403.114L316.081 403.228C316.07 403.218 316.052 403.208 316.043 403.199C296.443 391.116 277.537 373.116 272.774 368.474C270.326 366.281 268.031 363.652 266.247 360.513C262.063 353.131 256.409 339.347 252.473 329.249L251.95 331.443L244.855 361.402C247.89 366.045 252.045 373.154 255.603 381.927C257.406 386.38 259.056 391.268 260.326 396.468L219.544 420.377L219.554 420.982L219.004 420.688L218.463 421L218.453 420.395L176.778 398.065C178.125 391.486 180.089 385.388 182.214 380.008C182.252 379.923 182.281 379.829 182.319 379.744C185.221 372.482 188.438 366.536 190.895 362.432L182.517 332.294L181.389 328.237L180.781 326.053C176.797 335.914 169.455 353.49 164.332 362.131C162.492 365.231 160.158 367.812 157.653 369.959C152.815 374.506 133.529 392.166 113.702 403.888L111.89 401.913L103 392.204L148.195 349.859L163.469 306.343C172.263 287.538 178.856 287.274 178.856 287.274V287.283C180.07 286.262 181.455 285.401 183.011 284.797C183.514 284.598 184.026 284.4 184.548 284.182L184.557 284.173C187.536 282.953 190.876 281.393 194.215 279.436C198.152 277.12 202.098 274.236 205.475 270.672C205.969 267.325 206.149 262.56 206.215 259.469C206.253 257.626 206.253 256.368 206.253 256.368L215.863 257.351L225.426 256C225.426 256 225.511 258.486 225.739 261.605C225.957 264.414 226.27 267.741 226.745 270.265C228.31 271.797 229.989 273.196 231.725 274.445C237.75 278.859 244.466 281.695 249.74 283.52C251.107 283.993 252.349 284.655 253.478 285.449C254.853 285.789 260.811 288.171 268.182 304.763L282.621 348.554L327 391.749Z" fill="#BEDEF5"/>
<path d="M231 274.14C229.46 275.888 224.744 279.645 211.38 282.752C193.309 286.947 184 283.984 184 283.984L184.009 283.975C186.977 282.742 190.304 281.165 193.63 279.186C197.553 276.844 201.484 273.93 204.849 270.326C205.34 266.943 205.52 262.126 205.586 259L225.036 261.16C225.254 263.999 225.566 267.363 226.039 269.915C227.598 271.464 229.27 272.878 231 274.14Z" fill="#96C8ED"/>
<path d="M241.462 337.856C235.111 340.683 224.012 335.205 214.585 338.26C205.158 341.324 200.492 350.089 198.665 361.309C196.838 372.52 201.504 388.822 201.504 388.822C201.504 388.822 193.081 391.173 181.978 378.792C184.874 371.482 188.083 365.496 190.535 361.366L181.051 326.944L180.444 324.746C180.444 324.746 178.183 312.974 183.862 304C183.862 304 182.091 313.592 185.414 322.357C188.727 331.122 196.545 331.122 204.704 330.922C212.862 330.723 212.748 327.908 221.968 329.904C237.346 333.233 243.354 331.739 246.942 326.66C249.307 323.312 247.803 335.03 241.462 337.856Z" fill="#96C8ED"/>
<path d="M197.24 245.207C197.24 245.207 195.147 240.833 192.393 241.005C189.639 241.177 188.717 247.199 192.596 251.891C196.477 256.583 200 254.571 200 254.571L197.24 245.207Z" fill="#FFC7A2"/>
<path d="M233.497 245.324C233.497 245.324 235.495 240.938 238.356 241.001C241.216 241.063 242.404 246.955 238.567 251.725C234.729 256.493 231 254.649 231 254.649L233.497 245.324Z" fill="#FFC7A2"/>
<path d="M234.992 234.968C235.332 252.85 224.782 268.835 216.377 268.998C206.183 269.196 196.323 252.402 196.005 235.724C195.771 223.387 203.098 213.241 215.313 213.004C227.527 212.768 234.757 222.632 234.992 234.968Z" fill="#FFC7A2"/>
<path d="M200 237C200 237 202.793 236.194 205.815 235.97C209.603 235.69 211 236.09 211 236.09C211 236.09 210.271 233.94 207.082 234.001C203.895 234.064 200 237 200 237Z" fill="#211E14"/>
<path d="M212 241.829C212 241.829 209.667 239.03 206.665 239C203.663 238.971 201 242.018 201 242.018C201 242.018 201.82 242.82 206.084 242.985C210.452 243.154 212 241.829 212 241.829Z" fill="#F5746E"/>
<path d="M205.804 243.037C203.089 243.063 200.882 242.357 200.508 242.231L200.469 242.209C200.466 242.212 200.463 242.213 200.46 242.215C200.455 242.214 200.446 242.21 200.446 242.21C200.45 242.212 200.453 242.215 200.456 242.216C199.979 242.534 199 242.62 199 242.62C200.01 242.945 200.811 242.836 201.168 242.756C201.951 243.305 203.338 244.028 205.821 243.999C209.388 243.959 211 242 211 242C211 242 208.783 243.007 205.804 243.037Z" fill="#211E14"/>
<path d="M230 236C230 236 227.186 235.232 224.165 235.115C220.377 234.968 219 235.469 219 235.469C219 235.469 219.647 233.069 222.827 233.001C226.007 232.932 230 236 230 236Z" fill="#211E14"/>
<path d="M220 242C220 242 222.212 239.136 225.209 239.004C228.208 238.872 231 241.813 231 241.813C231 241.813 230.214 242.64 225.962 242.949C221.603 243.266 220 242 220 242Z" fill="#F5746E"/>
<path d="M232 241.35C232 241.35 231.019 241.305 230.532 241.007C230.535 241.005 230.539 241.003 230.541 241C230.541 241 230.532 241.003 230.528 241.005C230.525 241.003 230.521 241.003 230.519 241.001L230.48 241.023C230.111 241.165 227.935 241.955 225.225 242.036C222.25 242.125 220 241.209 220 241.209C220 241.209 221.681 243.096 225.243 242.996C227.723 242.926 229.08 242.151 229.841 241.572C230.201 241.639 231.004 241.715 232 241.35Z" fill="#211E14"/>
<path d="M213 253.209C213 253.209 214.663 253.948 216.022 253.998C217.382 254.048 219 253.124 219 253.124C219 253.124 217.734 253.027 216.217 253.002C214.7 252.977 213 253.209 213 253.209Z" fill="#F5746E"/>
<path d="M216.719 257.985C219.948 257.854 222 257.165 222 257.165C222 257.165 218.544 256.914 217.658 257.031C217.109 257.104 216.726 257.46 216.514 257.719C216.287 257.466 215.884 257.12 215.331 257.061C214.439 256.967 211 257.308 211 257.308C211 257.308 213.089 257.943 216.325 257.991C216.323 257.992 216.319 258 216.319 258C216.388 257.998 216.453 257.995 216.521 257.992C216.59 257.993 216.656 257.995 216.725 257.995C216.725 257.995 216.72 257.987 216.719 257.985Z" fill="#772F36"/>
<path d="M212 259C212 259 212.675 259.915 215.18 260.494C217.685 261.074 219.5 260.092 221 259.18C221 259.18 219.644 261.642 216.819 261.974C213.993 262.306 212.097 259.365 212 259Z" fill="#F5746E"/>
<path d="M223.964 223.621C223.964 223.621 219.65 221.332 213.842 221.626C208.033 221.921 203.521 226.477 201.84 229.702C200.158 232.927 198.449 233.848 198.449 233.848C198.449 233.848 198.981 241.668 197.491 245C197.491 245 195.478 241.623 193.162 240.786C193.162 240.786 191.178 233.648 192.395 226.054C193.613 218.458 201.633 210.276 212.422 209.156C223.212 208.036 228.673 213.313 228.673 213.313C228.673 213.313 235.837 217.37 237.967 224.263C240.099 231.155 238.27 240.1 238.27 240.1C238.27 240.1 236.427 241.037 235.239 244.273C235.239 244.273 231.787 239.044 232.674 233.188C232.674 233.188 231.261 223.875 223.964 223.621Z" fill="#772F36"/>
<path d="M230.219 217.956C228.044 218.65 214.005 210.986 214.005 210.986C214.005 210.986 213.932 209.747 214.327 208.146C214.877 205.933 216.309 203.018 220.042 201.657C220.685 201.427 221.318 201.26 221.934 201.148C227.557 200.186 232.228 204.073 233.568 208.034C235.054 212.43 232.403 217.271 230.219 217.956Z" fill="#772F36"/>
<path d="M211.714 236.204C211.714 236.204 212.957 238.701 213.656 242.49C214.355 246.281 213.773 249 213.773 249C213.773 249 213.089 238.279 208 236.007C208 236.007 210.791 235.942 211.714 236.204Z" fill="#F5746E"/>
<path d="M224 224.589C224 224.589 217.134 222.425 211.289 224.818C205.444 227.211 205.583 230.704 201.524 231L201 230.085C201 230.085 202.083 230.28 204.556 228.445C207.028 226.61 212.244 220.006 224 224.589Z" fill="#772F36"/>
<path d="M196 428C196 428 190.363 428.702 188.397 429.074C188.397 429.074 180.523 427.972 177.215 428.109C173.906 428.247 172.098 432.091 170.23 436.263C168.361 440.436 161.119 444.881 158.561 447.479C156.003 450.078 155.934 453.888 155.989 454.694C156.045 455.501 154.378 457.798 155.256 459.684C156.132 461.57 157.084 460.94 157.899 460.724C158.713 460.509 159.285 459.175 159.285 459.175C159.285 459.175 161.366 459.281 162.252 458.899C163.138 458.517 162.378 458.324 164.36 458.193C166.342 458.062 167.404 457.831 168.615 457.346C169.826 456.861 178.122 448.46 182.613 446.22C187.103 443.981 194.027 444.498 194.027 444.498L196 428Z" fill="#FFC7A2"/>
<path d="M320.885 433.523C307.655 440.959 285.741 443.884 260.377 445.433C257.287 445.623 254.15 445.793 250.965 445.946L251.399 457C251.399 457 249.472 456.981 246.061 456.933C235.6 456.809 211.209 456.497 185.779 455.983C144.653 455.167 111.938 444.91 102.488 435.764C97.9325 431.349 95.2304 424.311 96.1945 417.739C96.9597 412.534 100.031 407.624 106.296 404.518C107.79 403.778 110.397 402.838 113.923 401.831C124.979 398.649 144.984 394.803 167.05 394.594C167.399 394.565 167.73 394.547 168.051 394.517C170.962 390.13 181.716 379 181.716 379C181.716 379 189.276 385.391 199.614 389.19C205.076 391.195 211.323 392.486 217.636 391.716C235.893 389.504 254.235 379.275 254.235 379.275C257.949 382.988 261.502 391.707 261.502 391.707C279.778 391.878 310.046 397.453 316.557 400.729C316.604 400.757 316.642 400.787 316.68 400.805C321.103 402.002 324.788 404.585 327.311 407.871C333.161 415.478 332.773 426.855 320.885 433.523Z" fill="#0B4654"/>
<path d="M103.066 391.67C103.066 391.67 98.4276 390.966 96.5683 391.001C94.7081 391.037 90.9565 392.216 88.8368 392.574C86.7179 392.93 85.6555 393.004 85.7154 393.319C85.7744 393.634 86.481 394.411 88.8264 394.735C91.1709 395.06 93.1769 394.442 94.4269 394.418C95.6768 394.394 95.9572 395.127 95.9572 395.127C95.9572 395.127 94.6925 398.474 90.6128 399.184C86.5339 399.895 84.9272 399.293 84.6503 398.717C84.3734 398.143 86.1051 394.207 85.6511 392.739C85.1972 391.272 84.5088 391.391 83.6495 393.726C82.7919 396.063 81.2936 398.307 81.3232 399.836C81.3527 401.366 83.9828 402.687 83.9828 402.687C83.9828 402.687 78.9208 402.097 77.4066 403.497C75.8923 404.897 78.9233 404.945 81.3197 405.163C83.7163 405.381 85.9619 406.076 87.3941 405.891C87.3941 405.891 80.9595 405.803 79.7038 406.829C78.4478 407.854 81.0124 408.543 83.4576 408.498C85.902 408.451 89.2074 408.969 89.7395 408.958C89.7395 408.958 84.0106 409.647 84.1981 411.067C84.3856 412.488 85.4298 411.52 88.572 411.829C91.7143 412.137 94.3184 412.088 97.2774 411.188C100.237 410.288 112 401.378 112 401.378L103.066 391.67Z" fill="#FFC7A2"/>
<path d="M300 406.241C275.66 409.672 207.524 427 207.524 427C207.524 427 171.63 410.678 147.564 406.852C124.71 403.222 111.377 405.027 114.433 402.602C125.505 399.452 145.539 395.644 167.636 395.437C167.986 395.409 168.317 395.391 168.638 395.362C171.554 391.019 182.323 380 182.323 380C182.323 380 189.893 386.327 200.246 390.088C201.079 394.075 215.435 413.696 225.779 410.471C236.122 407.256 249.702 402.819 256.194 405.037C262.685 407.256 275.868 406.043 284.953 404.012C294.028 401.981 300 406.241 300 406.241Z" fill="#093C48"/>
<path d="M317 401.086C317 401.086 317 401.094 316.99 401.114C316.906 401.294 316.472 402.175 315.295 402.905C315.285 402.915 315.275 402.915 315.275 402.915C315.228 402.943 315.181 402.972 315.134 403C295.669 390.886 276.892 372.837 272.162 368.183C269.731 365.984 267.452 363.349 265.679 360.201C261.525 352.799 255.909 338.978 252 328.854L254.251 310C254.251 310 262.664 346.485 271.55 358.239C280.433 369.994 317 401.086 317 401.086Z" fill="#96C8ED"/>
<path d="M183 331.308L181.865 327.247L181.255 325.06C177.249 334.934 169.869 352.533 164.719 361.186C162.869 364.29 160.522 366.875 158.005 369.025C153.141 373.578 133.753 391.262 113.822 403L112 401.022C112 401.022 151.262 367.737 162.792 354.644C174.312 341.551 181.398 313 181.398 313L183 331.308Z" fill="#96C8ED"/>
<path d="M320.893 433.268C307.672 440.593 285.774 443.474 260.429 445C249.833 443.278 242.27 439.191 242.27 439.191V437.947L207 426.336C207.299 426.411 213.096 424.791 213.096 424.791C229.155 428.335 268.728 439.02 289.333 434.344C315.841 428.329 316.851 417.28 321.704 411.779C323.602 409.628 325.595 408.533 327.314 408C333.159 415.493 332.772 426.7 320.893 433.268Z" fill="#093C48"/>
<path d="M243 440C243 440 248.569 440.816 250.508 441.228C250.508 441.228 258.328 440.27 261.602 440.471C264.875 440.673 266.59 444.58 268.357 448.821C270.126 453.06 277.209 457.677 279.691 460.343C282.173 463.01 282.165 466.851 282.095 467.662C282.023 468.473 283.627 470.819 282.723 472.702C281.817 474.586 280.886 473.932 280.084 473.7C279.281 473.468 278.741 472.112 278.741 472.112C278.741 472.112 276.679 472.18 275.809 471.778C274.938 471.375 275.695 471.195 273.735 471.026C271.775 470.856 270.727 470.602 269.537 470.091C268.348 469.578 260.299 460.955 255.897 458.612C251.493 456.271 244.627 456.657 244.627 456.657L243 440Z" fill="#FFC7A2"/>
<path d="M327.134 391.547C327.134 391.547 331.793 390.935 333.656 391.006C335.516 391.077 339.251 392.321 341.367 392.716C343.483 393.111 344.545 393.203 344.48 393.516C344.415 393.828 343.692 394.59 341.338 394.868C338.982 395.147 336.985 394.494 335.733 394.446C334.483 394.398 334.188 395.123 334.188 395.123C334.188 395.123 335.389 398.478 339.461 399.261C343.533 400.046 345.154 399.477 345.442 398.91C345.731 398.343 344.072 394.394 344.556 392.941C345.038 391.488 345.726 391.619 346.54 393.962C347.356 396.303 348.812 398.564 348.753 400.085C348.695 401.607 346.034 402.872 346.034 402.872C346.034 402.872 351.116 402.381 352.605 403.803C354.095 405.224 351.058 405.215 348.654 405.387C346.25 405.558 343.987 406.209 342.556 405.997C342.556 405.997 349.002 406.031 350.24 407.076C351.478 408.12 348.896 408.757 346.449 408.665C344.001 408.573 340.68 409.025 340.148 409.005C340.148 409.005 345.872 409.799 345.657 411.209C345.442 412.619 344.416 411.635 341.262 411.884C338.109 412.132 335.502 412.034 332.555 411.081C329.608 410.131 318 401.042 318 401.042L327.134 391.547Z" fill="#FFC7A2"/>
<path d="M246 457C235.544 456.877 211.163 456.566 185.743 456.055C144.634 455.242 111.931 445.037 102.485 435.936C97.9317 431.542 95.2307 424.54 96.1944 418C99.6698 420.703 106.387 425.409 119.195 431.816C140.241 442.353 179.103 448.023 209.878 450.99C240.644 453.958 243.412 452.653 243.412 452.653L246 457Z" fill="#093C48"/>
<path d="M224.762 212.571C220.675 210.545 214.212 209.302 214.212 209.302C214.106 208.78 214.035 208.276 214 207.808C214.531 205.656 215.915 202.819 219.522 201.495C220.143 201.271 220.754 201.108 221.349 201C220.666 201.712 219.957 203.035 220.577 205.241C221.632 208.988 228.839 214.597 224.762 212.571Z" fill="#602129"/>
<path d="M221 220.121C221 220.121 213.353 217.126 206.04 220.121C198.726 223.115 197.708 231.201 196 232C196 232 197.481 221.152 205.335 218.789C213.19 216.427 221 220.121 221 220.121Z" fill="#602129"/>
<path d="M226.824 215L224 222C224 222 227.859 220.071 226.824 215Z" fill="#602129"/>
<path d="M137.042 50L137.736 64.8328L146.788 66.3357L137.866 67.1851L136.781 84L135.652 67.4029L126.817 66.3357L135.696 65.0506L137.042 50Z" fill="#FCF6A0"/>
<path d="M103.102 180L103.797 194.833L112.837 196.336L103.928 197.185L102.841 214L101.711 197.403L92.8662 196.336L101.754 195.051L103.102 180Z" fill="#FCF6A0"/>
<path d="M253.323 141L253.844 151.906L260.624 153.012L253.942 153.636L253.127 166L252.28 153.796L245.646 153.012L252.312 152.067L253.323 141Z" fill="#FCF6A0"/>
<path d="M10.2355 57L10.9309 71.8328L19.9712 73.3357L11.0613 74.1851L9.97475 91L8.84471 74.4029L0 73.3357L8.88818 72.0506L10.2355 57Z" fill="#FCF6A0"/>
<path d="M368.697 219L369.393 233.833L378.455 235.336L369.523 236.185L368.437 253L367.307 236.403L358.484 235.336L367.35 234.051L368.697 219Z" fill="#FCF6A0"/>
<path d="M29.1865 319L29.8819 333.855L38.9439 335.357L30.0122 336.207L28.9257 353L27.7956 336.425L18.9727 335.357L27.8391 334.072L29.1865 319Z" fill="#FCF6A0"/>
<path d="M380.702 327L381.397 341.855L390.438 343.357L381.528 344.207L380.441 361L379.311 344.425L370.466 343.357L379.354 342.072L380.702 327Z" fill="#FCF6A0"/>
<path d="M369.136 389L369.674 399.903L376.458 401.026L369.763 401.643L368.957 414L368.106 401.797L361.479 401.026L368.129 400.079L369.136 389Z" fill="#FCF6A0"/>
<g clip-path="url(#clip0_15_2384)">
<path d="M360.159 1.53677C327.887 5.93719 301.844 25.0299 290.217 52.8144C283.118 69.8706 281.597 91.109 286.269 109.074C289.384 121.185 294.817 130.967 303.438 139.95C312.819 149.769 323.323 156.279 337.702 161.225C347.518 164.607 354.074 165.734 365.483 165.953C378.414 166.244 386.31 165.225 396.017 162.061C406.376 158.679 416.663 151.915 426.515 142.132C442.851 125.803 452.413 105.692 453.282 85.6903C454.115 66.9976 446.907 46.8502 433.65 30.7759C430.825 27.3574 423.98 20.6295 420.611 17.9383C409.419 9.10112 395.872 3.28238 382.326 1.5004C377.038 0.809418 365.266 0.845795 360.159 1.53677ZM382.181 2.22774C398.661 4.40977 414.599 12.5924 427.348 25.3936C443.104 41.2497 452.304 62.5245 452.34 83.2174C452.34 90.7453 450.783 99.2916 447.958 107.329C446.002 112.82 446.183 112.638 444.336 111.002C442.452 109.256 439.554 107.911 437.164 107.62C428.797 106.638 417.061 115.548 412.969 125.949C412.099 128.131 411.991 128.931 411.954 132.786C411.954 137.186 411.954 137.186 413.367 140.059C414.345 142.059 415.468 143.587 417.134 145.26C418.438 146.533 419.343 147.696 419.162 147.805C418.945 147.951 417.496 149.078 415.902 150.278C401.921 161.079 388.339 165.371 368.345 165.334C360.847 165.334 356.102 164.934 350.307 163.771L346.395 162.97L345.816 160.788C345.49 159.588 344.476 157.043 343.57 155.152C342.665 153.26 341.397 150.206 340.781 148.424C338.282 141.259 335.674 137.332 332.269 135.695C330.422 134.822 326.691 134.531 325.098 135.186C324.482 135.441 322.635 136.459 321.077 137.404C317.527 139.55 316.477 139.841 312.348 139.805C310.139 139.805 308.581 139.986 307.458 140.387L305.828 141.005L304.126 139.223C302.568 137.586 302.424 137.295 302.206 135.004C301.844 131.586 302.098 130.24 303.836 126.567C306.915 120.057 305.973 114.857 301.482 113.111C299.526 112.384 296.918 112.566 295.542 113.584C295.035 113.984 293.948 115.257 293.115 116.457C292.318 117.621 291.412 118.639 291.123 118.712C290.217 118.894 287.464 110.638 286.124 103.692C284.458 95.1458 284.205 82.4536 285.545 73.6892C288.37 55.1055 295.976 39.7223 308.545 27.1392C320.135 15.5017 333.791 8.04648 350.561 4.08246C354.002 3.28238 359.942 2.2641 363.238 1.9368C366.896 1.53676 378.414 1.7186 382.181 2.22774ZM440.786 109.693C442.561 110.602 444.625 112.457 444.915 113.329C445.422 114.966 438.504 126.676 432.854 133.695C429.195 138.168 422.458 145.078 421.843 144.896C420.792 144.569 417.931 140.168 417.206 137.841C414.961 130.495 417.677 122.567 424.813 115.73C428.254 112.457 431.006 110.602 434.23 109.438C436.874 108.493 438.504 108.529 440.786 109.693ZM430.536 110.165C425.573 112.966 420.176 118.493 417.75 123.33C416.047 126.712 415.395 129.258 415.395 132.822C415.395 137.659 416.844 141.296 420.213 144.86C421.191 145.914 421.227 146.06 420.684 146.278C420.213 146.46 419.452 145.951 417.895 144.387C411.918 138.459 411.302 130.095 416.156 121.803C418.691 117.475 425.646 111.366 430.065 109.584C432.491 108.602 432.709 108.893 430.536 110.165ZM301.264 113.838C303.474 115.002 303.22 115.33 300.214 115.33C296.809 115.33 296.049 115.766 293.875 118.966C292.209 121.403 291.702 121.694 291.376 120.53C291.231 119.912 291.376 119.548 291.92 119.184C292.318 118.894 293.296 117.73 294.093 116.566C294.853 115.402 295.868 114.202 296.302 113.911C297.316 113.184 299.924 113.148 301.264 113.838ZM302.279 116.202C304.271 117.112 304.669 117.984 304.488 120.93C304.379 122.821 303.981 124.094 302.605 127.076C300.975 130.604 300.902 130.967 301.011 133.368L301.12 135.913L300.287 134.895C298.729 132.968 294.383 126.349 293.332 124.239C292.282 122.167 292.282 122.13 293.006 121.476C293.405 121.112 294.057 120.239 294.491 119.548C296.737 115.766 299.091 114.748 302.279 116.202ZM331.472 136.277C332.197 136.677 332.813 137.004 332.813 137.077C332.813 137.113 331.545 137.113 330.024 137.041C326.945 136.895 326.836 136.932 321.222 140.277L318.542 141.878H314.521C312.058 141.914 310.03 142.096 309.197 142.423C307.965 142.859 307.784 142.859 307.096 142.241L306.335 141.55L307.35 141.005C308.038 140.641 309.74 140.423 312.674 140.35C317.455 140.205 318.324 139.95 322.961 137.004C324.228 136.204 325.713 135.477 326.22 135.404C327.742 135.15 329.951 135.55 331.472 136.277ZM331.798 137.914C335.457 139.15 337.087 141.478 339.876 149.296C340.6 151.369 342.013 154.715 342.991 156.715C344.512 159.879 345.236 162.425 344.548 162.425C344.439 162.425 341.976 161.625 339.042 160.643C327.923 156.897 318.904 152.06 310.646 145.369C309.523 144.46 308.581 143.587 308.581 143.441C308.509 142.896 311.116 142.423 314.34 142.423C318.469 142.423 319.737 142.059 323.214 139.805C327.198 137.223 328.792 136.859 331.798 137.914Z" fill="#EBFCF4"/>
<path d="M302.279 116.202C304.271 117.112 304.669 117.984 304.488 120.93C304.379 122.821 303.981 124.094 302.605 127.076C300.975 130.604 300.902 130.967 301.011 133.368L301.12 135.913L300.287 134.895C298.729 132.968 294.383 126.349 293.332 124.239C292.282 122.167 292.282 122.13 293.006 121.476C293.405 121.112 294.057 120.239 294.491 119.548C296.737 115.766 299.091 114.748 302.279 116.202Z" fill="#EBFCF4"/>
<path d="M331.798 137.914C335.457 139.15 337.087 141.478 339.876 149.296C340.6 151.369 342.013 154.715 342.991 156.715C344.512 159.879 345.236 162.425 344.548 162.425C344.439 162.425 341.976 161.625 339.042 160.643C327.923 156.897 318.904 152.06 310.646 145.369C309.523 144.46 308.581 143.587 308.581 143.441C308.509 142.896 311.116 142.423 314.34 142.423C318.469 142.423 319.737 142.059 323.214 139.805C327.198 137.223 328.792 136.859 331.798 137.914Z" fill="#EBFCF4"/>
<path d="M440.786 109.693C442.561 110.602 444.625 112.457 444.915 113.329C445.422 114.966 438.504 126.676 432.854 133.695C429.195 138.168 422.458 145.078 421.843 144.896C420.792 144.569 417.931 140.168 417.206 137.841C414.961 130.495 417.677 122.567 424.813 115.73C428.254 112.457 431.006 110.602 434.23 109.438C436.874 108.493 438.504 108.529 440.786 109.693Z" fill="#EBFCF4"/>
<path d="M347.408 15.4506C338.703 17.4121 330.181 23.5873 324.585 32.0146C316.794 43.7837 315.66 49.4141 320.232 53.991C323.634 57.4055 327.986 57.914 332.595 55.5166C334.899 54.2816 341.922 47.8884 354.468 35.5744C361.234 28.927 362.478 27.1108 362.478 23.8415C362.441 17.4847 355.565 13.6343 347.408 15.4506ZM356.479 16.7582C358.235 17.5937 358.235 17.63 357.174 17.739C349.932 18.3929 341.922 22.3522 336.216 28.0552C332.997 31.2881 331.205 33.6492 328.133 38.7346C323.743 45.9995 322.536 50.9034 324.292 54.3905C324.731 55.2623 325.024 55.9525 324.914 55.9525C324.219 55.9525 321.695 54.2452 320.671 53.0465C318.33 50.3222 318.074 47.053 319.83 42.3671C320.817 39.8244 324.658 33.2496 327.218 29.7988C334.899 19.3736 348.981 13.0895 356.479 16.7582ZM359.625 19.1557C361.6 21.4078 361.893 24.4954 360.466 27.6193C359.698 29.2539 357.979 31.1428 350.664 38.2624C333.985 54.5722 331.571 56.4974 328.059 56.2431C326.633 56.1341 326.414 55.9888 325.645 54.5358C323.999 51.4482 324.731 46.6897 327.621 41.4226C332.888 31.833 339.032 25.2945 346.055 21.771C351.871 18.9014 358.272 17.6664 359.625 19.1557Z" fill="#EBFCF4"/>
<path d="M359.625 19.1557C361.6 21.4078 361.893 24.4954 360.466 27.6193C359.698 29.2539 357.979 31.1428 350.664 38.2624C333.985 54.5722 331.571 56.4974 328.059 56.2431C326.633 56.1341 326.414 55.9888 325.645 54.5358C323.999 51.4482 324.731 46.6897 327.621 41.4226C332.888 31.833 339.032 25.2945 346.055 21.771C351.871 18.9014 358.272 17.6664 359.625 19.1557Z" fill="#EBFCF4"/>
<path d="M387.083 29.5667C384.172 30.2539 382.244 31.3027 380.024 33.4004C376.348 36.8724 375.475 41.2124 377.586 45.661C378.204 46.9268 379.114 48.482 379.551 49.133C382.134 52.5689 387.629 59.0428 389.121 60.3809C394.543 65.3358 402.04 65.1911 407.753 60.0193C412.629 55.5707 413.757 48.265 410.737 40.9954C409.791 38.7169 409.099 37.7043 406.843 35.4619C401.385 30.0369 394.143 27.8668 387.083 29.5667ZM395.599 30.1092C398.51 30.724 402.549 32.7494 404.696 34.7747L406.625 36.5469L404.259 35.3172C400.948 33.6174 398.11 32.9302 394.216 32.9302C385.773 32.9302 379.332 37.8489 379.041 44.5036C379.005 46.2035 378.714 46.0588 378.059 44.0335C376.239 38.3553 379.805 32.4962 386.428 30.3985C388.721 29.639 392.797 29.5305 395.599 30.1092ZM399.565 34.2684C402.549 35.1364 405.642 36.9086 407.753 38.9701C409.318 40.4529 409.791 41.2486 410.446 43.3101C412.374 49.5308 410.664 56.7642 406.443 60.0916C400.766 64.5401 393.997 64.1061 389.085 58.9343C386.246 55.9686 381.043 49.133 380.679 47.831C379.951 45.5163 380.133 42.406 381.115 40.3806C382.571 37.2702 386.356 34.5577 390.504 33.6897C392.542 33.2557 397.091 33.545 399.565 34.2684Z" fill="#EBFCF4"/>
<path d="M399.565 34.2684C402.549 35.1364 405.642 36.9086 407.753 38.9701C409.318 40.4529 409.791 41.2486 410.446 43.3101C412.374 49.5308 410.664 56.7642 406.443 60.0916C400.766 64.5401 393.997 64.1061 389.085 58.9343C386.246 55.9686 381.043 49.133 380.679 47.831C379.951 45.5163 380.133 42.406 381.115 40.3806C382.571 37.2702 386.356 34.5577 390.504 33.6897C392.542 33.2557 397.091 33.545 399.565 34.2684Z" fill="#EBFCF4"/>
<path d="M337.17 96.1239C332.061 96.7686 327.132 100.422 324.866 105.292C323.966 107.19 323.678 108.301 323.57 110.628C323.391 114.102 323.858 115.786 325.333 117.039C327.132 118.543 328.427 118.293 332.061 115.857C335.011 113.852 335.839 114.031 342.711 118.042C347.316 120.728 350.446 120.656 353.216 117.791C355.051 115.857 355.662 113.816 355.447 110.27C354.871 101.496 346.452 95.0137 337.17 96.1239ZM336.846 97.7713C332.889 99.7053 329.471 104.289 328.499 108.909C327.996 111.309 328.248 114.425 329.075 115.642C329.615 116.466 329.579 116.538 328.715 116.932C328.068 117.218 327.6 117.218 326.952 116.932C322.923 115.105 324.002 105.937 328.823 101.138C331.27 98.7025 335.011 96.876 337.674 96.8402C338.645 96.8044 338.537 96.9118 336.846 97.7713ZM345.697 98.0579C350.626 100.242 354.439 106.009 354.439 111.273C354.439 114.353 353.864 116.001 352.281 117.72C350.949 119.152 350.805 119.188 348.611 119.188C346.524 119.188 346.056 119.045 343.646 117.612C338.537 114.604 337.17 113.995 335.371 113.995C334.148 113.995 333.284 114.246 332.313 114.926C330.658 116.036 330.118 115.857 329.651 114.102C329.111 112.24 329.147 111.166 329.831 108.265C331.018 102.964 335.515 98.3802 340.66 97.1983C342.315 96.8402 343.25 96.9834 345.697 98.0579Z" fill="#EBFCF4"/>
<path d="M345.697 98.0579C350.626 100.242 354.439 106.009 354.439 111.273C354.439 114.353 353.864 116.001 352.281 117.72C350.949 119.152 350.805 119.188 348.611 119.188C346.524 119.188 346.056 119.045 343.646 117.612C338.537 114.604 337.17 113.995 335.371 113.995C334.148 113.995 333.284 114.246 332.313 114.926C330.658 116.036 330.118 115.857 329.651 114.102C329.111 112.24 329.147 111.166 329.831 108.265C331.018 102.964 335.515 98.3802 340.66 97.1983C342.315 96.8402 343.25 96.9834 345.697 98.0579Z" fill="#EBFCF4"/>
<path d="M415.283 95.9594C414.14 97.2296 414.104 99.1894 415.211 100.859C416.318 102.601 419.497 104.198 421.282 103.98C422.996 103.726 424.389 102.492 424.389 101.149C424.389 99.9153 423.746 99.262 421.568 98.1369C420.675 97.6651 419.568 96.7578 419.104 96.1408C418.068 94.6891 416.497 94.6166 415.283 95.9594ZM418.318 96.8304C418.747 97.4474 419.854 98.3184 420.782 98.7902C422.925 99.9153 423.46 100.569 423.175 101.73C422.817 103.145 421.389 103.545 419.389 102.782C416.14 101.512 414.569 98.645 416.033 96.5401C416.783 95.4513 417.425 95.5239 418.318 96.8304Z" fill="#EBFCF4"/>
</g>
<defs>
<clipPath id="clip0_15_2384">
<rect width="169.755" height="166" fill="white" transform="translate(283.592)"/>
</clipPath>
</defs>
</svg>
