<svg width="20" height="20" viewBox="0 0 20 20" fill="none" xmlns="http://www.w3.org/2000/svg">
<path d="M5.39576 1.33325C5.39576 0.884521 5.03199 0.520752 4.58326 0.520752C4.13453 0.520752 3.77076 0.884521 3.77076 1.33325V3.30105C2.15326 3.52972 0.875415 4.80907 0.659098 6.44099L0.565334 7.14836C0.549437 7.26829 0.534237 7.38828 0.519732 7.50834C0.481256 7.8268 0.732162 8.10408 1.05294 8.10408H18.9468C19.2676 8.10408 19.5185 7.8268 19.4801 7.50834C19.4655 7.38828 19.4503 7.26828 19.4344 7.14835L19.3407 6.44099C19.1244 4.80909 17.8466 3.52976 16.2291 3.30106V1.33325C16.2291 0.884521 15.8653 0.520752 15.4166 0.520752C14.9679 0.520752 14.6041 0.884521 14.6041 1.33325V3.13985C11.5407 2.86704 8.45914 2.86704 5.39576 3.13985V1.33325Z" fill="#0B392C"/>
<path d="M19.6899 10.2443C19.6804 9.95564 19.4419 9.72908 19.1531 9.72908H0.846696C0.55791 9.72908 0.319397 9.95564 0.309913 10.2443C0.245564 12.2026 0.364516 14.1649 0.666478 16.1054C0.895072 17.5745 2.08854 18.7028 3.56809 18.8487L4.86051 18.9762C8.27848 19.3133 11.7213 19.3133 15.1393 18.9762L16.4317 18.8487C17.9112 18.7028 19.1047 17.5745 19.3333 16.1054C19.6353 14.1649 19.7542 12.2026 19.6899 10.2443Z" fill="#0B392C"/>
</svg>
