<svg width="428" height="483" viewBox="0 0 428 483" fill="none" xmlns="http://www.w3.org/2000/svg">
<g filter="url(#filter0_d_15_2497)">
<path d="M365.906 446C365.906 446 383.089 394.108 367.382 372.53C351.675 350.952 339.224 341.429 347.093 324.029C354.964 306.63 351.46 278.188 330.662 269.647C309.864 261.106 319.52 228.949 296.493 210.486C273.466 192.022 254.692 200.373 243.652 177.598C233.956 157.595 213.841 138.74 193.711 158.124C189.297 162.374 186.336 167.915 184.797 173.909C183.188 180.178 177.565 191.035 158.576 201.891C129.363 218.592 140.946 229.357 129.212 248.648C117.478 267.938 79.862 258.232 65.7488 295.238C51.6359 332.245 82.0954 344.667 79.6241 366.791C77.1532 388.914 62.521 400.978 71.4344 445.39" stroke="#EBFCF4" stroke-opacity="0.4" stroke-miterlimit="10"/>
<path d="M375.053 446C375.053 446 395.155 388.724 378.206 366.97C361.257 345.217 347.821 335.617 356.313 318.077C364.805 300.536 361.024 271.864 338.583 263.254C316.14 254.642 326.56 222.225 301.713 203.612C276.866 184.998 260.235 186.778 248.322 163.819C237.86 143.654 212.529 131.285 190.807 150.826C186.045 155.111 182.85 160.696 181.189 166.739C179.452 173.06 173.385 184.003 152.895 194.947C121.372 211.785 133.871 222.636 121.21 242.083C108.549 261.531 73.5497 254.861 57.8972 287.433C40.443 323.755 67.5543 338.356 64.8874 360.659C62.221 382.961 55.5194 400.666 65.1374 445.439" stroke="#EBFCF4" stroke-opacity="0.4" stroke-miterlimit="10"/>
<path d="M197.658 179.757C193.545 183.815 190.786 189.106 189.351 194.83C187.851 200.816 182.612 211.182 164.918 221.548C137.695 237.495 148.488 247.774 137.554 266.193C126.62 284.613 95.4715 270.483 82.3199 305.819C69.1685 341.155 99.4909 357.106 97.1878 378.23C94.8848 399.354 76.7824 400.593 85.0882 443H359.495C359.495 443 374.132 405.087 359.495 384.482C344.858 363.878 333.255 354.785 340.587 338.172C347.921 321.559 344.657 294.401 325.276 286.245C305.895 278.089 314.893 247.384 293.436 229.755C271.978 212.124 254.484 220.098 244.195 198.351C235.16 179.252 216.416 161.248 197.658 179.757V179.757Z" stroke="#0B7A6A" stroke-miterlimit="10"/>
<path d="M304.523 285.462C302.79 284.499 300.515 285.195 300.145 284.656C299.776 284.116 302.012 282.451 302.73 280.703C303.45 278.956 302.642 274.426 299.696 276.56C296.751 278.693 296.617 282.329 296.617 282.329C296.617 282.329 296.57 282.529 296.531 282.862C295.532 280.614 296.067 277.511 296.074 277.476C296.104 277.307 295.987 277.146 295.81 277.118C295.626 277.087 295.466 277.201 295.437 277.37C295.411 277.503 294.982 279.989 295.62 282.23C294.071 280.523 291.814 279.485 291.69 279.428C291.53 279.355 291.335 279.421 291.258 279.576C291.182 279.731 291.25 279.916 291.414 279.989C291.448 280.004 294.659 281.482 295.915 283.705C295.527 283.436 295.256 283.298 295.256 283.298C295.256 283.298 292.292 281.02 288.681 281.76C285.07 282.5 288.125 286.046 289.977 286.666C291.83 287.286 294.608 286.754 294.793 287.375C294.978 287.995 292.94 289.189 292.571 291.073C292.2 292.958 294.516 294.913 295.812 294.999C296.986 295.077 298.762 291.305 298.744 288.486C301.017 290.2 304.838 291.237 305.512 290.375C306.291 289.379 306.257 286.424 304.523 285.462Z" fill="#EF8E83"/>
<path d="M115.731 314.752C115.423 313.213 113.821 312.256 113.959 311.746C114.098 311.236 116.271 311.644 117.711 311.119C119.15 310.592 121.499 307.66 118.673 307.089C115.846 306.518 113.556 308.412 113.556 308.412C113.556 308.412 113.41 308.493 113.186 308.651C114.042 306.844 116.216 305.476 116.24 305.461C116.359 305.387 116.396 305.23 116.322 305.111C116.245 304.986 116.094 304.954 115.975 305.028C115.881 305.086 114.141 306.183 113.1 307.773C113.343 305.937 112.81 304.05 112.78 303.946C112.742 303.813 112.602 303.734 112.467 303.774C112.333 303.812 112.255 303.953 112.295 304.088C112.302 304.117 113.061 306.803 112.353 308.746C112.316 308.374 112.26 308.138 112.26 308.138C112.26 308.138 112.12 305.163 109.8 303.445C107.479 301.726 106.894 305.444 107.473 306.868C108.053 308.291 109.814 309.634 109.53 310.079C109.247 310.524 107.465 309.976 106.121 310.781C104.779 311.586 104.782 314.006 105.4 314.814C105.96 315.546 109.183 314.542 110.895 313C111.022 315.265 112.366 318.071 113.241 317.999C114.253 317.915 116.04 316.293 115.731 314.752Z" fill="#EF8E83"/>
<path d="M212.731 203.752C212.424 202.213 210.822 201.256 210.96 200.746C211.098 200.235 213.271 200.644 214.711 200.119C216.149 199.592 218.499 196.66 215.673 196.089C212.847 195.518 210.557 197.411 210.557 197.411C210.557 197.411 210.41 197.493 210.186 197.65C211.043 195.844 213.216 194.476 213.24 194.46C213.359 194.386 213.396 194.23 213.323 194.111C213.246 193.986 213.093 193.954 212.975 194.027C212.881 194.085 211.14 195.182 210.101 196.772C210.343 194.937 209.81 193.048 209.78 192.946C209.741 192.812 209.601 192.734 209.467 192.773C209.333 192.811 209.255 192.953 209.295 193.087C209.303 193.116 210.061 195.803 209.352 197.745C209.316 197.373 209.261 197.138 209.261 197.138C209.261 197.138 209.12 194.163 206.8 192.445C204.48 190.726 203.895 194.444 204.473 195.867C205.052 197.291 206.814 198.633 206.531 199.078C206.248 199.524 204.465 198.976 203.122 199.78C201.778 200.586 201.782 203.006 202.4 203.813C202.96 204.545 206.182 203.541 207.895 202C208.023 204.265 209.366 207.071 210.242 206.999C211.253 206.915 213.04 205.292 212.731 203.752Z" fill="#EF8E83"/>
<path d="M169.803 246.596C169.474 247.04 168.848 247.132 168.404 246.803C167.96 246.474 167.868 245.848 168.197 245.404C168.526 244.961 169.153 244.868 169.596 245.197C170.039 245.526 170.132 246.152 169.803 246.596Z" fill="#FCF6A0"/>
<path d="M171.803 242.596C171.474 243.039 170.848 243.132 170.404 242.803C169.96 242.474 169.868 241.848 170.197 241.404C170.526 240.96 171.152 240.868 171.596 241.197C172.039 241.526 172.132 242.153 171.803 242.596Z" fill="#FCF6A0"/>
<path d="M174.803 248.596C174.474 249.039 173.847 249.132 173.404 248.803C172.961 248.474 172.868 247.848 173.197 247.404C173.525 246.961 174.152 246.868 174.596 247.197C175.04 247.526 175.132 248.152 174.803 248.596Z" fill="#FCF6A0"/>
<path d="M293.803 257.596C293.474 258.04 292.848 258.132 292.404 257.803C291.96 257.474 291.868 256.847 292.197 256.404C292.526 255.961 293.153 255.868 293.596 256.197C294.039 256.526 294.132 257.152 293.803 257.596Z" fill="#FCF6A0"/>
<path d="M296.803 253.596C296.474 254.039 295.848 254.132 295.404 253.803C294.961 253.474 294.868 252.848 295.197 252.404C295.526 251.96 296.152 251.868 296.597 252.197C297.039 252.526 297.132 253.153 296.803 253.596Z" fill="#FCF6A0"/>
<path d="M299.803 259.596C299.473 260.04 298.848 260.132 298.404 259.803C297.96 259.474 297.868 258.847 298.197 258.404C298.527 257.961 299.153 257.868 299.595 258.197C300.04 258.526 300.132 259.152 299.803 259.596Z" fill="#FCF6A0"/>
<path d="M249.803 219.596C249.474 220.039 248.848 220.132 248.405 219.803C247.96 219.474 247.868 218.847 248.197 218.404C248.526 217.961 249.152 217.868 249.596 218.197C250.04 218.527 250.132 219.152 249.803 219.596Z" fill="#FCF6A0"/>
<path d="M252.803 215.596C252.474 216.039 251.848 216.132 251.404 215.803C250.961 215.474 250.868 214.848 251.197 214.404C251.525 213.961 252.152 213.868 252.596 214.197C253.039 214.526 253.133 215.152 252.803 215.596Z" fill="#FCF6A0"/>
<path d="M255.803 222.596C255.474 223.04 254.848 223.132 254.404 222.803C253.96 222.474 253.868 221.847 254.197 221.404C254.526 220.961 255.153 220.868 255.596 221.197C256.04 221.526 256.132 222.152 255.803 222.596Z" fill="#FCF6A0"/>
<path d="M262.363 273.771C261.937 273.419 261.878 272.789 262.229 272.364C262.581 271.937 263.21 271.878 263.636 272.229C264.062 272.581 264.123 273.211 263.771 273.637C263.42 274.062 262.789 274.123 262.363 273.771Z" fill="#FCF6A0"/>
<path d="M265.364 276.771C264.938 276.419 264.877 275.789 265.229 275.363C265.58 274.937 266.211 274.878 266.636 275.229C267.062 275.58 267.123 276.211 266.771 276.637C266.42 277.062 265.789 277.123 265.364 276.771Z" fill="#FCF6A0"/>
<path d="M259.363 278.771C258.937 278.419 258.878 277.789 259.229 277.363C259.58 276.937 260.21 276.878 260.636 277.229C261.062 277.581 261.123 278.211 260.771 278.637C260.419 279.062 259.788 279.123 259.363 278.771Z" fill="#FCF6A0"/>
<path d="M128 294C128 294.552 127.553 295 127.001 295C126.448 295 126 294.552 126 294C126 293.448 126.448 293 127.001 293C127.553 293 128 293.448 128 294Z" fill="white"/>
<path d="M287 232.5C287 233.329 286.328 234 285.5 234C284.671 234 284 233.329 284 232.5C284 231.672 284.671 231 285.5 231C286.328 231 287 231.672 287 232.5Z" fill="#FCF6A0"/>
<path d="M185 278.5C185 279.329 184.328 280 183.5 280C182.672 280 182 279.329 182 278.5C182 277.671 182.672 277 183.5 277C184.328 277 185 277.671 185 278.5Z" fill="#FCF6A0"/>
<path d="M213 183C213 183.552 212.552 184 212 184C211.447 184 211 183.552 211 183C211 182.449 211.447 182 212 182C212.552 182 213 182.449 213 183Z" fill="white"/>
<path d="M282 313.5C282 314.328 281.329 315 280.5 315C279.672 315 279 314.328 279 313.5C279 312.672 279.672 312 280.5 312C281.329 312 282 312.672 282 313.5Z" fill="#FCF6A0"/>
<path d="M195 212.5C195 213.328 194.329 214 193.5 214C192.671 214 192 213.328 192 212.5C192 211.672 192.671 211 193.5 211C194.329 211 195 211.672 195 212.5Z" fill="#FCF6A0"/>
<path d="M48.0871 436H402.61C405.22 436 405.938 439.587 403.523 440.577C379.811 450.294 316.928 472.308 228.797 474.822C146.844 477.16 78.3738 455.884 46.6384 443.875C42.3977 442.27 43.5512 436 48.0871 436Z" fill="#0B7A6A"/>
<path d="M166.939 360.803C166.153 346.806 151.451 343.991 149.981 340.509C148.511 337.025 146.137 329.901 135.551 326.541C124.966 323.181 118.379 329.391 112.447 325.588C106.515 321.784 101.236 318.639 94.1663 323.423C87.0957 328.208 82.0852 326.448 71.8778 325.295C61.6707 324.142 53.5643 333.963 53.564 333.964C49.5717 337.619 53.4226 342.246 62.8346 344.515C76.1246 347.72 72.3297 356.333 79.4138 359.822C86.4979 363.313 94.9179 359.855 100.256 364.078C105.596 368.302 105.192 375.963 111.8 377.761C118.407 379.559 126.202 375.181 129.982 377.772C133.763 380.364 135.822 388.042 140.334 390.692C144.847 393.344 157.616 394 157.616 394L160.7 393.257C160.7 393.257 167.724 374.801 166.939 360.803Z" fill="#0B7A6A"/>
<path d="M158 389C158 389 154.689 360.614 135.12 347.684C115.551 334.753 83.4572 334.445 73.7286 333.909C64 333.373 64 333.373 64 333.373C64 333.373 103.275 330.881 122.748 338.783C149.492 349.633 157.112 367.359 158 389Z" fill="#FFF9F0"/>
<path d="M143.64 359.544C143.64 359.544 127.283 344.855 124.819 332.631C122.355 320.408 129.586 315.841 124.717 309.653C119.85 303.463 122.025 292.357 127.265 289.539C132.504 286.721 134.65 280.57 135.164 272.065C135.678 263.562 142.126 260.399 144.123 262.758C149.625 269.253 146.889 275.896 155.303 280.027C163.718 284.16 166.701 292.717 164.59 299.723C162.479 306.731 171.757 308.966 177.902 319.663C184.045 330.359 179.595 339.302 176.988 346.01C174.382 352.718 181.605 360.802 178.983 368.535C176.36 376.269 158.258 389 158.258 389C158.258 389 149.502 385.747 143.64 359.544Z" fill="#ADD57F"/>
<path d="M143 274C143 274 148.429 294.896 154.968 321.836C161.505 348.775 162.606 382 162.606 382C162.606 382 166.391 357.888 161.487 335.26C156.583 312.632 143.415 277.484 143 274Z" fill="#FFF9F0"/>
<path d="M145.293 370.021C143.06 358.534 154.315 353.247 154.785 350.128C155.256 347.009 155.708 340.757 163.539 335.871C171.37 330.984 177.941 334.661 181.937 330.367C185.932 326.076 189.536 322.45 196.205 324.873C202.873 327.295 206.545 324.845 214.523 321.822C222.501 318.799 231.034 325.085 231.034 325.086C234.995 327.224 232.843 331.757 225.733 335.521C215.694 340.836 220.511 347.026 215.524 351.301C210.538 355.576 203.054 354.503 199.622 359.013C196.19 363.524 198.082 369.639 193.133 372.447C188.184 375.256 181.016 373.309 178.504 376.18C175.992 379.051 175.905 385.685 172.817 388.755C169.728 391.824 159.588 394.969 159.588 394.969L156.952 395C156.952 395 147.524 381.507 145.293 370.021Z" fill="#0B7A6A"/>
<path d="M158.461 391C158.461 391 155.303 367.08 168.461 352.445C181.619 337.809 207.495 330.908 215.247 328.454C223 326 223 326 223 326C223 326 190.745 332.095 176.63 342.596C157.245 357.018 154.73 373.103 158.461 391Z" fill="#FFF9F0"/>
<path d="M150.079 391.795C150.079 391.795 128.617 386.011 117.348 391.084C106.079 396.157 104 403.129 104 403.129C104 403.129 108.826 404.79 118.004 403.524C127.182 402.258 128.557 396.907 134.956 399.453C141.356 401.998 143.456 404.45 148.844 402.93C154.231 401.411 157 395.733 157 395.733L150.079 391.795Z" fill="#8A9375"/>
<path d="M161.341 392.103C161.341 392.103 167.207 385.586 175.713 386.021C184.22 386.454 185.713 389.313 189.882 389.495C194.05 389.678 196.352 388.411 202.041 390.284C207.671 392.136 211 394.675 211 394.675C211 394.675 205.216 402.744 196.211 400.655C187.206 398.564 180.393 397.218 177.447 400.126C174.502 403.035 156 397.734 156 397.734L161.341 392.103Z" fill="#8A9375"/>
<path d="M271.023 395.508C271.023 395.508 283.216 403.285 308.293 407.63C333.371 411.976 343.954 404.886 345.334 401.569C346.715 398.253 342.574 396.423 326.239 393.45C309.905 390.476 305.533 386.817 313.585 385.903C321.638 384.986 332.911 392.077 342.574 392.077C352.237 392.077 358.909 386.969 359.138 383.462C359.369 379.955 330.15 379.04 326.469 374.008C322.788 368.976 345.411 374.237 355.151 375.609C364.89 376.981 368.801 369.434 368.111 366.918C367.421 364.402 343.724 363.587 341.423 360.107C339.123 356.626 351.317 357.868 361.899 360.107C372.482 362.343 377.774 354.568 376.394 352.738C375.013 350.908 355.457 349.535 353.386 346.104C351.317 342.674 363.97 343.588 370.412 344.961C376.853 346.333 383.755 340.157 381.455 338.099C379.154 336.04 364.66 335.355 364.2 332.382C363.74 329.408 383.51 331.009 381.908 326.664C380.305 322.318 374.783 318.251 366.271 318.112C357.758 317.972 349.936 326.892 345.334 324.147C340.733 321.403 356.608 314.77 352.466 312.254C348.325 309.738 339.123 311.111 335.902 315.456C332.681 319.802 332.45 327.121 329 326.892C325.549 326.664 331.531 316.371 328.54 314.084C325.549 311.797 317.726 316.6 316.116 321.175C314.506 325.749 316.346 334.897 313.125 335.355C309.905 335.813 313.9 320.716 311.096 319.344C308.293 317.972 299.321 326.892 299.091 332.382C298.861 337.871 301.852 346.518 297.02 347.912C292.189 349.307 293.109 332.152 289.429 330.552C285.747 328.951 278.385 339.441 279.535 348.034C280.686 356.626 283.216 363.656 279.766 363.686C276.314 363.716 273.784 352.738 271.023 350.908C268.262 349.078 265.776 353.652 265.063 365.317C264.351 376.981 269.886 392.648 271.023 395.508Z" fill="#0B7A6A"/>
<path d="M266.412 414.033C266.412 414.033 279.277 380.771 294.242 362.34C309.206 343.908 338.086 332.794 352 332C352 332 319.081 338.167 297.917 364.549C276.753 390.929 268.775 427 268.775 427L263 425.855L266.412 414.033Z" fill="#FFF9F0"/>
<path d="M48.9931 432.463C48.9931 432.463 50.8197 425.786 59.7878 422.692C68.7558 419.597 70.0846 427.904 75.7313 427.578C81.3777 427.251 84 438 84 438H47L48.9931 432.463Z" fill="#8A9375"/>
<path d="M70.1924 437.539C69.6723 434.943 68.8752 432.019 67.8831 428.893C69.5076 425.724 74.1083 415.663 73.9981 403.482C73.8641 388.7 63.6601 373.196 63.6601 373.196C63.6601 373.196 60.9808 398.49 65.4215 421.756C62.3491 413.429 58.4092 404.396 54.7603 396.503C56.3131 393.238 59.106 386.211 59.0843 377.88C59.0543 366.355 51.1779 354.217 51.1779 354.217C51.1779 354.217 49.0638 372.989 52.072 390.774C49.3827 385.125 47.0617 380.479 45.6586 377.712C45.4109 373.81 44.4514 366.971 40.9197 360.26C35.5575 350.07 22.9647 343 22.9647 343C22.9647 343 30.893 363.471 43.3142 378.247C44.4372 380.462 46.3258 384.235 48.5855 388.927C46.8609 386.387 44.6562 383.684 41.8827 381.23C33.2713 373.61 19 371.482 19 371.482C19 371.482 35.2203 389.558 53.1422 398.613C55.0033 402.669 56.9218 406.985 58.7517 411.329C56.6821 408.505 54.1439 405.584 51.0753 402.904C39.9665 393.202 21.6425 390.591 21.6425 390.591C21.6425 390.591 41.485 412.421 63.8041 424.161C65.6504 429.285 67.1221 434.06 67.9126 438L70.1924 437.539Z" fill="#ADD57F"/>
<path d="M365.913 431H377.214C377.214 431 382.326 421.582 394.703 415.123C407.079 408.665 408.425 400.874 408.963 397.234C409.501 393.595 404.12 395.479 396.048 400.323C387.977 405.166 385.824 416.633 382.326 416.417C378.828 416.2 380.98 403.017 388.515 398.71C396.048 394.402 401.967 383.908 403.851 377.18C405.734 370.452 390.397 375.297 383.133 383.369C375.869 391.442 376.944 411.158 371.563 413.678C366.182 416.2 375.599 399.65 364.702 392.898C360.333 390.191 359.185 397.933 360.532 407.739C361.878 417.545 368.604 422.12 365.913 431Z" fill="#8A9375"/>
<path d="M347 436.815C347 436.815 367.058 439 382.551 439C398.042 439 404 437.61 404 437.61C404 437.61 400.624 431.25 390.693 428.865C380.763 426.479 379.771 432.442 375.401 428.865C371.031 425.287 363.086 422.703 356.136 424.69C349.184 426.678 347 436.815 347 436.815Z" fill="#D2C575"/>
<path d="M141.042 50L141.736 64.8328L150.789 66.3357L141.867 67.1851L140.781 84L139.652 67.4029L130.817 66.3357L139.696 65.0506L141.042 50Z" fill="#FCF6A0"/>
<path d="M107.102 180L107.797 194.833L116.837 196.336L107.928 197.185L106.841 214L105.711 197.403L96.8662 196.336L105.754 195.051L107.102 180Z" fill="#FCF6A0"/>
<path d="M257.323 141L257.844 151.906L264.624 153.012L257.942 153.636L257.127 166L256.28 153.796L249.646 153.012L256.312 152.067L257.323 141Z" fill="#FCF6A0"/>
<path d="M14.2355 57L14.9309 71.8328L23.9712 73.3357L15.0613 74.1851L13.9748 91L12.8447 74.4029L4 73.3357L12.8882 72.0506L14.2355 57Z" fill="#FCF6A0"/>
<path d="M372.697 219L373.393 233.833L382.455 235.336L373.523 236.185L372.436 253L371.306 236.403L362.483 235.336L371.35 234.051L372.697 219Z" fill="#FCF6A0"/>
<path d="M33.1865 319L33.8819 333.855L42.9439 335.357L34.0122 336.207L32.9257 353L31.7956 336.425L22.9727 335.357L31.8391 334.072L33.1865 319Z" fill="#FCF6A0"/>
<path d="M384.702 327L385.397 341.855L394.438 343.357L385.528 344.207L384.441 361L383.311 344.425L374.466 343.357L383.354 342.072L384.702 327Z" fill="#FCF6A0"/>
<path d="M373.137 389L373.674 399.903L380.458 401.026L373.764 401.643L372.958 414L372.107 401.797L365.479 401.026L372.129 400.079L373.137 389Z" fill="#FCF6A0"/>
<g clip-path="url(#clip0_15_2497)">
<path d="M364.159 1.53677C331.887 5.93719 305.844 25.0299 294.217 52.8144C287.118 69.8706 285.597 91.109 290.269 109.074C293.384 121.185 298.817 130.967 307.438 139.95C316.819 149.769 327.323 156.279 341.703 161.225C351.518 164.607 358.074 165.734 369.484 165.953C382.414 166.244 390.311 165.225 400.018 162.061C410.377 158.679 420.663 151.915 430.515 142.132C446.851 125.803 456.413 105.692 457.282 85.6903C458.115 66.9976 450.907 46.8502 437.651 30.7759C434.826 27.3574 427.98 20.6295 424.611 17.9383C413.419 9.10112 399.873 3.28238 386.326 1.5004C381.038 0.809418 369.266 0.845795 364.159 1.53677ZM386.181 2.22774C402.662 4.40977 418.599 12.5924 431.348 25.3936C447.104 41.2497 456.304 62.5245 456.341 83.2174C456.341 90.7453 454.783 99.2916 451.958 107.329C450.002 112.82 450.183 112.638 448.336 111.002C446.452 109.256 443.555 107.911 441.164 107.62C432.797 106.638 421.062 115.548 416.969 125.949C416.1 128.131 415.991 128.931 415.955 132.786C415.955 137.186 415.955 137.186 417.367 140.059C418.345 142.059 419.468 143.587 421.134 145.26C422.438 146.533 423.344 147.696 423.163 147.805C422.945 147.951 421.496 149.078 419.903 150.278C405.922 161.079 392.339 165.371 372.345 165.334C364.847 165.334 360.103 164.934 354.307 163.771L350.396 162.97L349.816 160.788C349.49 159.588 348.476 157.043 347.57 155.152C346.665 153.26 345.397 150.206 344.781 148.424C342.282 141.259 339.674 137.332 336.269 135.695C334.422 134.822 330.692 134.531 329.098 135.186C328.482 135.441 326.635 136.459 325.077 137.404C321.528 139.55 320.477 139.841 316.348 139.805C314.139 139.805 312.581 139.986 311.458 140.387L309.829 141.005L308.126 139.223C306.569 137.586 306.424 137.295 306.206 135.004C305.844 131.586 306.098 130.24 307.836 126.567C310.915 120.057 309.973 114.857 305.482 113.111C303.526 112.384 300.918 112.566 299.542 113.584C299.035 113.984 297.948 115.257 297.115 116.457C296.318 117.621 295.413 118.639 295.123 118.712C294.217 118.894 291.465 110.638 290.125 103.692C288.458 95.1458 288.205 82.4536 289.545 73.6892C292.37 55.1055 299.977 39.7223 312.545 27.1392C324.136 15.5017 337.791 8.04648 354.561 4.08246C358.002 3.28238 363.942 2.2641 367.238 1.9368C370.896 1.53676 382.414 1.7186 386.181 2.22774ZM444.786 109.693C446.561 110.602 448.626 112.457 448.915 113.329C449.422 114.966 442.504 126.676 436.854 133.695C433.196 138.168 426.459 145.078 425.843 144.896C424.792 144.569 421.931 140.168 421.207 137.841C418.961 130.495 421.677 122.567 428.813 115.73C432.254 112.457 435.007 110.602 438.23 109.438C440.874 108.493 442.504 108.529 444.786 109.693ZM434.536 110.165C429.574 112.966 424.177 118.493 421.75 123.33C420.048 126.712 419.396 129.258 419.396 132.822C419.396 137.659 420.844 141.296 424.213 144.86C425.191 145.914 425.227 146.06 424.684 146.278C424.213 146.46 423.452 145.951 421.895 144.387C415.918 138.459 415.303 130.095 420.156 121.803C422.692 117.475 429.646 111.366 434.065 109.584C436.492 108.602 436.709 108.893 434.536 110.165ZM305.265 113.838C307.474 115.002 307.221 115.33 304.214 115.33C300.81 115.33 300.049 115.766 297.876 118.966C296.21 121.403 295.703 121.694 295.377 120.53C295.232 119.912 295.377 119.548 295.92 119.184C296.318 118.894 297.296 117.73 298.093 116.566C298.854 115.402 299.868 114.202 300.303 113.911C301.317 113.184 303.925 113.148 305.265 113.838ZM306.279 116.202C308.271 117.112 308.669 117.984 308.488 120.93C308.38 122.821 307.981 124.094 306.605 127.076C304.975 130.604 304.903 130.967 305.011 133.368L305.12 135.913L304.287 134.895C302.729 132.968 298.383 126.349 297.332 124.239C296.282 122.167 296.282 122.13 297.006 121.476C297.405 121.112 298.057 120.239 298.491 119.548C300.737 115.766 303.091 114.748 306.279 116.202ZM335.473 136.277C336.197 136.677 336.813 137.004 336.813 137.077C336.813 137.113 335.545 137.113 334.024 137.041C330.945 136.895 330.836 136.932 325.222 140.277L322.542 141.878H318.521C316.058 141.914 314.03 142.096 313.197 142.423C311.966 142.859 311.784 142.859 311.096 142.241L310.336 141.55L311.35 141.005C312.038 140.641 313.74 140.423 316.674 140.35C321.455 140.205 322.325 139.95 326.961 137.004C328.229 136.204 329.714 135.477 330.221 135.404C331.742 135.15 333.951 135.55 335.473 136.277ZM335.799 137.914C339.457 139.15 341.087 141.478 343.876 149.296C344.6 151.369 346.013 154.715 346.991 156.715C348.512 159.879 349.236 162.425 348.548 162.425C348.44 162.425 345.977 161.625 343.043 160.643C331.923 156.897 322.904 152.06 314.646 145.369C313.523 144.46 312.581 143.587 312.581 143.441C312.509 142.896 315.117 142.423 318.34 142.423C322.469 142.423 323.737 142.059 327.214 139.805C331.199 137.223 332.792 136.859 335.799 137.914Z" fill="#EBFCF4"/>
<path d="M306.279 116.202C308.271 117.112 308.669 117.984 308.488 120.93C308.38 122.821 307.981 124.094 306.605 127.076C304.975 130.604 304.903 130.967 305.011 133.368L305.12 135.913L304.287 134.895C302.729 132.968 298.383 126.349 297.332 124.239C296.282 122.167 296.282 122.13 297.006 121.476C297.405 121.112 298.057 120.239 298.491 119.548C300.737 115.766 303.091 114.748 306.279 116.202Z" fill="#EBFCF4"/>
<path d="M335.799 137.914C339.457 139.15 341.087 141.478 343.876 149.296C344.6 151.369 346.013 154.715 346.991 156.715C348.512 159.879 349.236 162.425 348.548 162.425C348.44 162.425 345.977 161.625 343.043 160.643C331.923 156.897 322.904 152.06 314.646 145.369C313.523 144.46 312.581 143.587 312.581 143.441C312.509 142.896 315.117 142.423 318.34 142.423C322.469 142.423 323.737 142.059 327.214 139.805C331.199 137.223 332.792 136.859 335.799 137.914Z" fill="#EBFCF4"/>
<path d="M444.786 109.693C446.561 110.602 448.626 112.457 448.915 113.329C449.422 114.966 442.504 126.676 436.854 133.695C433.196 138.168 426.459 145.078 425.843 144.896C424.792 144.569 421.931 140.168 421.207 137.841C418.961 130.495 421.677 122.567 428.813 115.73C432.254 112.457 435.007 110.602 438.23 109.438C440.874 108.493 442.504 108.529 444.786 109.693Z" fill="#EBFCF4"/>
<path d="M351.409 15.4506C342.703 17.4121 334.181 23.5873 328.585 32.0146C320.794 43.7837 319.66 49.4141 324.232 53.991C327.634 57.4055 331.987 57.914 336.595 55.5166C338.9 54.2816 345.922 47.8884 358.468 35.5744C365.235 28.927 366.478 27.1108 366.478 23.8415C366.442 17.4847 359.565 13.6343 351.409 15.4506ZM360.48 16.7582C362.235 17.5937 362.235 17.63 361.175 17.739C353.932 18.3929 345.922 22.3522 340.216 28.0552C336.998 31.2881 335.205 33.6492 332.133 38.7346C327.744 45.9995 326.537 50.9034 328.292 54.3905C328.731 55.2623 329.024 55.9525 328.914 55.9525C328.219 55.9525 325.695 54.2452 324.671 53.0465C322.33 50.3222 322.074 47.053 323.83 42.3671C324.818 39.8244 328.658 33.2496 331.218 29.7988C338.9 19.3736 352.981 13.0895 360.48 16.7582ZM363.625 19.1557C365.6 21.4078 365.893 24.4954 364.467 27.6193C363.698 29.2539 361.979 31.1428 354.664 38.2624C337.985 54.5722 335.571 56.4974 332.06 56.2431C330.633 56.1341 330.414 55.9888 329.646 54.5358C328 51.4482 328.731 46.6897 331.621 41.4226C336.888 31.833 343.033 25.2945 350.055 21.771C355.871 18.9014 362.272 17.6664 363.625 19.1557Z" fill="#EBFCF4"/>
<path d="M363.625 19.1557C365.6 21.4078 365.893 24.4954 364.467 27.6193C363.698 29.2539 361.979 31.1428 354.664 38.2624C337.985 54.5722 335.571 56.4974 332.06 56.2431C330.633 56.1341 330.414 55.9888 329.646 54.5358C328 51.4482 328.731 46.6897 331.621 41.4226C336.888 31.833 343.033 25.2945 350.055 21.771C355.871 18.9014 362.272 17.6664 363.625 19.1557Z" fill="#EBFCF4"/>
<path d="M391.084 29.5667C388.172 30.2539 386.244 31.3027 384.024 33.4004C380.349 36.8724 379.475 41.2124 381.586 45.661C382.204 46.9268 383.114 48.482 383.551 49.133C386.135 52.5689 391.629 59.0428 393.121 60.3809C398.544 65.3358 406.04 65.1911 411.753 60.0193C416.629 55.5707 417.757 48.265 414.737 40.9954C413.791 38.7169 413.1 37.7043 410.843 35.4619C405.385 30.0369 398.143 27.8668 391.084 29.5667ZM399.599 30.1092C402.51 30.724 406.549 32.7494 408.696 34.7747L410.625 36.5469L408.26 35.3172C404.948 33.6174 402.11 32.9302 398.216 32.9302C389.774 32.9302 383.333 37.8489 383.041 44.5036C383.005 46.2035 382.714 46.0588 382.059 44.0335C380.239 38.3553 383.806 32.4962 390.429 30.3985C392.721 29.639 396.797 29.5305 399.599 30.1092ZM403.565 34.2684C406.549 35.1364 409.643 36.9086 411.753 38.9701C413.318 40.4529 413.791 41.2486 414.446 43.3101C416.375 49.5308 414.664 56.7642 410.443 60.0916C404.766 64.5401 397.998 64.1061 393.085 58.9343C390.247 55.9686 385.043 49.133 384.679 47.831C383.951 45.5163 384.133 42.406 385.116 40.3806C386.571 37.2702 390.356 34.5577 394.504 33.6897C396.542 33.2557 401.091 33.545 403.565 34.2684Z" fill="#EBFCF4"/>
<path d="M403.565 34.2684C406.549 35.1364 409.643 36.9086 411.753 38.9701C413.318 40.4529 413.791 41.2486 414.446 43.3101C416.375 49.5308 414.664 56.7642 410.443 60.0916C404.766 64.5401 397.998 64.1061 393.085 58.9343C390.247 55.9686 385.043 49.133 384.679 47.831C383.951 45.5163 384.133 42.406 385.116 40.3806C386.571 37.2702 390.356 34.5577 394.504 33.6897C396.542 33.2557 401.091 33.545 403.565 34.2684Z" fill="#EBFCF4"/>
<path d="M341.17 96.1239C336.061 96.7686 331.133 100.422 328.866 105.292C327.966 107.19 327.679 108.301 327.571 110.628C327.391 114.102 327.859 115.786 329.334 117.039C331.133 118.543 332.428 118.293 336.061 115.857C339.012 113.852 339.839 114.031 346.711 118.042C351.316 120.728 354.446 120.656 357.216 117.791C359.051 115.857 359.663 113.816 359.447 110.27C358.871 101.496 350.452 95.0137 341.17 96.1239ZM340.846 97.7713C336.889 99.7053 333.471 104.289 332.5 108.909C331.996 111.309 332.248 114.425 333.075 115.642C333.615 116.466 333.579 116.538 332.716 116.932C332.068 117.218 331.6 117.218 330.953 116.932C326.923 115.105 328.002 105.937 332.823 101.138C335.27 98.7025 339.012 96.876 341.674 96.8402C342.645 96.8044 342.537 96.9118 340.846 97.7713ZM349.697 98.0579C354.626 100.242 358.439 106.009 358.439 111.273C358.439 114.353 357.864 116.001 356.281 117.72C354.95 119.152 354.806 119.188 352.611 119.188C350.524 119.188 350.057 119.045 347.646 117.612C342.537 114.604 341.17 113.995 339.371 113.995C338.148 113.995 337.285 114.246 336.313 114.926C334.658 116.036 334.119 115.857 333.651 114.102C333.111 112.24 333.147 111.166 333.831 108.265C335.018 102.964 339.515 98.3802 344.66 97.1983C346.315 96.8402 347.25 96.9834 349.697 98.0579Z" fill="#EBFCF4"/>
<path d="M349.697 98.0579C354.626 100.242 358.439 106.009 358.439 111.273C358.439 114.353 357.864 116.001 356.281 117.72C354.95 119.152 354.806 119.188 352.611 119.188C350.524 119.188 350.057 119.045 347.646 117.612C342.537 114.604 341.17 113.995 339.371 113.995C338.148 113.995 337.285 114.246 336.313 114.926C334.658 116.036 334.119 115.857 333.651 114.102C333.111 112.24 333.147 111.166 333.831 108.265C335.018 102.964 339.515 98.3802 344.66 97.1983C346.315 96.8402 347.25 96.9834 349.697 98.0579Z" fill="#EBFCF4"/>
<path d="M419.283 95.9594C418.14 97.2296 418.105 99.1894 419.212 100.859C420.319 102.601 423.497 104.198 425.282 103.98C426.996 103.726 428.389 102.492 428.389 101.149C428.389 99.9153 427.746 99.262 425.568 98.1369C424.675 97.6651 423.568 96.7578 423.104 96.1408C422.068 94.6891 420.497 94.6166 419.283 95.9594ZM422.318 96.8304C422.747 97.4474 423.854 98.3184 424.782 98.7902C426.925 99.9153 427.461 100.569 427.175 101.73C426.818 103.145 425.389 103.545 423.39 102.782C420.14 101.512 418.569 98.645 420.033 96.5401C420.783 95.4513 421.426 95.5239 422.318 96.8304Z" fill="#EBFCF4"/>
</g>
<path d="M354.643 391.901C352.936 386.382 349.165 383.027 344.567 379.808C342.007 378.015 339.227 376.146 336.252 374.946C335.386 374.459 334.505 373.997 333.607 373.57C324.558 369.254 314.442 368.114 304.527 368.837C295.325 369.508 285.076 370.52 277.819 376.538C275.434 378.516 272.976 380.024 270.069 381.281C264.15 383.841 257.731 385.177 251.311 385.597C237.047 386.53 223.037 383.02 209.049 380.832C181 376.445 151.898 378.684 125.119 388.332C113.422 392.547 101.522 399.104 95.8518 410.744C90.7542 421.21 92.7986 433.32 99.536 442.571C115.546 464.556 147.633 464.067 171.65 459.991C187.884 457.235 203.764 452.411 219.445 447.469C225.545 445.546 231.749 443.664 237.438 440.699C237.607 440.611 237.779 440.519 237.907 440.378C238.085 440.183 238.159 439.917 238.227 439.662C238.743 437.737 239.258 435.811 239.773 433.886C240.418 431.476 240.77 428.78 241.706 426.527C242.449 424.737 242.159 422.213 243.477 420.714C243.808 420.336 244.234 420.055 244.663 419.793C247.304 418.183 250.263 417.183 253.194 416.195C253.461 416.106 253.743 416.015 254.018 416.078C255.584 416.438 254.424 421 254.282 421.998C253.915 424.589 253.54 427.18 253.167 429.771C252.862 431.891 252.558 434.01 252.253 436.131C252.021 437.743 251.532 439.59 252.582 441.026C253.434 442.192 254.771 442.472 256.123 442.641C258.536 442.942 260.967 443.143 263.389 443.347C267.235 443.669 271.087 443.905 274.943 444.065C277.402 444.446 279.868 444.773 282.305 445.072C288.248 445.802 294.198 446.521 300.17 446.968C306.071 447.41 312.018 447.54 317.925 447.137C323.543 446.752 329.51 446.128 334.819 444.153C343.748 440.83 351.685 432.585 355.218 423.807C359.176 413.975 357.708 401.81 354.643 391.901Z" fill="#54623B"/>
<path d="M296.685 257.152C295.542 254.31 293.106 252.19 290.54 250.515C281.819 244.824 271.205 243.216 260.996 240.98C260.932 240.66 260.83 240.344 260.728 240.033C258.028 231.836 260.085 223.492 255.811 215.584C251.251 207.147 244.036 197.551 233.598 197.034C226.958 196.706 220.22 198.739 214.864 202.69C208.073 207.699 203.797 216.138 202.043 224.274C200.398 231.911 203.736 240.093 209.831 244.838C216.283 249.862 228.375 248.744 236.089 248.183C241.459 247.792 246.829 247.974 251.802 250.229C256.91 252.546 260.734 258.694 264.438 262.829C267.123 265.826 269.967 268.934 273.752 270.301C279.485 272.372 290.261 271.953 294.731 267.279C297.243 264.653 298.039 260.523 296.685 257.152Z" fill="#3A2616"/>
<path d="M259.799 240.882C258.114 241.707 256.436 243.566 255.562 244.619C254.776 245.567 254.113 246.61 253.564 247.712C252.994 248.86 252.626 250.159 252.196 251.365C252.853 251.584 253.86 252.703 254.585 252.392C255.745 251.895 256.164 249.899 256.594 248.86C257.262 247.248 258.403 245.925 259.587 244.652C260.348 243.834 262.04 242.882 262.554 241.971C263.267 240.709 260.69 240.446 259.799 240.882Z" fill="#9D816C"/>
<path d="M244.936 255.539C244.721 254.237 244.68 252.939 245.031 251.896C245.316 251.048 245.87 250.322 246.377 249.585C252.248 241.038 253.422 226.17 245.886 218.181C244.317 216.519 242.393 215.223 240.359 214.182C237.348 212.641 234.042 211.637 230.666 211.355C227.823 211.117 225.341 211.964 222.561 212.448C216.625 213.482 214.408 219.039 213.856 224.306C213.174 230.803 213.052 237.358 213.491 243.877C213.655 246.316 218 251 218 251C218 251 224.069 257.013 225.453 257.304C224.39 263.002 221.566 268.276 217.278 272.232C214.607 274.698 211.419 276.613 207.94 277.689C209.398 283.628 213.483 288.871 218.885 291.738C226.199 295.619 235.195 295.014 243.018 292.304C246.98 290.933 250.819 289.018 253.887 286.162C256.956 283.306 259.206 279.43 259.546 275.252C259.556 275.135 254.329 271.835 253.81 271.373C252.008 269.768 250.423 267.919 249.099 265.902C247.775 263.883 246.71 261.694 245.951 259.402C245.591 258.315 245.165 256.925 244.936 255.539Z" fill="#C88C61"/>
<path d="M210.258 230.81C210.376 230.743 210.493 230.672 210.606 230.597C213.179 228.901 214.153 225.662 214.992 222.696C215.83 219.731 216.93 216.497 219.605 214.968C222.198 213.486 225.173 214.168 227.937 214.439C228.371 211.889 225.799 209.616 223.53 209.037C221.089 208.416 218.492 209.073 216.193 210.102C212.089 211.938 208.482 215.052 206.501 219.087C205.228 221.682 205.07 224.591 204.255 227.264C203.537 229.616 203.937 231.631 207.092 231.643C208.196 231.648 209.298 231.355 210.258 230.81Z" fill="#3A2616"/>
<path d="M204.054 230.16C204.766 232.148 207.113 232.386 208.93 232.03C211.269 231.572 213.044 229.896 214.135 227.845C216.131 224.096 216.048 218.887 219.493 216.001C221.844 214.032 225.02 214.579 227.816 214.899C228.484 214.976 228.478 213.929 227.816 213.853C225.447 213.581 222.946 213.173 220.664 214.104C218.704 214.905 217.335 216.534 216.434 218.408C214.683 222.042 214.622 226.945 211.376 229.717C210.266 230.665 208.82 231.163 207.364 231.116C206.447 231.087 205.406 230.837 205.063 229.881C204.837 229.252 203.826 229.524 204.054 230.16Z" fill="#401C14"/>
<path d="M255.84 229.03C255.524 227.28 254.961 225.543 253.926 224.097C252.865 222.616 251.357 221.508 249.765 220.622C247.673 219.458 241.216 216.413 239.544 219.325C237.73 222.348 240.777 226.988 242.673 229.292C243.058 229.759 243.448 230.237 243.67 230.8C244.152 232.021 243.763 233.401 243.892 234.707C243.947 235.278 244.366 235.992 244.903 235.79C245.549 235.548 245.521 234.37 246.124 233.971C246.899 233.458 248.291 233.62 249.004 234.147C250.14 234.989 250.333 236.608 250.223 238.018C250.082 239.824 249.603 241.602 248.819 243.233C248.175 244.574 246.037 247.645 247.01 249.222C248.051 250.907 250.243 248.61 251.044 247.513C254.902 242.23 257.001 235.469 255.84 229.03Z" fill="#3A2616"/>
<path d="M223.154 217.435C226.803 221.268 231.979 223.313 237.17 224.346C241.8 225.268 246.943 225.378 250.875 222.765C251.13 222.595 251.391 222.399 251.499 222.113C251.645 221.724 251.468 221.294 251.284 220.921C247.278 212.782 238.572 207.175 229.505 206.896C226.068 206.79 221.563 207.614 219.653 210.831C221.244 212.285 221.379 215.569 223.154 217.435Z" fill="#3A2616"/>
<path d="M219.283 211.201C220.073 211.956 220.433 213.041 220.801 214.042C221.187 215.087 221.567 216.165 222.207 217.087C222.923 218.119 223.944 218.968 224.929 219.733C225.987 220.553 227.117 221.272 228.304 221.891C230.7 223.142 233.287 224.014 235.919 224.614C238.528 225.208 241.226 225.586 243.907 225.43C245.382 225.344 246.861 225.101 248.262 224.619C248.947 224.383 249.618 224.094 250.256 223.748C250.875 223.412 251.619 223.031 251.95 222.377C252.254 221.778 251.352 221.248 251.047 221.849C250.775 222.385 249.998 222.71 249.48 222.975C248.913 223.265 248.324 223.503 247.719 223.698C246.514 224.085 245.262 224.298 244.001 224.378C241.41 224.541 238.814 224.195 236.29 223.625C233.805 223.065 231.359 222.272 229.084 221.116C227.966 220.55 226.892 219.898 225.884 219.152C224.897 218.422 223.822 217.57 223.11 216.558C221.799 214.692 221.714 212.075 220.022 210.461C219.535 209.996 218.794 210.735 219.283 211.201Z" fill="#401C14"/>
<path d="M192.506 287.377C192.384 286.592 191.269 285.95 190.534 286.257C189.473 286.7 188.563 287.23 187.755 287.9C187.486 287.972 187.217 288.11 186.968 288.345C180.653 294.314 175.221 301.276 169.823 308.066C165.263 313.802 161.123 319.72 157.473 326.074C152.727 334.332 149.254 343.454 143.947 351.366C139.33 358.252 135.611 365.728 130.625 372.369C127.993 375.874 124.498 380.731 119.907 381.601C116.406 382.265 114.284 379.058 111.36 378.154C109.812 377.143 107.855 376.78 106.237 377.738C105.351 378.263 105.769 379.561 106.745 379.611C108.546 379.704 110.304 379.616 111.224 381.554C112.035 383.263 111.333 385.095 109.806 386.08C108.603 386.857 106.861 387.225 105.469 386.783C103.657 386.207 103.318 383.312 104.647 382.053C105.742 381.014 104.325 379.155 103.028 379.955C100.589 381.459 100.462 386.156 102.411 388.117C102.518 388.226 102.633 388.323 102.749 388.419C102.105 388.662 101.464 388.909 100.77 389.068C99.6236 389.331 98.4569 389.471 97.3084 389.728C96.6072 389.886 96.6536 390.919 97.3084 391.102C97.7092 391.215 98.1182 391.308 98.531 391.384C97.6452 391.728 96.7669 392.128 96.1618 392.791C95.9724 392.998 95.9915 393.345 96.2513 393.491C97.4275 394.149 98.9711 394.062 100.531 393.595C100.194 393.792 99.8857 394.014 99.6408 394.281C98.5076 394.588 97.4198 395.026 96.4187 395.716C96.0982 395.937 96.1011 396.5 96.534 396.6C98.7898 397.115 101.016 396.896 103.312 396.721C106.106 396.508 108.891 396.288 111.67 395.92C116.848 395.234 121.57 393.756 126.278 391.505C135.989 386.861 145.655 381.821 154.499 375.661C164.034 369.02 170.809 361.066 177.741 351.97C182.255 346.045 186.008 339.542 188.884 332.672C190.295 329.302 192.159 325.359 192.622 321.708C193.068 318.197 193.101 314.422 193.36 310.848C193.93 302.998 193.714 295.157 192.506 287.377Z" fill="#C88C61"/>
<path d="M348.274 374.732C348.414 374.572 348.503 374.381 348.516 374.148C348.537 373.76 348.236 373.38 347.854 373.311C347.661 373.276 347.464 373.312 347.275 373.359C346.435 373.566 345.629 374.023 344.764 374.057C345.156 373.229 346.456 373.165 346.881 372.181C347.078 371.727 346.966 371.099 346.517 370.891C346.002 370.653 345.444 371.063 344.948 371.34C344.172 371.773 343.237 371.844 342.4 371.788C344.085 370.609 345.73 367.003 343.176 365.812C342.873 365.67 342.483 365.772 342.391 366.131C342.128 367.159 342.353 368.172 341.537 369.043C340.78 369.85 339.489 370.137 338.433 369.94C337.249 369.718 336.232 368.858 336.296 367.536C336.32 367.041 337.316 365.228 338.189 365.083C338.484 365.192 338.78 365.336 339.078 365.531C340.574 366.506 342.132 364.348 340.944 363.113C340.496 362.647 339.977 362.369 339.427 362.231C337.303 361.347 335.179 361.732 333.012 362.305C331.465 362.156 329.905 362.077 328.388 361.738C326.072 361.223 324.324 359.996 322.573 358.455C319.493 355.743 316.455 352.969 313.462 350.162C307.491 344.562 301.734 338.629 297.102 331.851C294.886 328.609 292.92 325.183 291.349 321.582C289.55 317.461 288.33 313.117 286.442 309.029C282.589 300.69 276.997 293.211 271.863 285.636C271.664 285.342 271.41 285.163 271.139 285.071C270.511 284.328 269.833 283.637 269.055 283.001C268.832 282.819 268.597 282.704 268.361 282.64C267.468 282.235 266.558 282.774 266.233 283.592C264.503 285.148 264.483 289.22 264.193 291.351C263.305 297.89 263.392 304.499 264.024 311.057C264.993 321.095 266.501 331.102 271.841 339.497C272.532 341.073 273.471 342.525 274.808 343.742C274.957 343.879 275.114 343.973 275.274 344.042C275.461 344.252 275.647 344.461 275.84 344.668C276.168 345.019 276.56 345.212 276.965 345.28C279.824 348.166 282.892 350.883 285.852 353.576C290.318 357.638 294.982 361.437 300.057 364.716C304.857 367.819 309.934 370.461 315.206 372.667C321.218 375.183 327.269 377.004 333.635 378.357C335.941 378.847 338.199 378.776 340.535 378.835C342.615 378.888 344.024 379.1 346.034 378.097C346.659 377.785 347.301 377.354 347.498 376.683C347.603 376.327 347.465 375.826 347.094 375.802C346.928 375.792 346.774 375.885 346.629 375.967C346.196 376.211 345.715 376.405 345.224 376.45C345.229 375.574 347.512 375.599 348.274 374.732Z" fill="#C88C61"/>
<path d="M271.041 344.499C269.022 333.102 267.874 321.551 267.604 309.98C267.467 304.133 267.554 298.28 267.866 292.439C268.01 289.741 268.927 286.262 268.515 283.618C268.184 281.491 264.936 279.693 263.266 278.277C261.83 277.059 259.75 275.846 258.718 274.278C259.48 275.435 254.522 280.881 253.735 281.685C251.663 283.802 249.161 285.745 246.485 287.041C240.628 289.878 232.684 291.796 226.266 290.072C224.133 289.499 222.135 288.515 220.187 287.476C215.577 285.017 210.901 281.928 208.809 277.142C206.661 277.422 189.677 285.93 190.047 287.004C194.064 299.669 191.46 313.404 188.255 326.298C183.687 344.67 177.875 362.922 168.346 379.281C183.076 375.489 198.959 376.316 213.216 381.617C220.87 384.463 228.146 388.583 236.2 389.933C244.782 391.371 253.657 389.518 261.677 386.141C269.698 382.765 276.999 377.919 284.246 373.101C275.984 366.255 272.913 355.065 271.041 344.499Z" fill="white"/>
<path d="M280.914 394.928C276.43 397.664 271.541 399.616 266.558 401.233C264.099 402.031 261.616 402.752 259.131 403.458C258.527 403.63 257.922 403.796 257.32 403.971C256.804 404.121 256.263 404.296 255.879 404.692C255.256 405.335 255.296 406.325 255.301 407.159C255.313 408.994 255.453 410.828 255.515 412.662C255.543 413.525 255.566 414.391 255.533 415.255C255.497 416.214 255.309 417.157 255.169 418.105C254.746 420.966 254.536 423.858 254.085 426.713C253.767 428.726 253.248 430.697 252.877 432.699C252.304 435.786 251.987 438.917 251.92 442.055C251.906 442.729 252.953 442.729 252.967 442.055C253.026 439.236 253.285 436.424 253.766 433.645C254.102 431.708 254.595 429.804 254.945 427.87C255.402 425.345 255.574 422.778 255.916 420.237C256.17 418.347 256.582 416.466 256.594 414.554C256.606 412.707 256.48 410.861 256.402 409.016C256.369 408.236 256.334 407.452 256.35 406.67C256.359 406.225 256.335 405.687 256.695 405.369C257.122 404.991 257.869 404.904 258.403 404.753C260.856 404.06 263.307 403.359 265.739 402.594C271.183 400.879 276.554 398.815 281.442 395.832C282.016 395.482 281.491 394.576 280.914 394.928Z" fill="#401C14"/>
<path d="M277.5 434.411C277.258 433.983 276.954 433.548 276.596 433.118C274.102 430.125 271.902 429.567 268.676 427.84C265.52 426.15 262.746 423.743 260.645 420.842C259.239 418.901 258.008 416.636 255.846 415.599C253.581 414.513 250.849 415.084 248.586 416.176C246.323 417.267 244.313 418.841 242.019 419.867C241.949 421.371 242.006 422.769 241.811 424.28C241.621 425.756 241.146 427.411 241.294 428.897C241.424 430.196 242.15 431.14 241.945 432.599C245.801 432.687 249.792 432.024 253.981 432.731C258.034 433.415 261.819 434.879 265.604 436.431C268.588 437.655 271.753 439.604 275.107 439.176C278.346 438.763 278.776 436.668 277.5 434.411Z" fill="#C88C61"/>
<path d="M173.84 393.008C179.849 394.153 185.666 396.083 191.391 398.21C197.221 400.375 203.027 402.616 208.821 404.876C211.752 406.02 214.685 407.162 217.593 408.362C220.354 409.502 223.06 410.77 225.826 411.896C228.587 413.02 231.392 413.839 234.264 414.617C235.602 414.979 236.936 415.371 238.228 415.876C238.877 416.131 239.512 416.417 240.129 416.742C240.687 417.037 241.486 417.384 241.879 417.898C242.382 418.557 241.946 419.733 241.821 420.474C241.676 421.333 241.525 422.19 241.367 423.046C241.046 424.797 240.701 426.543 240.33 428.283C239.59 431.764 238.749 435.224 237.817 438.658C237.639 439.309 238.649 439.587 238.826 438.936C240.533 432.652 241.924 426.282 242.98 419.856C243.078 419.26 243.232 418.624 243.088 418.023C242.938 417.394 242.465 416.956 241.952 416.601C240.761 415.778 239.387 415.185 238.033 414.688C235.289 413.678 232.402 413.146 229.635 412.212C226.707 411.223 223.887 409.954 221.059 408.717C218.165 407.45 215.231 406.282 212.294 405.121C206.296 402.752 200.268 400.461 194.241 398.168C187.679 395.672 181.031 393.316 174.118 391.999C173.46 391.873 173.178 392.882 173.84 393.008Z" fill="#401C14"/>
<path d="M213 226C213 226 215.793 225.194 218.815 224.97C222.603 224.69 224 225.09 224 225.09C224 225.09 223.271 222.94 220.082 223.001C216.895 223.064 213 226 213 226Z" fill="#211E14"/>
<path d="M225 230.829C225 230.829 222.667 228.03 219.665 228C216.663 227.971 214 231.018 214 231.018C214 231.018 214.82 231.82 219.084 231.985C223.452 232.154 225 230.829 225 230.829Z" fill="#F8A7A3"/>
<path d="M218.804 232.037C216.089 232.063 213.882 231.357 213.508 231.231L213.469 231.209C213.466 231.212 213.463 231.213 213.46 231.215C213.455 231.214 213.446 231.21 213.446 231.21C213.45 231.212 213.453 231.215 213.456 231.216C212.979 231.534 212 231.62 212 231.62C213.01 231.945 213.811 231.836 214.168 231.756C214.951 232.305 216.338 233.028 218.821 232.999C222.388 232.959 224 231 224 231C224 231 221.783 232.007 218.804 232.037Z" fill="#211E14"/>
<path d="M243 225C243 225 240.186 224.232 237.165 224.115C233.377 223.968 232 224.469 232 224.469C232 224.469 232.647 222.069 235.827 222.001C239.007 221.932 243 225 243 225Z" fill="#211E14"/>
<path d="M233 231C233 231 235.212 228.136 238.209 228.004C241.208 227.872 244 230.813 244 230.813C244 230.813 243.214 231.64 238.962 231.949C234.603 232.266 233 231 233 231Z" fill="#F8A7A3"/>
<path d="M245 230.35C245 230.35 244.019 230.305 243.532 230.007C243.535 230.005 243.539 230.003 243.541 230C243.541 230 243.532 230.003 243.528 230.005C243.525 230.003 243.521 230.003 243.519 230.001L243.48 230.023C243.111 230.165 240.935 230.955 238.225 231.036C235.25 231.125 233 230.209 233 230.209C233 230.209 234.681 232.096 238.243 231.996C240.723 231.926 242.08 231.151 242.841 230.572C243.201 230.639 244.004 230.715 245 230.35Z" fill="#211E14"/>
<path d="M226 242.209C226 242.209 227.663 242.948 229.022 242.998C230.382 243.048 232 242.124 232 242.124C232 242.124 230.734 242.027 229.217 242.002C227.7 241.977 226 242.209 226 242.209Z" fill="#F5746E"/>
<path d="M229.719 246.985C232.948 246.854 235 246.165 235 246.165C235 246.165 231.544 245.914 230.658 246.031C230.109 246.104 229.726 246.46 229.514 246.719C229.287 246.466 228.884 246.12 228.331 246.061C227.439 245.967 224 246.308 224 246.308C224 246.308 226.089 246.943 229.325 246.991C229.323 246.992 229.319 247 229.319 247C229.388 246.998 229.453 246.995 229.521 246.992C229.59 246.993 229.656 246.995 229.725 246.995C229.725 246.995 229.72 246.987 229.719 246.985Z" fill="#772F36"/>
<path d="M225 248C225 248 225.675 248.915 228.18 249.494C230.685 250.074 232.5 249.092 234 248.18C234 248.18 232.644 250.642 229.819 250.974C226.993 251.306 225.097 248.365 225 248Z" fill="#F5746E"/>
<path d="M224.714 225.204C224.714 225.204 225.957 227.701 226.656 231.49C227.355 235.281 226.773 238 226.773 238C226.773 238 226.089 227.279 221 225.007C221 225.007 223.791 224.942 224.714 225.204Z" fill="#F5746E"/>
</g>
<defs>
<filter id="filter0_d_15_2497" x="0" y="0" width="461.347" height="483" filterUnits="userSpaceOnUse" color-interpolation-filters="sRGB">
<feFlood flood-opacity="0" result="BackgroundImageFix"/>
<feColorMatrix in="SourceAlpha" type="matrix" values="0 0 0 0 0 0 0 0 0 0 0 0 0 0 0 0 0 0 127 0" result="hardAlpha"/>
<feOffset dy="4"/>
<feGaussianBlur stdDeviation="2"/>
<feComposite in2="hardAlpha" operator="out"/>
<feColorMatrix type="matrix" values="0 0 0 0 0 0 0 0 0 0 0 0 0 0 0 0 0 0 0.25 0"/>
<feBlend mode="normal" in2="BackgroundImageFix" result="effect1_dropShadow_15_2497"/>
<feBlend mode="normal" in="SourceGraphic" in2="effect1_dropShadow_15_2497" result="shape"/>
</filter>
<clipPath id="clip0_15_2497">
<rect width="169.755" height="166" fill="white" transform="translate(287.592)"/>
</clipPath>
</defs>
</svg>
