<svg width="26" height="26" viewBox="0 0 26 26" fill="none" xmlns="http://www.w3.org/2000/svg">
<path fill-rule="evenodd" clip-rule="evenodd" d="M14.6873 5.99538C13.7442 5.09041 12.2551 5.09041 11.312 5.99538L6.30004 10.8047C6.17724 10.9225 6.09464 11.076 6.06395 11.2434C5.46364 14.5171 5.41933 17.8685 5.93287 21.1569L6.05477 21.9374H9.27927V15.2085C9.27927 14.7598 9.64303 14.396 10.0918 14.396H15.9076C16.3563 14.396 16.7201 14.7598 16.7201 15.2085V21.9374H19.9446L20.0664 21.1569C20.58 17.8685 20.5357 14.5171 19.9354 11.2434C19.9047 11.076 19.8221 10.9225 19.6993 10.8047L14.6873 5.99538ZM10.1869 4.82287C11.7588 3.31458 14.2405 3.31458 15.8124 4.82287L20.8244 9.63214C21.1933 9.98617 21.4415 10.4473 21.5337 10.9503C22.167 14.4035 22.2137 17.9388 21.672 21.4076L21.4762 22.6616C21.3952 23.1801 20.9485 23.5624 20.4237 23.5624H15.9076C15.4588 23.5624 15.0951 23.1987 15.0951 22.7499V16.021H10.9043V22.7499C10.9043 23.1987 10.5405 23.5624 10.0918 23.5624H5.57565C5.05079 23.5624 4.60414 23.1801 4.52316 22.6616L4.32733 21.4076C3.78561 17.9388 3.83236 14.4035 4.4656 10.9503C4.55783 10.4473 4.806 9.98617 5.17495 9.63214L10.1869 4.82287Z" fill="#0C4E42"/>
</svg>
