<svg width="23" height="15" viewBox="0 0 23 15" fill="none" xmlns="http://www.w3.org/2000/svg">
<path d="M14.5856 8.53154C14.3269 8.20809 13.8549 8.15565 13.5315 8.41441L12.25 9.43957V6.00006C12.25 5.58585 11.9142 5.25006 11.5 5.25006C11.0858 5.25006 10.75 5.58585 10.75 6.00006V9.43961L9.46849 8.41441C9.14505 8.15565 8.67308 8.20809 8.41432 8.53154C8.15556 8.85499 8.208 9.32696 8.53145 9.58571L11.0287 11.5835C11.1575 11.6877 11.3215 11.7501 11.5 11.7501C11.6801 11.7501 11.8453 11.6866 11.9746 11.5809L14.4685 9.58571C14.7919 9.32695 14.8444 8.85499 14.5856 8.53154Z" fill="#FAFFFD"/>
<path fill-rule="evenodd" clip-rule="evenodd" d="M7.96038 3.28393C8.90301 1.8274 10.5427 0.861816 12.4091 0.861816C15.2228 0.861816 17.524 3.05632 17.6944 5.82714C17.7506 5.825 17.807 5.82392 17.8636 5.82392C20.2862 5.82392 22.25 7.78776 22.25 10.2103C22.25 12.6328 20.2862 14.5966 17.8636 14.5966L6.5 14.5966C3.32436 14.5966 0.75 12.0223 0.75 8.84665C0.75 5.67101 3.32436 3.09665 6.5 3.09665C7.00391 3.09665 7.49348 3.16164 7.96038 3.28393ZM12.4091 2.36182C10.904 2.36182 9.6021 3.23779 8.98806 4.51108C8.81801 4.86369 8.40536 5.0262 8.04054 4.88424C7.5639 4.69877 7.04477 4.59665 6.5 4.59665C4.15279 4.59665 2.25 6.49944 2.25 8.84665C2.25 11.1939 4.15279 13.0966 6.5 13.0966L17.8627 13.0966C19.4568 13.0966 20.75 11.8044 20.75 10.2103C20.75 8.61619 19.4577 7.32392 17.8636 7.32392C17.6042 7.32392 17.3539 7.35795 17.1164 7.42139C16.8762 7.48555 16.6198 7.42649 16.4319 7.26372C16.2439 7.10095 16.1489 6.85562 16.1781 6.60871C16.1955 6.46095 16.2045 6.31032 16.2045 6.15727C16.2045 4.0611 14.5053 2.36182 12.4091 2.36182Z" fill="#FAFFFD"/>
</svg>
