<svg width="424" height="497" viewBox="0 0 424 497" fill="none" xmlns="http://www.w3.org/2000/svg">
<path d="M361.906 446C361.906 446 379.089 394.108 363.382 372.53C347.675 350.952 335.224 341.429 343.093 324.029C350.964 306.63 347.46 278.188 326.662 269.647C305.864 261.106 315.52 228.949 292.493 210.486C269.466 192.022 250.692 200.373 239.652 177.598C229.956 157.595 209.841 138.74 189.711 158.124C185.297 162.374 182.336 167.915 180.797 173.909C179.188 180.178 173.565 191.035 154.576 201.891C125.363 218.592 136.946 229.357 125.212 248.648C113.478 267.938 75.862 258.232 61.7488 295.238C47.6359 332.245 78.0954 344.667 75.6241 366.791C73.1532 388.914 58.521 400.978 67.4344 445.39" stroke="#EBFCF4" stroke-opacity="0.4" stroke-miterlimit="10"/>
<path d="M371.053 446C371.053 446 391.155 388.724 374.206 366.97C357.257 345.217 343.821 335.617 352.313 318.077C360.805 300.536 357.024 271.864 334.583 263.254C312.14 254.642 322.56 222.225 297.713 203.612C272.866 184.998 256.235 186.778 244.322 163.819C233.86 143.654 208.529 131.285 186.807 150.826C182.045 155.111 178.85 160.696 177.189 166.739C175.452 173.06 169.385 184.003 148.895 194.947C117.372 211.785 129.871 222.636 117.21 242.083C104.549 261.531 69.5497 254.861 53.8972 287.433C36.443 323.755 63.5543 338.356 60.8874 360.659C58.221 382.961 51.5194 400.666 61.1374 445.439" stroke="#EBFCF4" stroke-opacity="0.4" stroke-miterlimit="10"/>
<path d="M193.658 179.757C189.545 183.815 186.786 189.106 185.351 194.83C183.851 200.816 178.612 211.182 160.918 221.548C133.695 237.495 144.488 247.774 133.554 266.193C122.62 284.613 91.4715 270.483 78.3199 305.819C65.1685 341.155 95.4909 357.106 93.1878 378.23C90.8848 399.354 72.7824 400.593 81.0882 443H355.495C355.495 443 370.132 405.087 355.495 384.482C340.858 363.878 329.255 354.785 336.587 338.172C343.921 321.559 340.657 294.401 321.276 286.245C301.895 278.089 310.893 247.384 289.436 229.755C267.978 212.124 250.484 220.098 240.195 198.351C231.16 179.252 212.416 161.248 193.658 179.757V179.757Z" stroke="#0B7A6A" stroke-miterlimit="10"/>
<path d="M300.523 285.462C298.79 284.499 296.515 285.195 296.145 284.656C295.776 284.116 298.012 282.451 298.73 280.703C299.45 278.956 298.642 274.426 295.696 276.56C292.751 278.693 292.617 282.329 292.617 282.329C292.617 282.329 292.57 282.529 292.531 282.862C291.532 280.614 292.067 277.511 292.074 277.476C292.104 277.307 291.987 277.146 291.81 277.118C291.626 277.087 291.466 277.201 291.437 277.37C291.411 277.503 290.982 279.989 291.62 282.23C290.071 280.523 287.814 279.485 287.69 279.428C287.53 279.355 287.335 279.421 287.258 279.576C287.182 279.731 287.25 279.916 287.414 279.989C287.448 280.004 290.659 281.482 291.915 283.705C291.527 283.436 291.256 283.298 291.256 283.298C291.256 283.298 288.292 281.02 284.681 281.76C281.07 282.5 284.125 286.046 285.977 286.666C287.83 287.286 290.608 286.754 290.793 287.375C290.978 287.995 288.94 289.189 288.571 291.073C288.2 292.958 290.516 294.913 291.812 294.999C292.986 295.077 294.762 291.305 294.744 288.486C297.017 290.2 300.838 291.237 301.512 290.375C302.291 289.379 302.257 286.424 300.523 285.462Z" fill="#EF8E83"/>
<path d="M111.731 314.752C111.423 313.213 109.821 312.256 109.959 311.746C110.098 311.236 112.271 311.644 113.711 311.119C115.15 310.592 117.499 307.66 114.673 307.089C111.846 306.518 109.556 308.412 109.556 308.412C109.556 308.412 109.41 308.493 109.186 308.651C110.042 306.844 112.216 305.476 112.24 305.461C112.359 305.387 112.396 305.23 112.322 305.111C112.245 304.986 112.094 304.954 111.975 305.028C111.881 305.086 110.141 306.183 109.1 307.773C109.343 305.937 108.81 304.05 108.78 303.946C108.742 303.813 108.602 303.734 108.467 303.774C108.333 303.812 108.255 303.953 108.295 304.088C108.302 304.117 109.061 306.803 108.353 308.746C108.316 308.374 108.26 308.138 108.26 308.138C108.26 308.138 108.12 305.163 105.8 303.445C103.479 301.726 102.894 305.444 103.473 306.868C104.053 308.291 105.814 309.634 105.53 310.079C105.247 310.524 103.465 309.976 102.121 310.781C100.779 311.586 100.782 314.006 101.4 314.814C101.96 315.546 105.183 314.542 106.895 313C107.022 315.265 108.366 318.071 109.241 317.999C110.253 317.915 112.04 316.293 111.731 314.752Z" fill="#EF8E83"/>
<path d="M208.731 203.752C208.424 202.213 206.822 201.256 206.96 200.746C207.098 200.235 209.271 200.644 210.711 200.119C212.149 199.592 214.499 196.66 211.673 196.089C208.847 195.518 206.557 197.411 206.557 197.411C206.557 197.411 206.41 197.493 206.186 197.65C207.043 195.844 209.216 194.476 209.24 194.46C209.359 194.386 209.396 194.23 209.323 194.111C209.246 193.986 209.093 193.954 208.975 194.027C208.881 194.085 207.14 195.182 206.101 196.772C206.343 194.937 205.81 193.048 205.78 192.946C205.741 192.812 205.601 192.734 205.467 192.773C205.333 192.811 205.255 192.953 205.295 193.087C205.303 193.116 206.061 195.803 205.352 197.745C205.316 197.373 205.261 197.138 205.261 197.138C205.261 197.138 205.12 194.163 202.8 192.445C200.48 190.726 199.895 194.444 200.473 195.867C201.052 197.291 202.814 198.633 202.531 199.078C202.248 199.524 200.465 198.976 199.122 199.78C197.778 200.586 197.782 203.006 198.4 203.813C198.96 204.545 202.182 203.541 203.895 202C204.023 204.265 205.366 207.071 206.242 206.999C207.253 206.915 209.04 205.292 208.731 203.752Z" fill="#EF8E83"/>
<path d="M165.803 246.596C165.474 247.04 164.848 247.132 164.404 246.803C163.96 246.474 163.868 245.848 164.197 245.404C164.526 244.961 165.153 244.868 165.596 245.197C166.039 245.526 166.132 246.152 165.803 246.596Z" fill="#FCF6A0"/>
<path d="M167.803 242.596C167.474 243.039 166.848 243.132 166.404 242.803C165.96 242.474 165.868 241.848 166.197 241.404C166.526 240.96 167.152 240.868 167.596 241.197C168.039 241.526 168.132 242.153 167.803 242.596Z" fill="#FCF6A0"/>
<path d="M170.803 248.596C170.474 249.039 169.847 249.132 169.404 248.803C168.961 248.474 168.868 247.848 169.197 247.404C169.525 246.961 170.152 246.868 170.596 247.197C171.04 247.526 171.132 248.152 170.803 248.596Z" fill="#FCF6A0"/>
<path d="M289.803 257.596C289.474 258.04 288.848 258.132 288.404 257.803C287.96 257.474 287.868 256.847 288.197 256.404C288.526 255.961 289.153 255.868 289.596 256.197C290.039 256.526 290.132 257.152 289.803 257.596Z" fill="#FCF6A0"/>
<path d="M292.803 253.596C292.474 254.039 291.848 254.132 291.404 253.803C290.961 253.474 290.868 252.848 291.197 252.404C291.526 251.96 292.152 251.868 292.597 252.197C293.039 252.526 293.132 253.153 292.803 253.596Z" fill="#FCF6A0"/>
<path d="M295.803 259.596C295.473 260.04 294.848 260.132 294.404 259.803C293.96 259.474 293.868 258.847 294.197 258.404C294.527 257.961 295.153 257.868 295.595 258.197C296.04 258.526 296.132 259.152 295.803 259.596Z" fill="#FCF6A0"/>
<path d="M245.803 219.596C245.474 220.039 244.848 220.132 244.405 219.803C243.96 219.474 243.868 218.847 244.197 218.404C244.526 217.961 245.152 217.868 245.596 218.197C246.04 218.527 246.132 219.152 245.803 219.596Z" fill="#FCF6A0"/>
<path d="M248.803 215.596C248.474 216.039 247.848 216.132 247.404 215.803C246.961 215.474 246.868 214.848 247.197 214.404C247.525 213.961 248.152 213.868 248.596 214.197C249.039 214.526 249.133 215.152 248.803 215.596Z" fill="#FCF6A0"/>
<path d="M251.803 222.596C251.474 223.04 250.848 223.132 250.404 222.803C249.96 222.474 249.868 221.847 250.197 221.404C250.526 220.961 251.153 220.868 251.596 221.197C252.04 221.526 252.132 222.152 251.803 222.596Z" fill="#FCF6A0"/>
<path d="M258.363 273.771C257.937 273.419 257.878 272.789 258.229 272.364C258.581 271.937 259.21 271.878 259.636 272.229C260.062 272.581 260.123 273.211 259.771 273.637C259.42 274.062 258.789 274.123 258.363 273.771Z" fill="#FCF6A0"/>
<path d="M261.364 276.771C260.938 276.419 260.877 275.789 261.229 275.363C261.58 274.937 262.211 274.878 262.636 275.229C263.062 275.58 263.123 276.211 262.771 276.637C262.42 277.062 261.789 277.123 261.364 276.771Z" fill="#FCF6A0"/>
<path d="M255.363 278.771C254.937 278.419 254.878 277.789 255.229 277.363C255.58 276.937 256.21 276.878 256.636 277.229C257.062 277.581 257.123 278.211 256.771 278.637C256.419 279.062 255.788 279.123 255.363 278.771Z" fill="#FCF6A0"/>
<path d="M124 294C124 294.552 123.553 295 123.001 295C122.448 295 122 294.552 122 294C122 293.448 122.448 293 123.001 293C123.553 293 124 293.448 124 294Z" fill="white"/>
<path d="M283 232.5C283 233.329 282.328 234 281.5 234C280.671 234 280 233.329 280 232.5C280 231.672 280.671 231 281.5 231C282.328 231 283 231.672 283 232.5Z" fill="#FCF6A0"/>
<path d="M209 183C209 183.552 208.552 184 208 184C207.447 184 207 183.552 207 183C207 182.449 207.447 182 208 182C208.552 182 209 182.449 209 183Z" fill="white"/>
<path d="M278 313.5C278 314.328 277.329 315 276.5 315C275.672 315 275 314.328 275 313.5C275 312.672 275.672 312 276.5 312C277.329 312 278 312.672 278 313.5Z" fill="#FCF6A0"/>
<path d="M191 212.5C191 213.328 190.329 214 189.5 214C188.671 214 188 213.328 188 212.5C188 211.672 188.671 211 189.5 211C190.329 211 191 211.672 191 212.5Z" fill="#FCF6A0"/>
<path d="M44.0871 436H398.61C401.22 436 401.938 439.587 399.523 440.577C375.811 450.294 312.928 472.308 224.797 474.822C142.844 477.16 74.3738 455.884 42.6384 443.875C38.3977 442.27 39.5512 436 44.0871 436Z" fill="#0B7A6A"/>
<path d="M162.939 360.803C162.153 346.806 147.451 343.991 145.981 340.509C144.511 337.025 142.137 329.901 131.551 326.541C120.966 323.181 114.379 329.391 108.447 325.588C102.515 321.784 97.236 318.639 90.1663 323.423C83.0957 328.208 78.0852 326.448 67.8778 325.295C57.6707 324.142 49.5643 333.963 49.564 333.964C45.5717 337.619 49.4226 342.246 58.8346 344.515C72.1246 347.72 68.3297 356.333 75.4138 359.822C82.4979 363.313 90.9179 359.855 96.2563 364.078C101.596 368.302 101.192 375.963 107.8 377.761C114.407 379.559 122.202 375.181 125.982 377.772C129.763 380.364 131.822 388.042 136.334 390.692C140.847 393.344 153.616 394 153.616 394L156.7 393.257C156.7 393.257 163.724 374.801 162.939 360.803Z" fill="#0B7A6A"/>
<path d="M154 389C154 389 150.689 360.614 131.12 347.684C111.551 334.753 79.4572 334.445 69.7286 333.909C60 333.373 60 333.373 60 333.373C60 333.373 99.2746 330.881 118.748 338.783C145.492 349.633 153.112 367.359 154 389Z" fill="#FFF9F0"/>
<path d="M139.64 359.544C139.64 359.544 123.283 344.855 120.819 332.631C118.355 320.408 125.586 315.841 120.717 309.653C115.85 303.463 118.025 292.357 123.265 289.539C128.504 286.721 130.65 280.57 131.164 272.065C131.678 263.562 138.126 260.399 140.123 262.758C145.625 269.253 142.889 275.896 151.303 280.027C159.718 284.16 162.701 292.717 160.59 299.723C158.479 306.731 167.757 308.966 173.902 319.663C180.045 330.359 175.595 339.302 172.988 346.01C170.382 352.718 177.605 360.802 174.983 368.535C172.36 376.269 154.258 389 154.258 389C154.258 389 145.502 385.747 139.64 359.544Z" fill="#ADD57F"/>
<path d="M139 274C139 274 144.429 294.896 150.968 321.836C157.505 348.775 158.606 382 158.606 382C158.606 382 162.391 357.888 157.487 335.26C152.583 312.632 139.415 277.484 139 274Z" fill="#FFF9F0"/>
<path d="M141.293 370.021C139.06 358.534 150.315 353.247 150.785 350.128C151.256 347.009 151.708 340.757 159.539 335.871C167.37 330.984 173.941 334.661 177.937 330.367C181.932 326.076 185.536 322.45 192.205 324.873C198.873 327.295 202.545 324.845 210.523 321.822C218.501 318.799 227.034 325.085 227.034 325.086C230.995 327.224 228.843 331.757 221.733 335.521C211.694 340.836 216.511 347.026 211.524 351.301C206.538 355.576 199.054 354.503 195.622 359.013C192.19 363.524 194.082 369.639 189.133 372.447C184.184 375.256 177.016 373.309 174.504 376.18C171.992 379.051 171.905 385.685 168.817 388.755C165.728 391.824 155.588 394.969 155.588 394.969L152.952 395C152.952 395 143.524 381.507 141.293 370.021Z" fill="#0B7A6A"/>
<path d="M154.461 391C154.461 391 151.303 367.08 164.461 352.445C177.619 337.809 203.495 330.908 211.247 328.454C219 326 219 326 219 326C219 326 186.745 332.095 172.63 342.596C153.245 357.018 150.73 373.103 154.461 391Z" fill="#FFF9F0"/>
<path d="M146.079 391.795C146.079 391.795 124.617 386.011 113.348 391.084C102.079 396.157 100 403.129 100 403.129C100 403.129 104.826 404.79 114.004 403.524C123.182 402.258 124.557 396.907 130.956 399.453C137.356 401.998 139.456 404.45 144.844 402.93C150.231 401.411 153 395.733 153 395.733L146.079 391.795Z" fill="#8A9375"/>
<path d="M157.341 392.103C157.341 392.103 163.207 385.586 171.713 386.021C180.22 386.454 181.713 389.313 185.882 389.495C190.05 389.678 192.352 388.411 198.041 390.284C203.671 392.136 207 394.675 207 394.675C207 394.675 201.216 402.744 192.211 400.655C183.206 398.564 176.393 397.218 173.447 400.126C170.502 403.035 152 397.734 152 397.734L157.341 392.103Z" fill="#8A9375"/>
<path d="M283.023 365.508C283.023 365.508 295.216 373.285 320.293 377.63C345.371 381.976 355.954 374.886 357.334 371.569C358.715 368.253 354.574 366.423 338.239 363.45C321.905 360.476 317.533 356.817 325.585 355.903C333.638 354.986 344.911 362.077 354.574 362.077C364.237 362.077 370.909 356.969 371.138 353.462C371.369 349.955 342.15 349.04 338.469 344.008C334.788 338.976 357.411 344.237 367.151 345.609C376.89 346.981 380.801 339.434 380.111 336.918C379.421 334.402 355.724 333.587 353.423 330.107C351.123 326.626 363.317 327.868 373.899 330.107C384.482 332.343 389.774 324.568 388.394 322.738C387.013 320.908 367.457 319.535 365.386 316.104C363.317 312.674 375.97 313.588 382.412 314.961C388.853 316.333 395.755 310.157 393.455 308.099C391.154 306.04 376.66 305.355 376.2 302.382C375.74 299.408 395.51 301.009 393.908 296.664C392.305 292.318 386.783 288.251 378.271 288.112C369.758 287.972 361.936 296.892 357.334 294.147C352.733 291.403 368.608 284.77 364.466 282.254C360.325 279.738 351.123 281.111 347.902 285.456C344.681 289.802 344.45 297.121 341 296.892C337.549 296.664 343.531 286.371 340.54 284.084C337.549 281.797 329.726 286.6 328.116 291.175C326.506 295.749 328.346 304.897 325.125 305.355C321.905 305.813 325.9 290.716 323.096 289.344C320.293 287.972 311.321 296.892 311.091 302.382C310.861 307.871 313.852 316.518 309.02 317.912C304.189 319.307 305.109 302.152 301.429 300.552C297.747 298.951 290.385 309.441 291.535 318.034C292.686 326.626 295.216 333.656 291.766 333.686C288.314 333.716 285.784 322.738 283.023 320.908C280.262 319.078 277.776 323.652 277.063 335.317C276.351 346.981 281.886 362.648 283.023 365.508Z" fill="#0B7A6A"/>
<path d="M278.412 384.033C278.412 384.033 291.277 350.771 306.242 332.34C321.206 313.908 350.086 302.794 364 302C364 302 331.081 308.167 309.917 334.549C288.753 360.929 280.775 397 280.775 397L275 395.855L278.412 384.033Z" fill="#FFF9F0"/>
<path d="M44.9931 432.463C44.9931 432.463 46.8197 425.786 55.7878 422.692C64.7558 419.597 66.0846 427.904 71.7313 427.578C77.3777 427.251 80 438 80 438H43L44.9931 432.463Z" fill="#8A9375"/>
<path d="M66.1924 437.539C65.6723 434.943 64.8752 432.019 63.8831 428.893C65.5076 425.724 70.1083 415.663 69.9981 403.482C69.8641 388.7 59.6601 373.196 59.6601 373.196C59.6601 373.196 56.9808 398.49 61.4215 421.756C58.3491 413.429 54.4092 404.396 50.7603 396.503C52.3131 393.238 55.106 386.211 55.0843 377.88C55.0543 366.355 47.1779 354.217 47.1779 354.217C47.1779 354.217 45.0638 372.989 48.072 390.774C45.3827 385.125 43.0617 380.479 41.6586 377.712C41.4109 373.81 40.4514 366.971 36.9197 360.26C31.5575 350.07 18.9647 343 18.9647 343C18.9647 343 26.893 363.471 39.3142 378.247C40.4372 380.462 42.3258 384.235 44.5855 388.927C42.8609 386.387 40.6562 383.684 37.8827 381.23C29.2713 373.61 15 371.482 15 371.482C15 371.482 31.2203 389.558 49.1422 398.613C51.0033 402.669 52.9218 406.985 54.7517 411.329C52.6821 408.505 50.1439 405.584 47.0753 402.904C35.9665 393.202 17.6425 390.591 17.6425 390.591C17.6425 390.591 37.485 412.421 59.8041 424.161C61.6504 429.285 63.1221 434.06 63.9126 438L66.1924 437.539Z" fill="#ADD57F"/>
<path d="M361.913 431H373.214C373.214 431 378.326 421.582 390.703 415.123C403.079 408.665 404.425 400.874 404.963 397.234C405.501 393.595 400.12 395.479 392.048 400.323C383.977 405.166 381.824 416.633 378.326 416.417C374.828 416.2 376.98 403.017 384.515 398.71C392.048 394.402 397.967 383.908 399.851 377.18C401.734 370.452 386.397 375.297 379.133 383.369C371.869 391.442 372.944 411.158 367.563 413.678C362.182 416.2 371.599 399.65 360.702 392.898C356.333 390.191 355.185 397.933 356.532 407.739C357.878 417.545 364.604 422.12 361.913 431Z" fill="#8A9375"/>
<path d="M343 436.815C343 436.815 363.058 439 378.551 439C394.042 439 400 437.61 400 437.61C400 437.61 396.624 431.25 386.693 428.865C376.763 426.479 375.771 432.442 371.401 428.865C367.031 425.287 359.086 422.703 352.136 424.69C345.184 426.678 343 436.815 343 436.815Z" fill="#D2C575"/>
<path d="M327.134 391.547C327.134 391.547 331.793 390.935 333.656 391.006C335.516 391.077 339.251 392.321 341.367 392.716C343.483 393.111 344.545 393.203 344.48 393.516C344.415 393.828 343.692 394.59 341.338 394.868C338.982 395.147 336.985 394.494 335.733 394.446C334.483 394.398 334.188 395.123 334.188 395.123C334.188 395.123 335.389 398.478 339.461 399.261C343.533 400.046 345.154 399.477 345.442 398.91C345.731 398.343 344.072 394.394 344.556 392.941C345.038 391.488 345.726 391.619 346.54 393.962C347.356 396.303 348.812 398.564 348.753 400.085C348.695 401.607 346.034 402.872 346.034 402.872C346.034 402.872 351.116 402.381 352.605 403.803C354.095 405.224 351.058 405.215 348.654 405.387C346.25 405.558 343.987 406.209 342.556 405.997C342.556 405.997 349.002 406.031 350.24 407.076C351.478 408.12 348.896 408.757 346.449 408.665C344.001 408.573 340.68 409.025 340.148 409.005C340.148 409.005 345.872 409.799 345.657 411.209C345.442 412.619 344.416 411.635 341.262 411.884C338.109 412.132 335.502 412.034 332.555 411.081C329.608 410.131 318 401.042 318 401.042L327.134 391.547Z" fill="#FFC7A2"/>
<path d="M137.042 50L137.736 64.8328L146.789 66.3357L137.867 67.1851L136.781 84L135.652 67.4029L126.817 66.3357L135.696 65.0506L137.042 50Z" fill="#FCF6A0"/>
<path d="M103.102 180L103.797 194.833L112.837 196.336L103.928 197.185L102.841 214L101.711 197.403L92.8662 196.336L101.754 195.051L103.102 180Z" fill="#FCF6A0"/>
<path d="M253.323 141L253.844 151.906L260.624 153.012L253.942 153.636L253.127 166L252.28 153.796L245.646 153.012L252.312 152.067L253.323 141Z" fill="#FCF6A0"/>
<path d="M10.2355 57L10.9309 71.8328L19.9712 73.3357L11.0613 74.1851L9.97475 91L8.84471 74.4029L0 73.3357L8.88818 72.0506L10.2355 57Z" fill="#FCF6A0"/>
<path d="M368.697 219L369.393 233.833L378.455 235.336L369.523 236.185L368.436 253L367.306 236.403L358.483 235.336L367.35 234.051L368.697 219Z" fill="#FCF6A0"/>
<path d="M29.1865 319L29.8819 333.855L38.9439 335.357L30.0122 336.207L28.9257 353L27.7956 336.425L18.9727 335.357L27.8391 334.072L29.1865 319Z" fill="#FCF6A0"/>
<path d="M380.702 327L381.397 341.855L390.438 343.357L381.528 344.207L380.441 361L379.311 344.425L370.466 343.357L379.354 342.072L380.702 327Z" fill="#FCF6A0"/>
<path d="M369.137 389L369.674 399.903L376.458 401.026L369.764 401.643L368.958 414L368.107 401.797L361.479 401.026L368.129 400.079L369.137 389Z" fill="#FCF6A0"/>
<g clip-path="url(#clip0_15_2598)">
<path d="M360.159 1.53677C327.887 5.93719 301.844 25.0299 290.217 52.8144C283.118 69.8706 281.597 91.109 286.269 109.074C289.384 121.185 294.817 130.967 303.438 139.95C312.819 149.769 323.323 156.279 337.703 161.225C347.518 164.607 354.074 165.734 365.484 165.953C378.414 166.244 386.311 165.225 396.018 162.061C406.377 158.679 416.663 151.915 426.515 142.132C442.851 125.803 452.413 105.692 453.282 85.6903C454.115 66.9976 446.907 46.8502 433.651 30.7759C430.826 27.3574 423.98 20.6295 420.611 17.9383C409.419 9.10112 395.873 3.28238 382.326 1.5004C377.038 0.809418 365.266 0.845795 360.159 1.53677ZM382.181 2.22774C398.662 4.40977 414.599 12.5924 427.348 25.3936C443.104 41.2497 452.304 62.5245 452.341 83.2174C452.341 90.7453 450.783 99.2916 447.958 107.329C446.002 112.82 446.183 112.638 444.336 111.002C442.452 109.256 439.555 107.911 437.164 107.62C428.797 106.638 417.062 115.548 412.969 125.949C412.1 128.131 411.991 128.931 411.955 132.786C411.955 137.186 411.955 137.186 413.367 140.059C414.345 142.059 415.468 143.587 417.134 145.26C418.438 146.533 419.344 147.696 419.163 147.805C418.945 147.951 417.496 149.078 415.903 150.278C401.922 161.079 388.339 165.371 368.345 165.334C360.847 165.334 356.103 164.934 350.307 163.771L346.396 162.97L345.816 160.788C345.49 159.588 344.476 157.043 343.57 155.152C342.665 153.26 341.397 150.206 340.781 148.424C338.282 141.259 335.674 137.332 332.269 135.695C330.422 134.822 326.692 134.531 325.098 135.186C324.482 135.441 322.635 136.459 321.077 137.404C317.528 139.55 316.477 139.841 312.348 139.805C310.139 139.805 308.581 139.986 307.458 140.387L305.829 141.005L304.126 139.223C302.569 137.586 302.424 137.295 302.206 135.004C301.844 131.586 302.098 130.24 303.836 126.567C306.915 120.057 305.973 114.857 301.482 113.111C299.526 112.384 296.918 112.566 295.542 113.584C295.035 113.984 293.948 115.257 293.115 116.457C292.318 117.621 291.413 118.639 291.123 118.712C290.217 118.894 287.465 110.638 286.125 103.692C284.458 95.1458 284.205 82.4536 285.545 73.6892C288.37 55.1055 295.977 39.7223 308.545 27.1392C320.136 15.5017 333.791 8.04648 350.561 4.08246C354.002 3.28238 359.942 2.2641 363.238 1.9368C366.896 1.53676 378.414 1.7186 382.181 2.22774ZM440.786 109.693C442.561 110.602 444.626 112.457 444.915 113.329C445.422 114.966 438.504 126.676 432.854 133.695C429.196 138.168 422.459 145.078 421.843 144.896C420.792 144.569 417.931 140.168 417.207 137.841C414.961 130.495 417.677 122.567 424.813 115.73C428.254 112.457 431.007 110.602 434.23 109.438C436.874 108.493 438.504 108.529 440.786 109.693ZM430.536 110.165C425.574 112.966 420.177 118.493 417.75 123.33C416.048 126.712 415.396 129.258 415.396 132.822C415.396 137.659 416.844 141.296 420.213 144.86C421.191 145.914 421.227 146.06 420.684 146.278C420.213 146.46 419.452 145.951 417.895 144.387C411.918 138.459 411.303 130.095 416.156 121.803C418.692 117.475 425.646 111.366 430.065 109.584C432.492 108.602 432.709 108.893 430.536 110.165ZM301.265 113.838C303.474 115.002 303.221 115.33 300.214 115.33C296.81 115.33 296.049 115.766 293.876 118.966C292.21 121.403 291.703 121.694 291.377 120.53C291.232 119.912 291.377 119.548 291.92 119.184C292.318 118.894 293.296 117.73 294.093 116.566C294.854 115.402 295.868 114.202 296.303 113.911C297.317 113.184 299.925 113.148 301.265 113.838ZM302.279 116.202C304.271 117.112 304.669 117.984 304.488 120.93C304.38 122.821 303.981 124.094 302.605 127.076C300.975 130.604 300.903 130.967 301.011 133.368L301.12 135.913L300.287 134.895C298.729 132.968 294.383 126.349 293.332 124.239C292.282 122.167 292.282 122.13 293.006 121.476C293.405 121.112 294.057 120.239 294.491 119.548C296.737 115.766 299.091 114.748 302.279 116.202ZM331.473 136.277C332.197 136.677 332.813 137.004 332.813 137.077C332.813 137.113 331.545 137.113 330.024 137.041C326.945 136.895 326.836 136.932 321.222 140.277L318.542 141.878H314.521C312.058 141.914 310.03 142.096 309.197 142.423C307.966 142.859 307.784 142.859 307.096 142.241L306.336 141.55L307.35 141.005C308.038 140.641 309.74 140.423 312.674 140.35C317.455 140.205 318.325 139.95 322.961 137.004C324.229 136.204 325.714 135.477 326.221 135.404C327.742 135.15 329.951 135.55 331.473 136.277ZM331.799 137.914C335.457 139.15 337.087 141.478 339.876 149.296C340.6 151.369 342.013 154.715 342.991 156.715C344.512 159.879 345.236 162.425 344.548 162.425C344.44 162.425 341.977 161.625 339.043 160.643C327.923 156.897 318.904 152.06 310.646 145.369C309.523 144.46 308.581 143.587 308.581 143.441C308.509 142.896 311.117 142.423 314.34 142.423C318.469 142.423 319.737 142.059 323.214 139.805C327.199 137.223 328.792 136.859 331.799 137.914Z" fill="#EBFCF4"/>
<path d="M302.279 116.202C304.271 117.112 304.669 117.984 304.488 120.93C304.38 122.821 303.981 124.094 302.605 127.076C300.975 130.604 300.903 130.967 301.011 133.368L301.12 135.913L300.287 134.895C298.729 132.968 294.383 126.349 293.332 124.239C292.282 122.167 292.282 122.13 293.006 121.476C293.405 121.112 294.057 120.239 294.491 119.548C296.737 115.766 299.091 114.748 302.279 116.202Z" fill="#EBFCF4"/>
<path d="M331.799 137.914C335.457 139.15 337.087 141.478 339.876 149.296C340.6 151.369 342.013 154.715 342.991 156.715C344.512 159.879 345.236 162.425 344.548 162.425C344.44 162.425 341.977 161.625 339.043 160.643C327.923 156.897 318.904 152.06 310.646 145.369C309.523 144.46 308.581 143.587 308.581 143.441C308.509 142.896 311.117 142.423 314.34 142.423C318.469 142.423 319.737 142.059 323.214 139.805C327.199 137.223 328.792 136.859 331.799 137.914Z" fill="#EBFCF4"/>
<path d="M440.786 109.693C442.561 110.602 444.626 112.457 444.915 113.329C445.422 114.966 438.504 126.676 432.854 133.695C429.196 138.168 422.459 145.078 421.843 144.896C420.792 144.569 417.931 140.168 417.207 137.841C414.961 130.495 417.677 122.567 424.813 115.73C428.254 112.457 431.007 110.602 434.23 109.438C436.874 108.493 438.504 108.529 440.786 109.693Z" fill="#EBFCF4"/>
<path d="M347.409 15.4506C338.703 17.4121 330.181 23.5873 324.585 32.0146C316.794 43.7837 315.66 49.4141 320.232 53.991C323.634 57.4055 327.987 57.914 332.595 55.5166C334.9 54.2816 341.922 47.8884 354.468 35.5744C361.235 28.927 362.478 27.1108 362.478 23.8415C362.442 17.4847 355.565 13.6343 347.409 15.4506ZM356.48 16.7582C358.235 17.5937 358.235 17.63 357.175 17.739C349.932 18.3929 341.922 22.3522 336.216 28.0552C332.998 31.2881 331.205 33.6492 328.133 38.7346C323.744 45.9995 322.537 50.9034 324.292 54.3905C324.731 55.2623 325.024 55.9525 324.914 55.9525C324.219 55.9525 321.695 54.2452 320.671 53.0465C318.33 50.3222 318.074 47.053 319.83 42.3671C320.818 39.8244 324.658 33.2496 327.218 29.7988C334.9 19.3736 348.981 13.0895 356.48 16.7582ZM359.625 19.1557C361.6 21.4078 361.893 24.4954 360.467 27.6193C359.698 29.2539 357.979 31.1428 350.664 38.2624C333.985 54.5722 331.571 56.4974 328.06 56.2431C326.633 56.1341 326.414 55.9888 325.646 54.5358C324 51.4482 324.731 46.6897 327.621 41.4226C332.888 31.833 339.033 25.2945 346.055 21.771C351.871 18.9014 358.272 17.6664 359.625 19.1557Z" fill="#EBFCF4"/>
<path d="M359.625 19.1557C361.6 21.4078 361.893 24.4954 360.467 27.6193C359.698 29.2539 357.979 31.1428 350.664 38.2624C333.985 54.5722 331.571 56.4974 328.06 56.2431C326.633 56.1341 326.414 55.9888 325.646 54.5358C324 51.4482 324.731 46.6897 327.621 41.4226C332.888 31.833 339.033 25.2945 346.055 21.771C351.871 18.9014 358.272 17.6664 359.625 19.1557Z" fill="#EBFCF4"/>
<path d="M387.084 29.5667C384.172 30.2539 382.244 31.3027 380.024 33.4004C376.349 36.8724 375.475 41.2124 377.586 45.661C378.204 46.9268 379.114 48.482 379.551 49.133C382.135 52.5689 387.629 59.0428 389.121 60.3809C394.544 65.3358 402.04 65.1911 407.753 60.0193C412.629 55.5707 413.757 48.265 410.737 40.9954C409.791 38.7169 409.1 37.7043 406.843 35.4619C401.385 30.0369 394.143 27.8668 387.084 29.5667ZM395.599 30.1092C398.51 30.724 402.549 32.7494 404.696 34.7747L406.625 36.5469L404.26 35.3172C400.948 33.6174 398.11 32.9302 394.216 32.9302C385.774 32.9302 379.333 37.8489 379.041 44.5036C379.005 46.2035 378.714 46.0588 378.059 44.0335C376.239 38.3553 379.806 32.4962 386.429 30.3985C388.721 29.639 392.797 29.5305 395.599 30.1092ZM399.565 34.2684C402.549 35.1364 405.643 36.9086 407.753 38.9701C409.318 40.4529 409.791 41.2486 410.446 43.3101C412.375 49.5308 410.664 56.7642 406.443 60.0916C400.766 64.5401 393.998 64.1061 389.085 58.9343C386.247 55.9686 381.043 49.133 380.679 47.831C379.951 45.5163 380.133 42.406 381.116 40.3806C382.571 37.2702 386.356 34.5577 390.504 33.6897C392.542 33.2557 397.091 33.545 399.565 34.2684Z" fill="#EBFCF4"/>
<path d="M399.565 34.2684C402.549 35.1364 405.643 36.9086 407.753 38.9701C409.318 40.4529 409.791 41.2486 410.446 43.3101C412.375 49.5308 410.664 56.7642 406.443 60.0916C400.766 64.5401 393.998 64.1061 389.085 58.9343C386.247 55.9686 381.043 49.133 380.679 47.831C379.951 45.5163 380.133 42.406 381.116 40.3806C382.571 37.2702 386.356 34.5577 390.504 33.6897C392.542 33.2557 397.091 33.545 399.565 34.2684Z" fill="#EBFCF4"/>
<path d="M337.17 96.1239C332.061 96.7686 327.133 100.422 324.866 105.292C323.966 107.19 323.679 108.301 323.571 110.628C323.391 114.102 323.859 115.786 325.334 117.039C327.133 118.543 328.428 118.293 332.061 115.857C335.012 113.852 335.839 114.031 342.711 118.042C347.316 120.728 350.446 120.656 353.216 117.791C355.051 115.857 355.663 113.816 355.447 110.27C354.871 101.496 346.452 95.0137 337.17 96.1239ZM336.846 97.7713C332.889 99.7053 329.471 104.289 328.5 108.909C327.996 111.309 328.248 114.425 329.075 115.642C329.615 116.466 329.579 116.538 328.716 116.932C328.068 117.218 327.6 117.218 326.953 116.932C322.923 115.105 324.002 105.937 328.823 101.138C331.27 98.7025 335.012 96.876 337.674 96.8402C338.645 96.8044 338.537 96.9118 336.846 97.7713ZM345.697 98.0579C350.626 100.242 354.439 106.009 354.439 111.273C354.439 114.353 353.864 116.001 352.281 117.72C350.95 119.152 350.806 119.188 348.611 119.188C346.524 119.188 346.057 119.045 343.646 117.612C338.537 114.604 337.17 113.995 335.371 113.995C334.148 113.995 333.285 114.246 332.313 114.926C330.658 116.036 330.119 115.857 329.651 114.102C329.111 112.24 329.147 111.166 329.831 108.265C331.018 102.964 335.515 98.3802 340.66 97.1983C342.315 96.8402 343.25 96.9834 345.697 98.0579Z" fill="#EBFCF4"/>
<path d="M345.697 98.0579C350.626 100.242 354.439 106.009 354.439 111.273C354.439 114.353 353.864 116.001 352.281 117.72C350.95 119.152 350.806 119.188 348.611 119.188C346.524 119.188 346.057 119.045 343.646 117.612C338.537 114.604 337.17 113.995 335.371 113.995C334.148 113.995 333.285 114.246 332.313 114.926C330.658 116.036 330.119 115.857 329.651 114.102C329.111 112.24 329.147 111.166 329.831 108.265C331.018 102.964 335.515 98.3802 340.66 97.1983C342.315 96.8402 343.25 96.9834 345.697 98.0579Z" fill="#EBFCF4"/>
<path d="M415.283 95.9594C414.14 97.2296 414.105 99.1894 415.212 100.859C416.319 102.601 419.497 104.198 421.282 103.98C422.996 103.726 424.389 102.492 424.389 101.149C424.389 99.9153 423.746 99.262 421.568 98.1369C420.675 97.6651 419.568 96.7578 419.104 96.1408C418.068 94.6891 416.497 94.6166 415.283 95.9594ZM418.318 96.8304C418.747 97.4474 419.854 98.3184 420.782 98.7902C422.925 99.9153 423.461 100.569 423.175 101.73C422.818 103.145 421.389 103.545 419.39 102.782C416.14 101.512 414.569 98.645 416.033 96.5401C416.783 95.4513 417.426 95.5239 418.318 96.8304Z" fill="#EBFCF4"/>
</g>
<path d="M322.601 319.252C322.601 321.117 321.089 322.629 319.224 322.629C317.358 322.629 315.846 321.117 315.846 319.252C315.846 317.387 317.358 315.875 319.224 315.875C321.089 315.875 322.601 317.387 322.601 319.252Z" fill="#FBC261"/>
<path d="M197.419 486.588C197.419 488.454 195.907 489.967 194.042 489.967C192.177 489.967 190.665 488.454 190.665 486.588C190.665 484.723 192.177 483.211 194.042 483.211C195.907 483.211 197.419 484.723 197.419 486.588Z" fill="#FBC261"/>
<path d="M319.224 288.511C319.224 290.376 317.712 291.889 315.846 291.889C313.982 291.889 312.47 290.376 312.47 288.511C312.47 286.647 313.982 285.135 315.846 285.135C317.712 285.135 319.224 286.647 319.224 288.511Z" fill="#FBC261"/>
<path d="M85.2847 281.793C85.2847 283.658 83.7727 285.17 81.9075 285.17C80.0423 285.17 78.5303 283.658 78.5303 281.793C78.5303 279.928 80.0423 278.416 81.9075 278.416C83.7727 278.416 85.2847 279.928 85.2847 281.793Z" fill="#FBC261"/>
<path d="M145.575 247.352C145.575 249.217 144.063 250.729 142.197 250.729C140.333 250.729 138.821 249.217 138.821 247.352C138.821 245.487 140.333 243.975 142.197 243.975C144.063 243.975 145.575 245.487 145.575 247.352Z" fill="#FBC261"/>
<path d="M319.225 251.229C319.225 252.299 318.357 253.167 317.286 253.167C316.215 253.167 315.348 252.299 315.348 251.229C315.348 250.158 316.215 249.29 317.286 249.29C318.357 249.29 319.225 250.158 319.225 251.229Z" fill="#FBC261"/>
<path d="M230.63 474.544C230.63 475.615 229.761 476.484 228.691 476.484C227.62 476.484 226.753 475.615 226.753 474.544C226.753 473.473 227.62 472.607 228.691 472.607C229.761 472.607 230.63 473.473 230.63 474.544Z" fill="#FBC261"/>
<path d="M357.085 264.178C357.085 265.248 356.218 266.117 355.147 266.117C354.077 266.117 353.208 265.248 353.208 264.178C353.208 263.107 354.077 262.239 355.147 262.239C356.218 262.239 357.085 263.107 357.085 264.178Z" fill="#FBC261"/>
<path d="M186.723 225.585C186.723 226.656 185.855 227.524 184.784 227.524C183.714 227.524 182.846 226.656 182.846 225.585C182.846 224.514 183.714 223.647 184.784 223.647C185.855 223.647 186.723 224.514 186.723 225.585Z" fill="#FBC261"/>
<path d="M181.243 286.538C181.243 287.608 180.375 288.476 179.304 288.476C178.233 288.476 177.365 287.608 177.365 286.538C177.365 285.467 178.233 284.599 179.304 284.599C180.375 284.599 181.243 285.467 181.243 286.538Z" fill="#FBC261"/>
<path d="M82.5098 364.55C82.5098 365.621 81.6419 366.489 80.5718 366.489C79.5007 366.489 78.6328 365.621 78.6328 364.55C78.6328 363.479 79.5007 362.612 80.5718 362.612C81.6419 362.612 82.5098 363.479 82.5098 364.55Z" fill="#FBC261"/>
<path d="M202.114 181.939C202.114 183.01 201.246 183.877 200.176 183.877C199.105 183.877 198.237 183.01 198.237 181.939C198.237 180.868 199.105 180 200.176 180C201.246 180 202.114 180.868 202.114 181.939Z" fill="#FBC261"/>
<path d="M293.588 245.413C293.588 246.484 292.719 247.352 291.647 247.352C290.577 247.352 289.709 246.484 289.709 245.413C289.709 244.342 290.577 243.474 291.647 243.474C292.719 243.474 293.588 244.342 293.588 245.413Z" fill="#FBC261"/>
<path d="M275.611 226.102C275.611 227.172 274.743 228.04 273.672 228.04C272.602 228.04 271.734 227.172 271.734 226.102C271.734 225.031 272.602 224.163 273.672 224.163C274.743 224.163 275.611 225.031 275.611 226.102Z" fill="#FBC261"/>
<path d="M120.942 247.352C120.942 248.422 120.075 249.29 119.004 249.29C117.933 249.29 117.065 248.422 117.065 247.352C117.065 246.281 117.933 245.413 119.004 245.413C120.075 245.413 120.942 246.281 120.942 247.352Z" fill="#FBC261"/>
<path d="M146.349 309.532C146.349 310.067 145.916 310.502 145.381 310.502C144.846 310.502 144.411 310.067 144.411 309.532C144.411 308.996 144.846 308.563 145.381 308.563C145.916 308.563 146.349 308.996 146.349 309.532Z" fill="#FBC261"/>
<path d="M127.062 325.463C127.062 325.999 126.629 326.432 126.094 326.432C125.559 326.432 125.125 325.999 125.125 325.463C125.125 324.928 125.559 324.493 126.094 324.493C126.629 324.493 127.062 324.928 127.062 325.463Z" fill="#FBC261"/>
<path d="M80.5718 389.843C80.5718 390.378 80.1374 390.811 79.6023 390.811C79.0662 390.811 78.6328 390.378 78.6328 389.843C78.6328 389.307 79.0662 388.873 79.6023 388.873C80.1374 388.873 80.5718 389.307 80.5718 389.843Z" fill="#FBC261"/>
<path d="M99.7856 344.027C99.7856 344.562 99.3522 344.995 98.8161 344.995C98.2811 344.995 97.8477 344.562 97.8477 344.027C97.8477 343.492 98.2811 343.056 98.8161 343.056C99.3522 343.056 99.7856 343.492 99.7856 344.027Z" fill="#FBC261"/>
<path d="M281.83 263.797C281.83 264.332 281.396 264.766 280.86 264.766C280.325 264.766 279.892 264.332 279.892 263.797C279.892 263.261 280.325 262.828 280.86 262.828C281.396 262.828 281.83 263.261 281.83 263.797Z" fill="#FBC261"/>
<path d="M342.421 268.991C342.421 269.527 341.987 269.961 341.452 269.961C340.916 269.961 340.483 269.527 340.483 268.991C340.483 268.456 340.916 268.022 341.452 268.022C341.987 268.022 342.421 268.456 342.421 268.991Z" fill="#FBC261"/>
<path d="M277.885 293.531C277.885 294.066 277.451 294.5 276.915 294.5C276.38 294.5 275.946 294.066 275.946 293.531C275.946 292.996 276.38 292.561 276.915 292.561C277.451 292.561 277.885 292.996 277.885 293.531Z" fill="#FBC261"/>
<path d="M210.071 485.62C210.071 486.155 209.637 486.588 209.102 486.588C208.567 486.588 208.132 486.155 208.132 485.62C208.132 485.084 208.567 484.65 209.102 484.65C209.637 484.65 210.071 485.084 210.071 485.62Z" fill="#FBC261"/>
<path d="M151.167 271.192C151.167 271.727 150.732 272.161 150.197 272.161C149.662 272.161 149.228 271.727 149.228 271.192C149.228 270.657 149.662 270.222 150.197 270.222C150.732 270.222 151.167 270.657 151.167 271.192Z" fill="#FBC261"/>
<path d="M112.512 289.656C112.512 290.191 112.078 290.626 111.543 290.626C111.008 290.626 110.573 290.191 110.573 289.656C110.573 289.121 111.008 288.687 111.543 288.687C112.078 288.687 112.512 289.121 112.512 289.656Z" fill="#FBC261"/>
<path d="M258.321 251.923C258.321 252.46 257.887 252.894 257.352 252.894C256.817 252.894 256.383 252.46 256.383 251.923C256.383 251.388 256.817 250.955 257.352 250.955C257.887 250.955 258.321 251.388 258.321 251.923Z" fill="#FBC261"/>
<path d="M180.274 202.327C180.274 202.863 179.839 203.296 179.304 203.296C178.769 203.296 178.334 202.863 178.334 202.327C178.334 201.792 178.769 201.358 179.304 201.358C179.839 201.358 180.274 201.792 180.274 202.327Z" fill="#FBC261"/>
<path d="M296.671 351.246C290.932 358.148 284.608 362.354 282.546 360.64C280.484 358.926 283.466 351.939 289.206 345.037C294.945 338.135 301.269 333.928 303.331 335.644C305.393 337.357 302.412 344.343 296.671 351.246Z" fill="#BD7563"/>
<path d="M137.028 352.574C130.737 346.282 127.174 339.647 129.07 337.75C130.967 335.854 137.603 339.417 143.894 345.708C150.184 351.999 153.748 358.635 151.852 360.532C149.955 362.427 143.319 358.865 137.028 352.574Z" fill="#BD7563"/>
<path d="M72.2651 297.516C72.2651 297.516 80.3914 295.399 81.7301 292.794C81.4818 295.671 86.9361 301.741 86.9361 301.741L82.8826 306.731L72.2651 297.516ZM153.06 319.428L116.11 361.128C116.11 361.128 96.8773 337.926 93.3578 329.466C89.8382 321.006 89.9067 314.892 93.8275 305.76C95.5429 300.161 86.1335 290.026 82.6236 291.534C82.2876 291.677 82.0575 291.888 81.912 292.15C81.9248 291.91 81.8799 291.666 81.7504 291.42C80.0757 288.229 65.7107 290.912 65.7107 295.477C65.7107 300.042 69.2067 302.703 69.2067 302.703C69.2067 302.703 53.3594 295.291 48.1502 297.683C46.6646 298.496 47.6226 299.526 47.6226 299.526C47.6226 299.526 44.7539 298.874 44.7539 301.084C44.7539 303.293 59.959 311.956 59.959 311.956C59.959 311.956 45.3596 308.773 44.5829 311.464C43.8063 314.153 73.3287 325.471 73.3287 325.471C73.3287 325.471 88.1346 389.508 108.804 387.45C129.472 385.392 155.004 349.526 155.004 349.526L153.06 319.428Z" fill="#FFE0CC"/>
<path d="M236.782 456.808L248.061 459.853L255.93 461.809C259.152 462.282 262.358 441.603 261.232 441.369C253.087 439.678 243.002 436.502 243.002 436.502L236.782 456.808Z" fill="#F7907B"/>
<path d="M246.431 437.539L242.692 458.404L247.989 459.833L248.635 459.996C246.776 457.719 250.149 441.71 256.218 440.233C252.726 439.353 248.816 438.243 246.431 437.539Z" fill="#EC6E6D"/>
<path d="M285.63 452.094C283.371 442.312 272.867 443.326 264.467 441.972C263.447 441.808 262.358 441.601 261.232 441.369C257.498 443.691 253.634 456.297 255.929 461.812C259.151 462.286 261.231 465.35 261.227 468.701C261.217 476.722 250.145 493.119 261.033 494.115C271.92 495.11 287.888 461.875 285.63 452.094Z" fill="white"/>
<path d="M276.177 443.573C275.569 444.552 275.087 445.633 274.762 446.8C272.936 453.387 276.795 460.209 283.383 462.035C283.741 462.135 284.101 462.214 284.459 462.281C285.672 458.075 286.167 454.421 285.63 452.094C284.391 446.728 280.669 444.614 276.177 443.573Z" fill="#F9AFA2"/>
<path d="M256.957 484.371C255.636 489.45 255.704 493.626 261.033 494.115C264.41 494.424 268.276 491.437 271.936 486.879C265.508 482.03 260.368 482.721 256.957 484.371Z" fill="#F9AFA2"/>
<path d="M260.413 465.195C260.906 457.022 263.796 449.076 268.646 442.496C268.36 442.466 268.075 442.436 267.79 442.404C263.213 448.755 260.401 456.296 259.732 464.109C259.989 464.446 260.218 464.809 260.413 465.195Z" fill="#F9AFA2"/>
<path d="M384.536 308.215C384.536 308.215 384.744 306.95 383.026 306.079C381.306 305.207 363.385 306.791 363.385 306.791C363.385 306.791 365.199 304.537 364.235 300.501C363.271 296.465 352.513 292.142 351.181 294.235C349.847 296.328 357.893 300.09 357.893 300.09C357.893 300.09 357.81 304.442 356.098 304.993C347.85 307.646 346.631 307.117 346.631 307.117C346.631 307.117 346.016 305.038 344.397 303.061C346.473 300.826 352.072 297.316 350.878 294.628C349.682 291.939 336.097 300.852 336.932 305.053C337.305 306.923 337.691 309.161 337.877 311.746C338.288 317.461 335.011 324.848 332.259 330.372C329.508 335.896 311.582 358.37 311.582 358.37L287.186 325.801L283.201 355.308C283.743 355.851 292.832 383.57 310.195 384.114C327.559 384.656 353.527 327.745 353.527 327.745C353.527 327.745 384.061 323.417 383.906 320.622C383.751 317.826 368.745 316.691 368.745 316.691C368.745 316.691 385.619 313.626 385.892 310.526C386.065 308.562 384.536 308.215 384.536 308.215Z" fill="#FFE0CC"/>
<path d="M144.63 375.731C144.63 375.731 72.5229 383.076 75.9258 419.526C79.3277 455.979 244.687 460.887 244.687 460.887C240.941 455.136 256.127 440.224 244.978 429.347C233.828 418.469 153.202 413.933 153.202 413.933L272.773 415.845L213.57 425.744C220.583 428.037 230.191 455.128 225.811 462.072C225.811 462.072 345.614 453.071 345.371 414.189C345.128 375.306 284.769 372.929 284.769 372.929C284.769 372.929 184.175 370.831 144.63 375.731Z" fill="#E9A88A"/>
<path d="M198.883 252.702C198.883 252.702 192.806 246.967 190.538 251.701C188.272 256.435 195.576 265.312 199.525 263.575C203.475 261.836 198.883 252.702 198.883 252.702Z" fill="#FFC7A2"/>
<path d="M198.374 254.4C198.374 254.4 193.943 250.217 192.29 253.669C190.637 257.121 195.964 263.594 198.842 262.327C201.722 261.059 198.374 254.4 198.374 254.4Z" fill="#EC6E6D"/>
<path d="M197.687 252.463C197.687 252.463 190.24 245.534 191.94 233.164C193.64 220.794 203.994 224.792 203.994 224.792C203.994 224.792 207.682 215.412 216.76 215.978C225.84 216.545 232.964 225.798 240.025 227.121C247.086 228.442 251.713 225.42 251.713 225.42C251.713 225.42 251.713 245.764 235.471 253.345C219.23 260.925 197.687 252.463 197.687 252.463Z" fill="#772F36"/>
<path d="M77.242 340.424C84.1099 341.083 94.4856 336.011 95.1715 332.461C95.1715 332.461 92.8226 325.178 92.5337 324.674C92.2448 324.169 91.5407 324.091 91.5407 324.091C87.1757 328.931 78.0606 331.573 74.7744 331.153C74.7744 331.153 74.1783 331.568 74.4598 332.382C74.7423 333.198 77.242 340.424 77.242 340.424Z" fill="#695B87"/>
<path d="M236.761 252.702C236.761 252.702 242.839 246.967 245.106 251.701C247.373 256.435 240.068 265.312 236.118 263.575C232.171 261.836 236.761 252.702 236.761 252.702Z" fill="#FFC7A2"/>
<path d="M236.664 254.111C236.664 254.111 241.286 249.748 243.01 253.348C244.733 256.949 239.178 263.7 236.175 262.378C233.173 261.056 236.664 254.111 236.664 254.111Z" fill="#EC6E6D"/>
<path d="M149.66 375.175L155.829 357.447L151.955 360.427C153.725 357.312 134.407 336.469 129.204 337.616C129.204 337.616 161.12 300.881 181.518 294.674C215.064 284.464 243.158 287.923 260.66 297.888C270.715 303.614 303.589 335.896 303.589 335.896C296.697 334.731 281.456 356.207 282.432 360.549L279.364 356.371L283.882 372.909C243.228 385.378 202.545 387.175 149.66 375.175Z" fill="#FFC8AA"/>
<path d="M273.327 347.526C273.327 347.526 271.247 357.521 261.462 357.896C251.678 358.271 241.958 330.258 232.191 330.337C222.422 330.416 219.084 356.666 202.174 356.666C185.262 356.666 190.388 342.328 181.188 342.834C171.989 343.34 151.679 369.513 151.677 369.515L149.66 375.175C202.545 387.175 243.228 385.378 283.882 372.909L279.364 356.527C279.364 356.527 271.061 343.898 273.327 347.526Z" fill="#FFC8AA"/>
<path d="M169.062 319.39C166.333 331.792 160.707 346.3 156.107 357.56L152.548 367.773C156.956 362.269 173.078 342.823 181.172 342.379C185.304 342.142 186.666 344.749 188.245 347.757C190.325 351.719 192.681 356.209 202.174 356.209C211.625 356.209 216.755 347.874 221.281 340.521C224.784 334.83 227.809 329.915 232.188 329.88C232.202 329.88 232.217 329.88 232.231 329.88C237.232 329.88 242.188 336.946 246.984 343.782C251.759 350.586 256.687 357.627 261.451 357.439C270.331 357.099 272.735 348.521 273.006 347.424C269.421 341.669 265.944 335.015 262.663 327.634C262.485 328.409 262.076 329.425 261.148 330.119C259.971 331 258.281 331.119 256.132 330.469C253.255 329.601 252.151 326.309 250.981 322.825C249.509 318.438 247.988 313.904 242.713 314.245C237.937 314.554 229.855 318.709 222.04 322.725C214.069 326.825 205.827 331.061 200.538 331.577C194.369 332.169 190.073 326.972 186.286 322.38C183.539 319.049 181.168 316.173 178.652 316.139C173.028 316.069 169.571 318.938 169.062 319.39ZM150.789 370.995L155.546 357.348C160.152 346.065 165.783 331.546 168.496 319.167L168.515 319.077L168.582 319.015C168.732 318.869 172.357 315.473 178.661 315.537C181.454 315.575 183.909 318.552 186.751 321.998C190.442 326.474 194.626 331.546 200.48 330.978C205.655 330.474 213.846 326.263 221.765 322.191C229.998 317.959 237.772 313.961 242.673 313.644C248.417 313.275 250.078 318.246 251.552 322.633C252.67 325.967 253.727 329.115 256.306 329.894C258.263 330.485 259.771 330.398 260.789 329.637C262.201 328.58 262.203 326.549 262.203 326.528L262.194 325.067L262.78 326.405C266.195 334.201 269.829 341.202 273.582 347.211L273.646 347.314L273.621 347.432C273.601 347.534 271.379 357.661 261.475 358.041C256.412 358.245 251.359 351.064 246.492 344.126C241.785 337.419 236.919 330.481 232.232 330.481C232.218 330.481 232.205 330.481 232.194 330.481C228.147 330.515 225.203 335.298 221.794 340.837C217.184 348.324 211.961 356.81 202.174 356.81C192.318 356.81 189.764 351.945 187.713 348.036C186.169 345.096 184.953 342.779 181.206 342.978C172.248 343.471 152.117 369.283 151.915 369.544L150.789 370.995Z" fill="white"/>
<path d="M203.481 289.397V271.645L232.191 272.859L231.853 289.006C231.853 289.006 233.456 309.761 218.066 309.761C202.675 309.761 203.481 289.397 203.481 289.397Z" fill="#FFE0CC"/>
<path d="M203.481 282.107V271.645L232.191 272.36L231.853 281.877C231.853 281.877 227.716 293.801 218.066 293.158C208.415 292.514 203.481 282.107 203.481 282.107Z" fill="#EC6E6D"/>
<path d="M205.451 235.225C204.741 243.829 202.03 248.39 197.687 252.463L200.212 276.989C200.212 276.989 210.437 286.691 212.65 286.806C214.864 286.922 216.768 286.427 218.675 286.427C220.582 286.427 222.229 287.043 224.908 286.811C227.585 286.579 235.319 277.11 235.319 277.11L236.761 252.702L234.237 242.845C234.237 242.845 212.544 247.007 205.451 235.225Z" fill="#FFE0CC"/>
<path d="M219.939 263.213H213.691C213.53 263.213 213.397 263.085 213.392 262.922L212.805 246.328C212.8 246.162 212.929 246.023 213.095 246.016C213.243 246.005 213.4 246.141 213.407 246.308L213.982 262.612H219.939C220.106 262.612 220.24 262.745 220.24 262.911C220.24 263.078 220.106 263.213 219.939 263.213Z" fill="#EC6E6D"/>
<path d="M217.788 268.991C216.705 268.991 215.951 268.882 215.855 268.867C215.692 268.843 215.579 268.689 215.604 268.525C215.63 268.36 215.782 268.245 215.946 268.273C216.019 268.285 223.208 269.316 225.89 264.62C225.972 264.477 226.156 264.426 226.301 264.509C226.444 264.591 226.494 264.774 226.412 264.919C224.407 268.429 220.248 268.991 217.788 268.991Z" fill="#43212B"/>
<path d="M201.744 249.99C201.744 249.99 202.057 255.061 207.055 255.295C212.052 255.53 211.367 249.583 210.859 247.886C210.352 246.188 201.744 249.99 201.744 249.99Z" fill="#EC6E6D"/>
<path d="M211.403 247.148C211.915 249.2 207.299 249.766 203.977 250.165C202.049 250.399 201.388 250.613 201.181 250.383C200.973 250.154 201.344 249.091 203.018 248.102C206.01 246.331 210.884 245.068 211.403 247.148Z" fill="#602E3E"/>
<path d="M206.824 255.601C206.82 255.601 206.817 255.601 206.814 255.601C204.933 255.598 203.349 254.708 202.682 253.277C202.612 253.126 202.677 252.949 202.828 252.878C202.979 252.806 203.157 252.873 203.227 253.024C203.795 254.24 205.17 254.997 206.815 254.999C206.818 254.999 206.82 254.999 206.824 254.999C208.248 254.999 210.06 254.378 210.881 252.632C210.952 252.482 211.132 252.416 211.283 252.487C211.432 252.558 211.497 252.738 211.426 252.888C210.638 254.562 208.875 255.601 206.824 255.601Z" fill="#43212B"/>
<path d="M220.068 246.318C220.068 246.318 218.787 254.481 224.808 254.615C230.829 254.748 229.772 246.998 229.772 246.998L220.068 246.318Z" fill="#EC6E6D"/>
<path d="M224.923 254.915C224.92 254.915 224.916 254.915 224.913 254.915C223.031 254.912 221.448 254.022 220.78 252.592C220.711 252.441 220.775 252.263 220.926 252.192C221.077 252.122 221.256 252.187 221.325 252.338C221.893 253.554 223.268 254.311 224.914 254.314C224.916 254.314 224.919 254.314 224.922 254.314C226.347 254.314 228.159 253.692 228.981 251.946C229.051 251.796 229.231 251.733 229.381 251.802C229.531 251.873 229.596 252.052 229.524 252.203C228.737 253.876 226.974 254.915 224.923 254.915Z" fill="#43212B"/>
<path d="M219.903 245.96C219.583 248.05 224.23 247.399 227.575 247.489C229.518 247.541 229.848 247.918 230.035 247.67C230.22 247.423 230.098 246.301 228.341 245.472C225.196 243.986 220.226 243.84 219.903 245.96Z" fill="#602E3E"/>
<path d="M222.538 280.231C222.538 280.922 220.688 280.625 218.405 280.625C216.122 280.625 214.272 280.922 214.272 280.231C214.272 279.539 216.122 278.328 218.405 278.328C220.688 278.328 222.538 279.539 222.538 280.231Z" fill="#EC6E6D"/>
<path d="M204.33 225.794C203.137 220.373 209.594 216.556 214.175 216.216C218.933 215.864 223.494 218.476 225.743 222.658C225.972 223.084 226.622 222.705 226.393 222.278C224.497 218.755 220.957 216.169 216.98 215.575C212.912 214.968 208.557 216.388 205.729 219.406C204.062 221.185 203.067 223.548 203.605 225.994C203.709 226.466 204.435 226.267 204.33 225.794Z" fill="white"/>
<path d="M199.217 224.17C194.975 224.922 192.204 229.112 191.129 232.995C189.881 237.508 190.774 242.382 193.468 246.201C193.744 246.592 194.396 246.218 194.116 245.821C191.586 242.235 190.684 237.709 191.788 233.445C192.754 229.709 195.339 225.617 199.417 224.896C199.892 224.811 199.69 224.086 199.217 224.17Z" fill="white"/>
<path d="M83.3696 318.529C80.8399 317.576 79.0197 314.993 79.1406 312.26C79.2455 309.883 80.7714 307.742 82.8827 306.729L82.2685 306.197C80.0298 307.388 78.4461 309.777 78.3894 312.34C78.322 315.342 80.2888 318.172 83.0839 319.225C83.5365 319.396 83.8233 318.701 83.3696 318.529Z" fill="#EC6E6D"/>
<path d="M68.4965 319.505C71.4521 316.826 75.0862 314.995 78.992 314.192C79.465 314.095 79.2649 313.37 78.7919 313.468C74.7609 314.296 71.0134 316.211 67.9647 318.974C67.6051 319.299 68.1381 319.83 68.4965 319.505Z" fill="#EC6E6D"/>
<path d="M48.5806 300.232C54.2199 302.054 59.7836 304.098 65.2614 306.359C65.7087 306.543 65.9035 305.817 65.4615 305.634C59.9837 303.373 54.4192 301.329 48.7799 299.507C48.3184 299.359 48.1212 300.084 48.5806 300.232Z" fill="#EC6E6D"/>
<path d="M61.726 316.94C63.7452 310.845 67.482 305.426 72.4398 301.35C72.8143 301.042 72.2793 300.513 71.908 300.818C66.8507 304.976 63.0593 310.528 61.0015 316.74C60.8485 317.2 61.5751 317.397 61.726 316.94Z" fill="#EC6E6D"/>
<path d="M73.3198 325.463C74.6435 326.151 77.3659 325.899 77.3659 326.7C77.3659 327.5 73.8795 327.722 73.8795 327.722L73.3198 325.463Z" fill="#EC6E6D"/>
<path d="M346.646 307.124C349.002 310.702 349.489 315.341 347.925 319.334C347.749 319.784 348.444 320.069 348.621 319.618C350.219 315.536 349.782 310.855 347.523 307.124C347.365 307.116 346.933 307.188 346.646 307.124Z" fill="#EC6E6D"/>
<path d="M349.611 315.064C353.362 315.646 356.761 317.951 358.705 321.207C358.954 321.62 359.62 321.273 359.371 320.856C357.278 317.352 353.674 314.938 349.644 314.314C349.167 314.239 349.138 314.992 349.611 315.064Z" fill="#EC6E6D"/>
<path d="M358.197 306.64C362.33 311.232 365.743 316.416 368.335 322.024C368.539 322.463 369.205 322.116 369.002 321.677C366.385 316.014 362.926 310.771 358.754 306.133C358.429 305.774 357.874 306.279 358.197 306.64Z" fill="#EC6E6D"/>
<path d="M367.446 311.289C372.559 309.884 377.834 309.208 383.138 309.284C383.62 309.291 383.657 308.54 383.171 308.533C377.804 308.455 372.454 309.134 367.278 310.555C366.813 310.684 366.977 311.418 367.446 311.289Z" fill="#EC6E6D"/>
<path d="M353.527 327.745C351.253 327.94 347.676 326.508 347.091 327.217C346.507 327.926 349.815 330.987 352.223 330.279L353.527 327.745Z" fill="#EC6E6D"/>
<path d="M220.608 262.911C220.608 263.488 218.99 263.954 216.993 263.954C214.997 263.954 213.482 263.6 213.482 263.023C213.482 262.448 214.947 262.745 216.944 262.745C218.941 262.745 220.608 262.335 220.608 262.911Z" fill="#EC6E6D"/>
<path d="M219.582 421.537C200.932 426.046 200.405 432.635 200.405 432.635L213.363 460.112C213.363 460.112 214.144 461.501 227.117 462.844C240.089 464.187 345.614 453.071 345.371 414.189C345.337 408.759 344.128 404.043 342.078 399.945L281.109 413.933C281.109 413.933 238.231 417.028 219.582 421.537Z" fill="#E9A88A"/>
<path d="M204.142 455.952C203.776 456.588 195.241 461.037 195.241 461.037C195.241 461.037 180.727 463.585 176.794 466.676C172.861 469.766 172.683 444.216 178.565 443.429C185.608 442.487 193.371 437.437 197.856 435.059C206.088 430.696 204.142 455.952 204.142 455.952Z" fill="#FFC7A2"/>
<path d="M219.521 421.832C194.918 416.751 158.977 414.08 127.062 412.136L127.1 411.536C159.035 413.48 195.003 416.153 219.643 421.243L219.521 421.832Z" fill="#B2645A"/>
<path d="M178.565 443.43C170.314 444.685 162.858 441.623 156.489 444.559C142.495 451.012 154.98 495.752 170.186 496.178C185.392 496.606 172.861 469.766 176.794 466.676C177.851 465.846 179.668 465.072 181.758 464.383C186.049 458.667 180.569 444.253 178.565 443.43Z" fill="white"/>
<path d="M156.489 444.559C152.667 446.321 150.823 450.947 150.468 456.741C151.022 456.816 151.585 456.858 152.16 456.858C158.995 456.858 164.537 451.352 164.537 444.559C164.537 444.117 164.513 443.682 164.467 443.25C161.652 443.18 158.987 443.408 156.489 444.559Z" fill="#F9AFA2"/>
<path d="M158.278 486.725C161.642 492.242 165.8 496.055 170.186 496.178C176.347 496.351 177.954 492.048 177.949 486.663C174.281 484.309 167.328 481.683 158.278 486.725Z" fill="#F9AFA2"/>
<path d="M172.927 443.733C172.619 443.726 172.313 443.715 172.008 443.702C176.5 450.466 176.833 458.85 176.676 466.787C176.714 466.748 176.752 466.709 176.794 466.676C176.983 466.528 177.202 466.384 177.435 466.239C177.563 458.5 177.143 450.372 172.927 443.733Z" fill="#F9AFA2"/>
<path d="M201.766 432.67C201.726 432.314 201.004 423.914 221.272 420.84C241.261 417.809 299.211 410.92 299.795 410.851L299.866 411.448C299.283 411.518 241.342 418.405 221.363 421.435C201.733 424.411 202.356 432.522 202.364 432.603L201.766 432.67Z" fill="#B2645A"/>
<path d="M229.998 309.897C236.142 303.195 236.315 292.263 236.267 289.722C236.068 289.691 235.865 289.661 235.665 289.631C235.717 291.883 235.646 302.845 229.555 309.49C226.484 312.84 222.333 314.608 217.216 314.747C212.242 314.886 208.121 313.36 204.98 310.221C199.112 304.36 198.16 294.355 198.012 290.645C197.813 290.682 197.615 290.715 197.415 290.754C197.579 294.606 198.588 304.685 204.553 310.645C207.684 313.774 211.736 315.357 216.609 315.357C216.815 315.357 217.024 315.353 217.233 315.348C222.518 315.205 226.813 313.371 229.998 309.897Z" fill="#BD7563"/>
<path d="M282.859 369.164C260.726 375.224 237.945 378.234 215.085 378.12C194.357 378.009 172.972 375.306 151.427 370.097L151.228 370.669C172.838 375.896 194.288 378.609 215.081 378.722C215.535 378.725 215.987 378.725 216.441 378.725C238.892 378.725 261.271 375.701 283.019 369.745L282.859 369.164Z" fill="#BD7563"/>
<path d="M170.918 299.788C170.729 299.905 170.539 300.023 170.35 300.144C171.999 319.382 158.939 349.48 154.966 358.11L155.829 357.447L155.505 358.378C159.506 349.686 172.734 319.19 170.918 299.788Z" fill="#BD7563"/>
<path d="M279.441 356.653C273.55 348.388 254.208 319.153 257.787 296.368C257.6 296.274 257.416 296.176 257.224 296.083C253.246 320.554 275.525 352.357 279.891 358.302L279.441 356.653Z" fill="#BD7563"/>
<path d="M187.448 440.577C196.042 450.41 195.242 461.036 195.242 461.036L213.363 460.112C214.535 448.497 210.733 439.224 202.045 432.251L187.448 440.577Z" fill="#ED7F71"/>
<path d="M337.792 393.498C335.317 398.771 330.128 414.35 341.146 427.138C341.272 426.974 341.33 426.851 341.452 426.688C330.948 414.38 335.745 399.384 338.215 394.015C338.074 393.842 337.936 393.668 337.792 393.498Z" fill="#B2645A"/>
<path d="M83.6746 431.4C87.8447 425.388 89.5119 419.449 88.6227 413.734C87.6628 407.552 83.8832 403.154 81.6992 401.067C81.5729 401.224 81.4487 401.382 81.3257 401.54C83.452 403.579 87.1021 407.849 88.0298 413.833C88.8902 419.381 87.2637 425.161 83.2005 431.03C83.3557 431.155 83.5162 431.277 83.6746 431.4Z" fill="#B2645A"/>
<path d="M205.129 435.032L189.132 442.675C189.255 442.841 189.375 443.005 189.492 443.17L205.558 435.493C205.413 435.34 205.277 435.183 205.129 435.032Z" fill="#B2645A"/>
<path d="M208.879 439.663L191.896 447.124C191.988 447.305 192.075 447.485 192.163 447.664L209.2 440.178C209.093 440.007 208.991 439.833 208.879 439.663Z" fill="#B2645A"/>
<path d="M212.295 447.033L194.042 452.489C194.1 452.683 194.157 452.877 194.209 453.066L212.464 447.612C212.412 447.418 212.353 447.227 212.295 447.033Z" fill="#B2645A"/>
<path d="M213.567 455.814L195.097 457.611C195.12 457.819 195.141 458.019 195.159 458.21L213.557 456.419C213.558 456.218 213.569 456.013 213.567 455.814Z" fill="#B2645A"/>
<path d="M271.282 414.946L271.074 414.383L291.037 406.996L291.246 407.561L271.282 414.946Z" fill="#B2645A"/>
<path d="M152.855 413.974L133.335 406.752L133.544 406.188L153.064 413.41L152.855 413.974Z" fill="#B2645A"/>
<path d="M134.172 332.141C140.744 333.342 155.553 346.231 155.77 356.43L156.372 356.417C156.148 345.935 141.713 333.279 134.657 331.622C134.491 331.799 134.331 331.971 134.172 332.141Z" fill="#BD7563"/>
<path d="M295.954 328.517C292.996 329.91 289.501 332.912 285.933 337.195C281.205 342.872 276.674 350.605 277.165 354.402L277.762 354.325C277.355 351.176 281.066 343.978 286.396 337.579C289.952 333.311 293.511 330.278 296.42 328.964C296.266 328.816 296.11 328.667 295.954 328.517Z" fill="#BD7563"/>
<path d="M90.6802 327.11C89.8829 326.821 89.0237 326.786 88.2007 326.878C87.6743 327.223 87.1285 327.547 86.5688 327.853C87.7288 327.482 89.2131 327.218 90.4758 327.675C91.487 328.042 92.2275 328.836 92.6748 330.036C93.8123 333.086 92.5175 335.271 91.3137 336.524C91.8701 336.176 92.3816 335.819 92.8396 335.458C93.6497 334.062 94.112 332.171 93.2377 329.827C92.7262 328.453 91.8658 327.539 90.6802 327.11Z" fill="#403954"/>
<path d="M80.3658 334.873C80.0223 334.873 79.7441 335.152 79.7441 335.496C79.7441 335.837 80.0223 336.117 80.3658 336.117C80.7082 336.117 80.9875 335.837 80.9875 335.496C80.9875 335.152 80.7082 334.873 80.3658 334.873ZM80.3658 336.719C79.6906 336.719 79.1416 336.17 79.1416 335.496C79.1416 334.821 79.6906 334.272 80.3658 334.272C81.0399 334.272 81.5889 334.821 81.5889 335.496C81.5889 336.17 81.0399 336.719 80.3658 336.719Z" fill="#403954"/>
<path d="M85.7012 333.377C85.3577 333.377 85.0784 333.656 85.0784 334C85.0784 334.342 85.3577 334.622 85.7012 334.622C86.0437 334.622 86.3219 334.342 86.3219 334C86.3219 333.656 86.0437 333.377 85.7012 333.377ZM85.7012 335.222C85.026 335.222 84.4771 334.673 84.4771 334C84.4771 333.325 85.026 332.776 85.7012 332.776C86.3743 332.776 86.9233 333.325 86.9233 334C86.9233 334.673 86.3743 335.222 85.7012 335.222Z" fill="#403954"/>
<defs>
<clipPath id="clip0_15_2598">
<rect width="169.755" height="166" fill="white" transform="translate(283.592)"/>
</clipPath>
</defs>
</svg>
