<svg width="384" height="223" viewBox="0 0 384 223" fill="none" xmlns="http://www.w3.org/2000/svg">
<path d="M204.226 116.081L204.226 116.081C204.353 126.356 199.604 137.087 189.159 139.677C189.143 139.679 189.121 139.681 189.092 139.685C189.028 139.692 188.931 139.703 188.803 139.715C188.549 139.739 188.171 139.771 187.686 139.798C186.716 139.852 185.316 139.889 183.605 139.817C180.181 139.674 175.522 139.099 170.574 137.372C160.288 133.783 150.059 126.071 141.721 116.678C133.383 107.287 126.976 96.2581 124.297 86.0813C122.665 79.8802 122.373 73.3246 123.319 66.8023C123.382 66.3664 123.453 65.8691 123.531 65.3191C124.042 61.7038 124.875 55.8125 126.138 50.1303C126.865 46.8569 127.732 43.6691 128.756 41.036C129.783 38.3953 130.938 36.3951 132.203 35.3884C132.542 35.1787 133.043 35.021 133.698 34.9385C134.36 34.8551 135.145 34.8524 136.011 34.9301C137.742 35.0856 139.75 35.5585 141.65 36.2999C143.552 37.0425 145.316 38.0424 146.579 39.2334C147.842 40.424 148.564 41.763 148.508 43.2057C148.397 46.0905 148.764 47.8808 149.562 48.8935C150.414 49.9747 151.637 50.0446 152.788 49.8386C153.366 49.7353 153.962 49.5571 154.536 49.3749C154.668 49.3332 154.797 49.2914 154.926 49.2501C155.369 49.1073 155.797 48.9697 156.215 48.8591C157.325 48.565 158.124 48.5344 158.662 48.9392C172.775 59.5619 183.669 73.5365 193.246 88.1483L193.246 88.1483C198.847 96.693 204.1 105.85 204.226 116.081Z" fill="#3FB191" stroke="#FAFFFD"/>
<path d="M189.912 114.066C189.123 116.805 188.111 119.713 186.942 123.074C186.674 123.845 186.397 124.639 186.114 125.46L189.912 114.066ZM189.912 114.066C189.154 117.377 188.009 120.976 186.478 125.424C186.396 125.444 186.283 125.46 186.159 125.461L189.912 114.066ZM185.862 125.42C185.862 125.42 185.863 125.421 185.865 125.422C185.863 125.421 185.862 125.42 185.862 125.42Z" fill="#3FB191" stroke="#FAFFFD"/>
<path d="M173.314 84.3986C172.847 86.8047 172.172 89.3783 171.394 92.3484C171.227 92.9844 171.056 93.6385 170.881 94.3131L173.314 84.3986ZM173.314 84.3986C172.948 87.2334 172.234 90.3576 171.234 94.2353C171.146 94.2658 171.025 94.2951 170.891 94.3119L173.314 84.3986ZM170.558 94.3122C170.558 94.3122 170.559 94.3125 170.562 94.3135C170.559 94.3127 170.558 94.3123 170.558 94.3122Z" fill="#1A775C" stroke="#FAFFFD"/>
<path d="M163.17 115.253C160.134 114.996 157.492 114.773 155.072 114.428C157.889 115.002 161.091 115.367 165.077 115.719C165.133 115.65 165.199 115.552 165.257 115.439C165.259 115.436 165.26 115.434 165.261 115.431C164.543 115.369 163.847 115.31 163.17 115.253ZM165.366 115.14C165.366 115.14 165.366 115.141 165.366 115.144C165.366 115.141 165.366 115.139 165.366 115.14Z" fill="#1A775C" stroke="#FAFFFD"/>
<path d="M160.3 68.8744C160.241 68.9057 160.168 68.9409 160.085 68.9764C160.144 68.7372 160.202 68.5016 160.259 68.2697C160.652 66.6678 161.004 65.2366 161.224 63.9224C161.093 65.3131 160.769 66.9167 160.302 68.8728C160.301 68.8733 160.301 68.8738 160.3 68.8744Z" fill="#1A775C" stroke="#FAFFFD"/>
<path d="M146.821 88.9938C146.861 88.9447 146.908 88.883 146.956 88.8132C146.688 88.8305 146.424 88.8477 146.164 88.8648C144.532 88.9717 143.067 89.0677 141.734 89.0721C143.153 89.1608 144.808 89.1132 146.821 88.9938Z" fill="#1A775C" stroke="#FAFFFD"/>
<path d="M147.113 63.2861C151.449 72.9285 155.137 81.132 158.8 88.7781C154.021 79.3556 149.245 69.0313 143.373 56.0095L143.372 56.0091C143.331 55.9178 143.372 55.7866 143.485 55.7334C143.595 55.6858 143.715 55.7361 143.76 55.8352C144.924 58.4163 146.039 60.8954 147.113 63.2861Z" fill="#1A775C" stroke="#FAFFFD"/>
<path d="M176.957 116.081L176.957 116.081C176.83 126.356 181.58 137.087 192.025 139.677C192.04 139.679 192.063 139.681 192.092 139.685C192.156 139.692 192.252 139.703 192.38 139.715C192.635 139.739 193.012 139.771 193.497 139.798C194.467 139.852 195.867 139.889 197.578 139.817C201.002 139.674 205.662 139.099 210.609 137.372C220.895 133.783 231.125 126.071 239.463 116.678C247.8 107.287 254.208 96.2581 256.886 86.0813C258.518 79.8802 258.811 73.3246 257.864 66.8023C257.801 66.3664 257.731 65.8691 257.653 65.3191C257.142 61.7038 256.309 55.8125 255.046 50.1303C254.318 46.8569 253.451 43.6691 252.427 41.036C251.4 38.3953 250.245 36.3951 248.98 35.3884C248.642 35.1787 248.14 35.021 247.485 34.9385C246.823 34.8551 246.038 34.8524 245.172 34.9301C243.441 35.0856 241.433 35.5585 239.534 36.2999C237.631 37.0425 235.868 38.0424 234.604 39.2334C233.342 40.424 232.619 41.763 232.675 43.2057C232.787 46.0905 232.42 47.8808 231.621 48.8935C230.769 49.9747 229.546 50.0446 228.395 49.8386C227.817 49.7353 227.221 49.5571 226.647 49.3749C226.516 49.3332 226.386 49.2914 226.257 49.2501C225.814 49.1073 225.386 48.9697 224.969 48.8591C223.859 48.565 223.059 48.5344 222.522 48.9392C208.409 59.5619 197.514 73.5365 187.937 88.1483L187.937 88.1483C182.336 96.693 177.083 105.85 176.957 116.081Z" fill="#1A775C" stroke="#FAFFFD"/>
<path d="M191.271 114.067C192.06 116.805 193.072 119.714 194.241 123.075C194.509 123.845 194.786 124.639 195.069 125.46L191.271 114.067ZM191.271 114.067C192.029 117.377 193.174 120.976 194.705 125.424C194.788 125.445 194.9 125.46 195.024 125.461L191.271 114.067ZM195.321 125.42C195.321 125.42 195.32 125.421 195.318 125.422C195.32 125.421 195.321 125.42 195.321 125.42Z" fill="#1A775C" stroke="#FAFFFD"/>
<path d="M207.868 84.3986C208.336 86.8046 209.01 89.3783 209.789 92.3484C209.955 92.9844 210.127 93.6385 210.302 94.3131L207.868 84.3986ZM207.868 84.3986C208.235 87.2333 208.949 90.3576 209.948 94.2353C210.037 94.2658 210.158 94.2951 210.291 94.3119L207.868 84.3986ZM210.625 94.3122C210.625 94.3122 210.623 94.3125 210.62 94.3135C210.623 94.3127 210.625 94.3123 210.625 94.3122Z" fill="#1A775C" stroke="#FAFFFD"/>
<path d="M218.013 115.253C221.049 114.996 223.691 114.773 226.111 114.428C223.294 115.002 220.092 115.367 216.107 115.719C216.05 115.65 215.984 115.552 215.926 115.439C215.924 115.436 215.923 115.434 215.922 115.431C216.64 115.369 217.336 115.31 218.013 115.253ZM215.817 115.14C215.817 115.14 215.817 115.141 215.817 115.144C215.817 115.141 215.817 115.14 215.817 115.14Z" fill="#1A775C" stroke="#FAFFFD"/>
<path d="M222.903 68.9559C222.962 68.9873 223.035 69.0224 223.117 69.058C223.059 68.8187 223.001 68.5832 222.944 68.3512C222.551 66.7494 222.199 65.3181 221.979 64.004C222.109 65.3947 222.434 66.9982 222.9 68.9544C222.901 68.9549 222.902 68.9554 222.903 68.9559Z" fill="#1A775C" stroke="#FAFFFD"/>
<path d="M234.363 88.9938C234.322 88.9447 234.276 88.883 234.227 88.8132C234.496 88.8305 234.759 88.8477 235.019 88.8648C236.651 88.9717 238.116 89.0677 239.45 89.0721C238.03 89.1608 236.375 89.1132 234.363 88.9938Z" fill="#1A775C" stroke="#FAFFFD"/>
<path d="M234.111 64.2424C229.775 73.8848 226.087 82.0883 222.424 89.7344C227.203 80.3119 231.98 69.9876 237.852 56.9658L237.852 56.9654C237.893 56.8741 237.852 56.7429 237.74 56.6897C237.63 56.6421 237.509 56.6924 237.464 56.7915C236.3 59.3726 235.186 61.8517 234.111 64.2424Z" fill="#1A775C" stroke="#FAFFFD"/>
<path d="M147.974 214.716C147.584 214.716 147.159 214.682 146.7 214.613C146.251 214.555 145.797 214.423 145.338 214.218C144.888 214.013 144.454 213.725 144.034 213.354C143.624 212.973 143.258 212.475 142.935 211.859C142.623 211.244 142.369 210.487 142.174 209.589C141.988 208.681 141.895 207.602 141.895 206.352V197.489C141.895 196.229 141.993 195.155 142.188 194.267C142.384 193.368 142.642 192.616 142.965 192.011C143.287 191.396 143.658 190.907 144.078 190.546C144.498 190.185 144.932 189.911 145.382 189.726C145.831 189.53 146.275 189.403 146.715 189.345C147.164 189.286 147.579 189.257 147.96 189.257C148.956 189.257 149.786 189.398 150.45 189.682C151.124 189.955 151.661 190.336 152.061 190.824C152.471 191.303 152.759 191.864 152.925 192.509C153.101 193.153 153.189 193.837 153.189 194.56C153.189 195.097 153.16 195.595 153.101 196.054C153.052 196.503 152.974 197.001 152.867 197.548H149.791V196.273C149.791 194.896 149.639 193.866 149.337 193.183C149.034 192.499 148.59 192.157 148.004 192.157C147.652 192.157 147.344 192.226 147.081 192.362C146.817 192.499 146.597 192.733 146.422 193.065C146.246 193.388 146.109 193.817 146.011 194.354C145.924 194.892 145.88 195.561 145.88 196.361V207.787C145.88 208.568 145.914 209.218 145.982 209.735C146.06 210.253 146.182 210.668 146.348 210.98C146.514 211.293 146.729 211.518 146.993 211.654C147.266 211.781 147.593 211.845 147.974 211.845C148.218 211.845 148.453 211.791 148.677 211.684C148.902 211.566 149.097 211.391 149.263 211.156C149.439 210.912 149.576 210.609 149.674 210.248C149.781 209.877 149.835 209.442 149.835 208.944V206.498H153.306V208.812C153.306 210.824 152.847 212.309 151.929 213.266C151.011 214.223 149.693 214.706 147.974 214.716ZM158.903 214.716C158.278 214.716 157.722 214.594 157.234 214.35C156.755 214.096 156.35 213.754 156.018 213.324C155.686 212.895 155.432 212.387 155.256 211.801C155.09 211.205 155.007 210.561 155.007 209.867C155.007 209.037 155.11 208.3 155.315 207.655C155.52 207.011 155.818 206.43 156.208 205.912C156.609 205.395 157.102 204.926 157.688 204.506C158.274 204.076 158.952 203.671 159.724 203.29C160.095 203.104 160.51 202.919 160.969 202.733C161.438 202.538 161.853 202.372 162.214 202.235V199.569C162.214 199.179 162.199 198.817 162.17 198.485C162.141 198.144 162.068 197.851 161.95 197.606C161.843 197.353 161.677 197.157 161.452 197.021C161.228 196.874 160.92 196.801 160.529 196.801C160.266 196.801 160.007 196.85 159.753 196.947C159.509 197.045 159.289 197.211 159.094 197.445C158.908 197.68 158.757 197.992 158.64 198.383C158.532 198.773 158.479 199.257 158.479 199.833V200.712H155.652C155.564 200.331 155.495 199.984 155.446 199.672C155.407 199.35 155.388 199.032 155.388 198.72C155.388 197.968 155.515 197.304 155.769 196.728C156.032 196.151 156.394 195.668 156.853 195.277C157.321 194.887 157.878 194.594 158.523 194.398C159.167 194.193 159.875 194.091 160.647 194.091C161.652 194.091 162.487 194.203 163.152 194.428C163.816 194.643 164.343 194.97 164.734 195.409C165.134 195.849 165.412 196.4 165.569 197.064C165.735 197.729 165.818 198.505 165.818 199.394V214.496H163.064L162.8 212.768C162.4 213.344 161.862 213.812 161.189 214.174C160.525 214.535 159.763 214.716 158.903 214.716ZM160.544 211.859C160.857 211.859 161.159 211.781 161.452 211.625C161.755 211.459 162.009 211.259 162.214 211.024V204.711C162.019 204.789 161.799 204.882 161.555 204.989C161.311 205.097 161.047 205.238 160.764 205.414C160.5 205.58 160.241 205.78 159.987 206.015C159.734 206.249 159.504 206.527 159.299 206.85C159.104 207.172 158.943 207.538 158.816 207.948C158.698 208.349 158.64 208.798 158.64 209.296C158.64 210.067 158.791 210.688 159.094 211.156C159.397 211.625 159.88 211.859 160.544 211.859ZM169.715 194.325H172.425L172.748 196.376C173.158 195.614 173.627 195.043 174.154 194.662C174.691 194.281 175.238 194.091 175.795 194.091C176.859 194.091 177.645 194.418 178.153 195.072C178.661 195.727 178.915 196.708 178.915 198.017C178.915 198.183 178.9 198.383 178.871 198.617C178.851 198.842 178.817 199.081 178.768 199.335C178.729 199.579 178.675 199.828 178.607 200.082C178.548 200.326 178.485 200.551 178.417 200.756H175.838V198.881C175.838 198.471 175.809 198.134 175.751 197.87C175.702 197.606 175.633 197.396 175.545 197.24C175.458 197.074 175.355 196.962 175.238 196.903C175.121 196.835 174.994 196.801 174.857 196.801C174.564 196.801 174.291 196.898 174.037 197.094C173.793 197.279 173.587 197.543 173.421 197.885V214.496H169.715V194.325ZM186.182 214.716C185.313 214.716 184.541 214.555 183.867 214.232C183.203 213.91 182.642 213.407 182.183 212.724C181.724 212.04 181.377 211.166 181.143 210.102C180.908 209.027 180.791 207.738 180.791 206.234V202.426C180.791 201.146 180.884 200.053 181.069 199.145C181.265 198.227 181.514 197.46 181.816 196.845C182.129 196.22 182.485 195.727 182.886 195.365C183.296 195.004 183.716 194.73 184.146 194.545C184.575 194.35 185 194.228 185.42 194.179C185.85 194.12 186.245 194.091 186.606 194.091C187.271 194.091 187.91 194.193 188.525 194.398C189.141 194.594 189.683 194.936 190.151 195.424C190.62 195.902 190.991 196.547 191.265 197.357C191.548 198.168 191.689 199.179 191.689 200.39C191.689 200.8 191.675 201.215 191.646 201.635C191.626 202.055 191.597 202.47 191.558 202.88C191.519 203.28 191.465 203.671 191.397 204.052C191.338 204.433 191.274 204.784 191.206 205.106H184.512V207.157C184.512 208.036 184.546 208.778 184.614 209.384C184.683 209.979 184.795 210.463 184.951 210.834C185.117 211.195 185.337 211.459 185.61 211.625C185.894 211.781 186.245 211.859 186.665 211.859C186.89 211.859 187.109 211.815 187.324 211.728C187.539 211.63 187.725 211.474 187.881 211.259C188.047 211.044 188.179 210.761 188.276 210.409C188.374 210.048 188.423 209.604 188.423 209.076V208.446H191.514V209.223C191.514 211.137 191.055 212.533 190.137 213.412C189.229 214.281 187.91 214.716 186.182 214.716ZM188.232 202.616C188.242 202.509 188.252 202.367 188.262 202.191C188.272 202.006 188.276 201.815 188.276 201.62C188.286 201.425 188.291 201.234 188.291 201.049C188.291 200.854 188.291 200.688 188.291 200.551C188.291 199.223 188.135 198.266 187.822 197.68C187.51 197.094 187.046 196.801 186.431 196.801C186.108 196.801 185.825 196.879 185.581 197.035C185.337 197.182 185.137 197.436 184.98 197.797C184.824 198.148 184.707 198.617 184.629 199.203C184.551 199.789 184.512 200.517 184.512 201.386V202.616H188.232ZM195.382 196.962H193.639V194.325H195.382V192.875C195.382 191.781 195.495 190.893 195.719 190.209C195.944 189.516 196.251 188.979 196.642 188.598C197.042 188.207 197.506 187.943 198.034 187.807C198.571 187.67 199.147 187.602 199.762 187.602C199.938 187.602 200.133 187.611 200.348 187.631C200.573 187.65 200.792 187.685 201.007 187.733C201.232 187.772 201.447 187.821 201.652 187.88C201.867 187.938 202.057 188.012 202.223 188.1V190.707C201.813 190.6 201.354 190.546 200.846 190.546C200.602 190.546 200.368 190.585 200.143 190.663C199.928 190.741 199.738 190.873 199.572 191.059C199.406 191.234 199.274 191.474 199.176 191.776C199.079 192.069 199.03 192.436 199.03 192.875V194.325H201.828V196.962H199.03V214.496H195.382V196.962ZM203.968 194.325H206.678L207 196.376C207.41 195.614 207.879 195.043 208.406 194.662C208.943 194.281 209.49 194.091 210.047 194.091C211.111 194.091 211.897 194.418 212.405 195.072C212.913 195.727 213.167 196.708 213.167 198.017C213.167 198.183 213.152 198.383 213.123 198.617C213.103 198.842 213.069 199.081 213.02 199.335C212.981 199.579 212.928 199.828 212.859 200.082C212.801 200.326 212.737 200.551 212.669 200.756H210.091V198.881C210.091 198.471 210.061 198.134 210.003 197.87C209.954 197.606 209.886 197.396 209.798 197.24C209.71 197.074 209.607 196.962 209.49 196.903C209.373 196.835 209.246 196.801 209.109 196.801C208.816 196.801 208.543 196.898 208.289 197.094C208.045 197.279 207.84 197.543 207.674 197.885V214.496H203.968V194.325ZM220.434 214.716C219.565 214.716 218.793 214.555 218.119 214.232C217.455 213.91 216.894 213.407 216.435 212.724C215.976 212.04 215.629 211.166 215.395 210.102C215.16 209.027 215.043 207.738 215.043 206.234V202.426C215.043 201.146 215.136 200.053 215.322 199.145C215.517 198.227 215.766 197.46 216.069 196.845C216.381 196.22 216.738 195.727 217.138 195.365C217.548 195.004 217.968 194.73 218.398 194.545C218.827 194.35 219.252 194.228 219.672 194.179C220.102 194.12 220.497 194.091 220.859 194.091C221.523 194.091 222.162 194.193 222.778 194.398C223.393 194.594 223.935 194.936 224.404 195.424C224.872 195.902 225.244 196.547 225.517 197.357C225.8 198.168 225.942 199.179 225.942 200.39C225.942 200.8 225.927 201.215 225.898 201.635C225.878 202.055 225.849 202.47 225.81 202.88C225.771 203.28 225.717 203.671 225.649 204.052C225.59 204.433 225.527 204.784 225.458 205.106H218.764V207.157C218.764 208.036 218.798 208.778 218.867 209.384C218.935 209.979 219.047 210.463 219.203 210.834C219.369 211.195 219.589 211.459 219.863 211.625C220.146 211.781 220.497 211.859 220.917 211.859C221.142 211.859 221.362 211.815 221.577 211.728C221.791 211.63 221.977 211.474 222.133 211.259C222.299 211.044 222.431 210.761 222.529 210.409C222.626 210.048 222.675 209.604 222.675 209.076V208.446H225.766V209.223C225.766 211.137 225.307 212.533 224.389 213.412C223.481 214.281 222.162 214.716 220.434 214.716ZM222.485 202.616C222.494 202.509 222.504 202.367 222.514 202.191C222.524 202.006 222.529 201.815 222.529 201.62C222.538 201.425 222.543 201.234 222.543 201.049C222.543 200.854 222.543 200.688 222.543 200.551C222.543 199.223 222.387 198.266 222.075 197.68C221.762 197.094 221.298 196.801 220.683 196.801C220.361 196.801 220.077 196.879 219.833 197.035C219.589 197.182 219.389 197.436 219.233 197.797C219.077 198.148 218.959 198.617 218.881 199.203C218.803 199.789 218.764 200.517 218.764 201.386V202.616H222.485ZM234 214.716C233.131 214.716 232.359 214.555 231.685 214.232C231.021 213.91 230.46 213.407 230.001 212.724C229.542 212.04 229.195 211.166 228.961 210.102C228.726 209.027 228.609 207.738 228.609 206.234V202.426C228.609 201.146 228.702 200.053 228.887 199.145C229.083 198.227 229.332 197.46 229.635 196.845C229.947 196.22 230.304 195.727 230.704 195.365C231.114 195.004 231.534 194.73 231.964 194.545C232.393 194.35 232.818 194.228 233.238 194.179C233.668 194.12 234.063 194.091 234.425 194.091C235.089 194.091 235.728 194.193 236.344 194.398C236.959 194.594 237.501 194.936 237.97 195.424C238.438 195.902 238.809 196.547 239.083 197.357C239.366 198.168 239.508 199.179 239.508 200.39C239.508 200.8 239.493 201.215 239.464 201.635C239.444 202.055 239.415 202.47 239.376 202.88C239.337 203.28 239.283 203.671 239.215 204.052C239.156 204.433 239.093 204.784 239.024 205.106H232.33V207.157C232.33 208.036 232.364 208.778 232.432 209.384C232.501 209.979 232.613 210.463 232.769 210.834C232.935 211.195 233.155 211.459 233.429 211.625C233.712 211.781 234.063 211.859 234.483 211.859C234.708 211.859 234.928 211.815 235.142 211.728C235.357 211.63 235.543 211.474 235.699 211.259C235.865 211.044 235.997 210.761 236.095 210.409C236.192 210.048 236.241 209.604 236.241 209.076V208.446H239.332V209.223C239.332 211.137 238.873 212.533 237.955 213.412C237.047 214.281 235.728 214.716 234 214.716ZM236.051 202.616C236.06 202.509 236.07 202.367 236.08 202.191C236.09 202.006 236.095 201.815 236.095 201.62C236.104 201.425 236.109 201.234 236.109 201.049C236.109 200.854 236.109 200.688 236.109 200.551C236.109 199.223 235.953 198.266 235.64 197.68C235.328 197.094 234.864 196.801 234.249 196.801C233.927 196.801 233.643 196.879 233.399 197.035C233.155 197.182 232.955 197.436 232.799 197.797C232.642 198.148 232.525 198.617 232.447 199.203C232.369 199.789 232.33 200.517 232.33 201.386V202.616H236.051Z" fill="#FAFFFD"/>
<path d="M127.137 149.751C124.848 149.751 122.993 147.9 122.993 145.615C122.993 143.33 124.848 141.477 127.137 141.477C129.427 141.477 131.284 143.33 131.284 145.615C131.284 147.9 129.427 149.751 127.137 149.751Z" fill="#C8E7D6"/>
<path d="M68.5721 52.2307C66.6778 51.8482 65.2517 50.1772 65.2517 48.1744C65.2517 46.5847 66.1505 45.2039 67.4688 44.511C67.4013 47.1803 67.8096 49.7503 68.5721 52.2307Z" fill="#C8E7D6"/>
<path d="M69.3984 52.3125C69.1152 52.3125 68.8391 52.284 68.5719 52.2306C67.8095 49.7502 67.4012 47.1802 67.4686 44.5109C68.0446 44.2075 68.7013 44.0361 69.3984 44.0361C71.6884 44.0361 73.5445 45.8889 73.5445 48.1743C73.5445 50.4596 71.6884 52.3125 69.3984 52.3125Z" fill="#C3DFCF"/>
<path d="M290.4 134.817C292.451 135.466 293.83 137.485 293.59 139.702C293.4 141.461 292.24 142.883 290.698 143.492C291.092 140.546 290.947 137.653 290.4 134.817Z" fill="#C8E7D6"/>
<path d="M289.496 134.628C289.809 134.662 290.111 134.726 290.401 134.817C290.948 137.653 291.092 140.546 290.698 143.492C290.024 143.76 289.277 143.871 288.506 143.788C285.971 143.515 284.138 141.244 284.412 138.714C284.685 136.185 286.961 134.355 289.496 134.628Z" fill="#C3DFCF"/>
<path d="M348.565 176.831C349.364 177.084 349.902 177.871 349.808 178.735C349.734 179.421 349.282 179.975 348.681 180.213C348.835 179.064 348.778 177.937 348.565 176.831Z" fill="#C8E7D6"/>
<path d="M348.212 176.757C348.334 176.77 348.452 176.795 348.565 176.831C348.778 177.937 348.835 179.064 348.681 180.213C348.418 180.317 348.127 180.361 347.826 180.328C346.838 180.222 346.124 179.336 346.23 178.35C346.337 177.364 347.224 176.651 348.212 176.757Z" fill="#C3DFCF"/>
<path d="M317.291 52.3713C315.069 52.3713 313.074 51.4032 311.707 49.8654C314.439 48.8272 317.288 48.1027 320.198 47.7329C321.555 47.5617 322.947 47.4518 324.346 47.3531C323.337 50.2739 320.56 52.3713 317.291 52.3713Z" fill="#C8E7D6"/>
<path d="M311.707 49.8652C310.539 48.5498 309.829 46.8208 309.829 44.9244C309.829 40.8119 313.17 37.4777 317.291 37.4777C321.412 37.4777 324.753 40.8119 324.753 44.9244C324.753 45.7752 324.61 46.5922 324.346 47.353C322.947 47.4517 321.555 47.5616 320.198 47.7328C317.289 48.1025 314.439 48.8271 311.707 49.8652Z" fill="#C3DFCF"/>
<path d="M185.459 6.61987C183.627 6.61987 182.142 5.13823 182.142 3.31058C182.142 1.48293 183.627 7.15256e-05 185.459 7.15256e-05C187.291 7.15256e-05 188.775 1.48293 188.775 3.31058C188.775 5.13823 187.291 6.61987 185.459 6.61987Z" fill="#C3DFCF"/>
<path d="M68.8189 115.7L69.4727 115.714L69.4769 115.29C69.4748 104.357 60.7111 95.3873 49.7092 95.1594L49.2837 95.1552C38.328 95.1552 29.3378 103.901 29.1094 114.882L29.1052 115.302C29.1052 126.236 37.8711 135.209 48.875 135.437L49.3005 135.441C60.2542 135.441 69.2443 126.694 69.4727 115.714L68.8189 115.7L68.1671 115.687C67.9555 125.958 59.5438 134.141 49.3005 134.139L48.9024 134.134C38.6088 133.923 30.4108 125.529 30.4108 115.302L30.415 114.909C30.6266 104.639 39.0384 96.456 49.2837 96.456L49.6819 96.4602C59.9733 96.6735 68.1713 105.066 68.1713 115.29L68.1671 115.687L68.8189 115.7Z" fill="#FCF6A0"/>
<path d="M32.7641 129.857C31.7289 132.068 31.2909 133.657 31.2867 134.885C31.2721 135.993 31.7037 136.859 32.389 137.325C33.0659 137.794 33.858 137.896 34.5893 137.898C35.1971 137.898 35.7818 137.821 36.2512 137.75C37.4142 137.572 38.33 136.926 39.1284 136.346C50.2644 128.174 57.1611 115.626 62.5111 103.076C63.4164 100.939 64.328 98.5468 64.3322 96.1376C64.3322 95.0878 64.154 94.0338 63.7139 93.0237C63.4101 92.3294 62.9554 91.5975 62.178 91.1479C61.719 90.8843 61.2202 90.7631 60.7383 90.7631C59.8288 90.7673 59.001 91.1583 58.2675 91.6686C57.5341 92.183 56.8823 92.8334 56.3479 93.4566L57.3392 94.3036C57.8232 93.739 58.4121 93.1576 59.0178 92.7351C59.6234 92.3085 60.2332 92.0618 60.7383 92.0659C61.0128 92.068 61.2622 92.1266 61.5283 92.2772C61.9369 92.5072 62.2764 92.9819 62.5174 93.5424C62.8757 94.3684 63.0266 95.2342 63.0266 96.1376C63.0308 98.2101 62.2052 100.473 61.3103 102.566C55.998 115.043 49.1789 127.362 38.3552 135.297C37.5861 135.865 36.8254 136.353 36.0584 136.462C35.6058 136.528 35.0839 136.597 34.5893 136.597C33.99 136.6 33.4557 136.489 33.1414 136.261C32.8333 136.031 32.6049 135.715 32.5923 134.885C32.5881 133.981 32.9485 132.524 33.946 130.411L32.7662 129.857" fill="#FCF6A0"/>
<path d="M326.671 119.016L326.661 119.509L326.983 119.512C335.276 119.512 342.084 112.89 342.256 104.575L342.259 104.254C342.259 95.9773 335.623 89.1839 327.292 89.0115L326.971 89.009C318.676 89.009 311.868 95.6313 311.695 103.946L311.693 104.265C311.693 112.542 318.329 119.337 326.661 119.509L326.671 119.016L326.682 118.523C318.888 118.363 312.681 112.006 312.681 104.265L312.684 103.966C312.845 96.1897 319.214 89.9947 326.971 89.9947L327.272 89.9984C335.063 90.1584 341.271 96.5133 341.271 104.254L341.267 104.555C341.107 112.331 334.739 118.526 326.983 118.526L326.682 118.523L326.671 119.016Z" fill="#FCF6A0"/>
<path d="M315.93 91.7723C314.253 90.9903 313.047 90.6593 312.116 90.6568C311.275 90.6455 310.619 90.9716 310.263 91.49C309.908 92.0009 309.831 92.5993 309.829 93.1515C309.829 93.6112 309.889 94.0522 309.941 94.4082C310.077 95.2852 310.566 95.9786 311.007 96.5819C317.207 104.996 326.726 110.206 336.249 114.248C337.869 114.933 339.685 115.622 341.513 115.625C342.309 115.625 343.109 115.491 343.876 115.158C344.402 114.928 344.958 114.585 345.3 113.998C345.5 113.65 345.592 113.274 345.591 112.91C345.587 112.223 345.291 111.597 344.904 111.043C344.515 110.487 344.02 109.996 343.548 109.592L342.905 110.34C343.333 110.706 343.775 111.152 344.094 111.608C344.418 112.066 344.606 112.527 344.602 112.91C344.602 113.117 344.556 113.306 344.442 113.506C344.268 113.815 343.908 114.071 343.483 114.254C342.856 114.525 342.199 114.639 341.513 114.639C339.94 114.642 338.224 114.018 336.636 113.341C327.169 109.328 317.823 104.176 311.803 95.9985C311.371 95.4164 311.002 94.8405 310.919 94.2621C310.868 93.921 310.817 93.525 310.817 93.1515C310.814 92.698 310.898 92.2958 311.072 92.0572C311.246 91.8261 311.486 91.6524 312.116 91.6424C312.802 91.6387 313.907 91.9122 315.511 92.6655L315.93 91.7723Z" fill="#FCF6A0"/>
<path d="M288.459 15.928L289.112 29.8254L297.623 31.2335L289.235 32.0294L288.214 47.7838L287.153 32.2334L278.846 31.2335L287.194 30.0295L288.459 15.928Z" fill="#FCF6A0"/>
<path d="M94.9837 71.2073L95.4409 81.0172L101.399 82.0112L95.5266 82.573L94.8122 93.6938L94.0693 82.717L88.2544 82.0112L94.0979 81.1613L94.9837 71.2073Z" fill="#FCF6A0"/>
<path d="M32.0565 177.081L32.4484 184.847L37.5551 185.634L32.5219 186.079L31.9096 194.883L31.2728 186.193L26.2886 185.634L31.2973 184.961L32.0565 177.081Z" fill="#FCF6A0"/>
<path d="M294.942 168.649L295.333 176.415L300.44 177.202L295.407 177.647L294.795 186.45L294.158 177.761L289.174 177.202L294.182 176.529L294.942 168.649Z" fill="#FCF6A0"/>
<path d="M378.501 49.6577L378.893 57.4239L384 58.2108L378.967 58.6556L378.354 67.4595L377.718 58.7696L372.733 58.2108L377.742 57.538L378.501 49.6577Z" fill="#FCF6A0"/>
<path d="M8.65194 33.7297L9.23976 44.7659L16.8998 45.8841L9.34997 46.5161L8.4315 59.027L7.47631 46.6782L0 45.8841L7.51304 44.928L8.65194 33.7297Z" fill="#FCF6A0"/>
</svg>
