<svg width="22" height="20" viewBox="0 0 22 20" fill="none" xmlns="http://www.w3.org/2000/svg">
<path fill-rule="evenodd" clip-rule="evenodd" d="M5.53539 0.25C4.95028 0.25 4.40387 0.542427 4.07931 1.02927L0.490084 6.41311C0.270351 6.74271 0.244074 7.16478 0.421228 7.51909C2.38533 11.4473 5.11489 14.9432 8.44945 17.8014L10.2002 19.3021C10.6605 19.6967 11.3399 19.6967 11.8003 19.3021L13.551 17.8014C16.8855 14.9432 19.6151 11.4473 21.5792 7.51909C21.7563 7.16478 21.7301 6.74271 21.5103 6.41311L17.9211 1.02927C17.5965 0.542427 17.0501 0.25 16.465 0.25H5.53539ZM5.32738 1.86132C5.37375 1.79178 5.45181 1.75 5.53539 1.75H7.8752L5.96009 6.34629C5.91597 6.45216 5.88268 6.56135 5.86024 6.67224C5.1564 6.61985 4.45317 6.55669 3.75079 6.48276L2.34507 6.33479L5.32738 1.86132ZM2.27887 7.83611C4.07227 11.1261 6.44042 14.0714 9.27343 16.5312L6.14796 8.19667C5.29562 8.13808 4.44408 8.06402 3.59376 7.97452L2.27887 7.83611ZM7.78502 8.29016L11.0002 16.864L14.2154 8.29016C12.0731 8.38762 9.92737 8.38762 7.78502 8.29016ZM15.8525 8.19667L12.727 16.5312C15.56 14.0714 17.9282 11.1261 19.7216 7.83611L18.4067 7.97452C17.5563 8.06402 16.7048 8.13807 15.8525 8.19667ZM19.6553 6.33479L18.2496 6.48276C17.5472 6.55669 16.844 6.61985 16.1402 6.67224C16.1178 6.56135 16.0845 6.45216 16.0403 6.34629L14.1252 1.75H16.465C16.5486 1.75 16.6267 1.79178 16.673 1.86133L19.6553 6.33479ZM14.5919 6.77005C12.1991 6.89432 9.80137 6.89432 7.40852 6.77005L9.5002 1.75H12.5002L14.5919 6.77005Z" fill="#FFE175"/>
</svg>
