<svg width="26" height="26" viewBox="0 0 26 26" fill="none" xmlns="http://www.w3.org/2000/svg">
<path fill-rule="evenodd" clip-rule="evenodd" d="M13.0003 2.4375C12.5516 2.4375 12.1878 2.80127 12.1878 3.25V7.58333C12.1878 7.58348 12.1878 7.58319 12.1878 7.58333L12.1878 15.4478C11.3848 14.7657 10.3448 14.3542 9.20866 14.3542C6.66585 14.3542 4.60449 16.4155 4.60449 18.9583C4.60449 21.5011 6.66585 23.5625 9.20866 23.5625C11.7515 23.5625 13.8128 21.5011 13.8128 18.9583C13.8128 18.8296 13.8075 18.7022 13.7972 18.5761C13.8074 18.5246 13.8128 18.4712 13.8128 18.4167L13.8128 8.39583H19.5003C21.1457 8.39583 22.4795 7.06202 22.4795 5.41667C22.4795 3.77132 21.1457 2.4375 19.5003 2.4375H13.0003ZM13.8128 6.77083H19.5003C20.2482 6.77083 20.8545 6.16455 20.8545 5.41667C20.8545 4.66878 20.2482 4.0625 19.5003 4.0625H13.8128V6.77083ZM9.20866 15.9792C7.56331 15.9792 6.22949 17.313 6.22949 18.9583C6.22949 20.6037 7.56331 21.9375 9.20866 21.9375C10.854 21.9375 12.1878 20.6037 12.1878 18.9583C12.1878 17.313 10.854 15.9792 9.20866 15.9792Z" fill="#0C4E42"/>
</svg>
