<svg width="22" height="24" viewBox="0 0 22 24" fill="none" xmlns="http://www.w3.org/2000/svg">
<path d="M4.18172 7.20338C3.9127 7.1324 3.6891 6.9456 3.57139 6.69349C3.45369 6.44138 3.45405 6.15001 3.57238 5.8982L5.64832 1.48021C5.80302 1.15098 6.13421 0.940958 6.49798 0.941407C6.86174 0.941858 7.19241 1.1527 7.3463 1.48231L8.26208 3.44386C8.29482 3.43099 8.32863 3.41983 8.36342 3.41051C13.7976 1.95442 19.3833 5.17931 20.8394 10.6135C22.2954 16.0477 19.0706 21.6334 13.6364 23.0894C8.20218 24.5455 2.61651 21.3206 1.16043 15.8864C0.697401 14.1584 0.707817 12.4123 1.11336 10.7889C1.23884 10.2865 1.74779 9.98105 2.25012 10.1065C2.75245 10.232 3.05794 10.741 2.93246 11.2433C2.60209 12.5658 2.59299 13.9884 2.97154 15.4012C4.15961 19.8351 8.71715 22.4664 13.1511 21.2783C17.585 20.0903 20.2163 15.5327 19.0282 11.0988C17.8596 6.73734 13.4308 4.12008 9.06628 5.1664L9.99027 7.14552C10.1442 7.47513 10.0935 7.86401 9.86025 8.14318C9.62703 8.42234 9.25337 8.54139 8.90163 8.4486L4.18172 7.20338Z" fill="#FAFFFD"/>
</svg>
