<svg width="20" height="20" viewBox="0 0 20 20" fill="none" xmlns="http://www.w3.org/2000/svg">
<path d="M14.0002 5.00005C14.0002 4.44776 14.4479 4.00005 15.0002 4.00005C15.5525 4.00005 16.0002 4.44776 16.0002 5.00005C16.0002 5.55233 15.5525 6.00005 15.0002 6.00005C14.4479 6.00005 14.0002 5.55233 14.0002 5.00005Z" fill="white"/>
<path fill-rule="evenodd" clip-rule="evenodd" d="M10.0002 5.25005C7.37683 5.25005 5.25018 7.37669 5.25018 10C5.25018 12.6234 7.37683 14.75 10.0002 14.75C12.6235 14.75 14.7502 12.6234 14.7502 10C14.7502 7.37669 12.6235 5.25005 10.0002 5.25005ZM6.75018 10C6.75018 8.20512 8.20526 6.75005 10.0002 6.75005C11.7951 6.75005 13.2502 8.20512 13.2502 10C13.2502 11.795 11.7951 13.25 10.0002 13.25C8.20526 13.25 6.75018 11.795 6.75018 10Z" fill="white"/>
<path fill-rule="evenodd" clip-rule="evenodd" d="M15.2584 0.833061C11.7919 0.44562 8.20853 0.44562 4.74195 0.833061C2.7299 1.05794 1.10556 2.64295 0.869009 4.66548C0.454471 8.20978 0.454471 11.7903 0.869009 15.3346C1.10556 17.3571 2.7299 18.9422 4.74195 19.167C8.20853 19.5545 11.7919 19.5545 15.2584 19.167C17.2705 18.9422 18.8948 17.3571 19.1314 15.3346C19.5459 11.7903 19.5459 8.20978 19.1314 4.66548C18.8948 2.64295 17.2705 1.05794 15.2584 0.833061ZM4.90856 2.32378C8.26441 1.94871 11.736 1.94871 15.0918 2.32378C16.4219 2.47244 17.4874 3.52205 17.6415 4.83973C18.0425 8.26825 18.0425 11.7318 17.6415 15.1604C17.4874 16.478 16.4219 17.5277 15.0918 17.6763C11.736 18.0514 8.26441 18.0514 4.90856 17.6763C3.57846 17.5277 2.51297 16.478 2.35885 15.1604C1.95786 11.7318 1.95786 8.26825 2.35885 4.83973C2.51297 3.52205 3.57845 2.47244 4.90856 2.32378Z" fill="white"/>
</svg>
