<svg width="26" height="26" viewBox="0 0 26 26" fill="none" xmlns="http://www.w3.org/2000/svg">
<path fill-rule="evenodd" clip-rule="evenodd" d="M3.52051 10.8656C3.52051 7.94008 6.08708 5.6875 9.09967 5.6875C10.6526 5.6875 12.0191 6.41565 12.9997 7.35782C13.9803 6.41565 15.3467 5.6875 16.8997 5.6875C19.9123 5.6875 22.4788 7.94008 22.4788 10.8656C22.4788 12.8696 21.6242 14.632 20.4402 16.1217C19.2582 17.6088 17.7121 18.8709 16.2318 19.8965C15.6663 20.2882 15.0943 20.6495 14.5708 20.9161C14.0792 21.1665 13.514 21.3958 12.9997 21.3958C12.4854 21.3958 11.9201 21.1665 11.4285 20.9161C10.905 20.6495 10.333 20.2882 9.76758 19.8965C8.28723 18.8709 6.74112 17.6088 5.55915 16.1217C4.37513 14.632 3.52051 12.8696 3.52051 10.8656ZM9.09967 7.3125C6.84716 7.3125 5.14551 8.96902 5.14551 10.8656C5.14551 12.3861 5.79094 13.8017 6.83127 15.1106C7.87365 16.422 9.27618 17.5792 10.693 18.5607C11.2291 18.9321 11.7341 19.2481 12.166 19.4681C12.6299 19.7044 12.8986 19.7708 12.9997 19.7708C13.1008 19.7708 13.3695 19.7044 13.8334 19.4681C14.2653 19.2481 14.7703 18.9321 15.3064 18.5607C16.7232 17.5792 18.1257 16.422 19.1681 15.1106C20.2084 13.8017 20.8538 12.3861 20.8538 10.8656C20.8538 8.96902 19.1522 7.3125 16.8997 7.3125C15.606 7.3125 14.398 8.08537 13.6438 9.06633C13.49 9.26636 13.252 9.38358 12.9997 9.38358C12.7474 9.38358 12.5094 9.26636 12.3556 9.06633C11.6013 8.08537 10.3933 7.3125 9.09967 7.3125Z" fill="#0C4E42"/>
</svg>
