<svg width="22" height="26" viewBox="0 0 22 26" fill="none" xmlns="http://www.w3.org/2000/svg">
<path fill-rule="evenodd" clip-rule="evenodd" d="M13.8125 4.875C13.8125 2.63134 15.6313 0.8125 17.875 0.8125C20.1187 0.8125 21.9375 2.63134 21.9375 4.875C21.9375 7.11866 20.1187 8.9375 17.875 8.9375C16.6755 8.9375 15.5974 8.41762 14.8537 7.59088L11.4571 9.44358L7.65643 11.6154C7.9944 12.208 8.1875 12.894 8.1875 13.625C8.1875 13.9954 8.13792 14.3543 8.04503 14.6953L14.8537 18.4091C15.5974 17.5824 16.6755 17.0625 17.875 17.0625C20.1187 17.0625 21.9375 18.8813 21.9375 21.125C21.9375 23.3687 20.1187 25.1875 17.875 25.1875C15.6313 25.1875 13.8125 23.3687 13.8125 21.125C13.8125 20.7546 13.8621 20.3957 13.955 20.0547L7.1463 16.3409C6.40265 17.1676 5.32454 17.6875 4.125 17.6875C1.88134 17.6875 0.0625 15.8687 0.0625 13.625C0.0625 11.3813 1.88134 9.5625 4.125 9.5625C4.93835 9.5625 5.69587 9.80152 6.33115 10.2132L10.5429 7.80642L13.955 5.94531C13.8621 5.6043 13.8125 5.24544 13.8125 4.875ZM17.875 2.6875C16.6669 2.6875 15.6875 3.66688 15.6875 4.875C15.6875 6.08312 16.6669 7.0625 17.875 7.0625C19.0831 7.0625 20.0625 6.08312 20.0625 4.875C20.0625 3.66688 19.0831 2.6875 17.875 2.6875ZM4.125 11.4375C2.91688 11.4375 1.9375 12.4169 1.9375 13.625C1.9375 14.8331 2.91688 15.8125 4.125 15.8125C5.33312 15.8125 6.3125 14.8331 6.3125 13.625C6.3125 12.4169 5.33312 11.4375 4.125 11.4375ZM15.6875 21.125C15.6875 19.9169 16.6669 18.9375 17.875 18.9375C19.0831 18.9375 20.0625 19.9169 20.0625 21.125C20.0625 22.3331 19.0831 23.3125 17.875 23.3125C16.6669 23.3125 15.6875 22.3331 15.6875 21.125Z" fill="#FAFFFD"/>
</svg>
