<svg width="24" height="24" viewBox="0 0 24 24" fill="none" xmlns="http://www.w3.org/2000/svg">
<path fill-rule="evenodd" clip-rule="evenodd" d="M12.9317 6.20825C11.3814 6.20825 10.0404 7.11058 9.40794 8.42206C9.2379 8.77467 8.82525 8.93718 8.46042 8.79522C7.96969 8.60427 7.43523 8.49913 6.87443 8.49913C4.45796 8.49913 2.49902 10.4581 2.49902 12.8745C2.49902 15.291 4.45796 17.2499 6.87443 17.2499H18.5231C20.1675 17.2499 21.5006 15.9168 21.5006 14.2724C21.5006 12.6279 20.1675 11.2948 18.5231 11.2948C18.2555 11.2948 17.9973 11.3299 17.7522 11.3954C17.512 11.4595 17.2556 11.4005 17.0677 11.2377C16.8797 11.0749 16.7847 10.8296 16.8139 10.5827C16.8319 10.4305 16.8412 10.2753 16.8412 10.1177C16.8412 7.95858 15.0909 6.20825 12.9317 6.20825ZM8.37984 7.19396C9.34158 5.69967 11.0203 4.70825 12.9317 4.70825C15.8122 4.70825 18.1669 6.9597 18.3319 9.79883C18.3953 9.79616 18.4591 9.79481 18.5231 9.79481C20.996 9.79481 23.0006 11.7995 23.0006 14.2724C23.0006 16.7453 20.996 18.7499 18.5231 18.7499H6.87443C3.62953 18.7499 0.999023 16.1194 0.999023 12.8745C0.999023 9.62964 3.62953 6.99913 6.87443 6.99913C7.39409 6.99913 7.89881 7.06678 8.37984 7.19396Z" fill="#0B392C"/>
</svg>
