<svg width="15" height="24" viewBox="0 0 15 24" fill="none" xmlns="http://www.w3.org/2000/svg">
<path d="M6.17994 0C4.68375 1.60742 3.17817 3.22644 2.00719 5.07685C0.836206 6.92725 0.00680645 9.04341 4.02878e-05 11.2233C-0.00694413 13.4034 0.894264 15.6454 2.65652 16.9658C3.592 17.6664 4.71081 18.0797 5.74931 18.6215C6.7878 19.1634 7.89658 19.7899 8.54919 21C8.79976 19.355 9.28059 18.9765 10.1288 18.3809C11.8576 17.1671 13.6906 15.8794 14.5209 13.9555C15.3834 11.9567 14.981 9.62626 14.1084 7.6317C12.6002 4.18419 9.699 1.34983 6.17994 0Z" fill="#0B7A6A"/>
<path d="M8.84368 23.9997C8.76675 24.0042 8.69447 23.9565 8.67319 23.8814C6.66256 16.7954 5.77862 9.48572 6.04688 2.15567C6.05021 2.0666 6.12648 1.99688 6.2187 2.00011C6.31049 2.00312 6.38232 2.078 6.379 2.16708C6.11229 9.46421 6.99201 16.7413 8.994 23.7957C9.01838 23.8816 8.96628 23.9705 8.8776 23.9942L8.84368 23.9997Z" fill="#E0FFFD"/>
<path d="M5.87509 7.99965C5.8338 8.00303 5.79179 7.98203 5.76349 7.93844C5.03713 6.8202 4.4471 5.57389 4.01014 4.23431C3.98201 4.14803 4.01441 4.04887 4.08258 4.01296C4.15057 3.97705 4.22871 4.01838 4.25701 4.10466C4.68382 5.4133 5.25997 6.6307 5.96961 7.72274C6.01642 7.79502 6.00823 7.90185 5.95145 7.96125C5.92902 7.98497 5.90215 7.99761 5.87509 7.99965Z" fill="#E0FFFD"/>
<path d="M6.19199 5.99965C6.13469 6.00309 6.07692 5.98089 6.03888 5.93488C5.97702 5.86048 5.9905 5.75244 6.06849 5.69361C7.27548 4.7867 8.19119 3.51766 8.64688 2.12089C8.67649 2.03001 8.77783 1.97965 8.87292 2.00781C8.968 2.03596 9.02144 2.1321 8.99183 2.22275C8.51472 3.68521 7.55616 5.01354 6.29261 5.96303C6.26252 5.98569 6.22737 5.99759 6.19199 5.99965Z" fill="#E0FFFD"/>
<path d="M6.84609 11.9996C6.82335 12.0013 6.80016 11.9977 6.77742 11.9882C4.71947 11.1333 2.98456 9.40867 2.01672 7.2566C1.97691 7.16811 2.0106 7.0613 2.09218 7.01777C2.17355 6.97543 2.27175 7.01111 2.31156 7.09984C3.24309 9.1715 4.91347 10.8319 6.89443 11.655C6.97908 11.6902 7.02151 11.7931 6.98914 11.8852C6.96552 11.9528 6.90821 11.9956 6.84609 11.9996Z" fill="#E0FFFD"/>
<path d="M7.18977 10.9997C7.13216 11.003 7.0736 10.9799 7.03622 10.9327C6.97671 10.8578 6.99218 10.7509 7.0705 10.6941C8.67427 9.53468 9.94714 7.90696 10.6544 6.11058C10.6892 6.02251 10.792 5.9778 10.8841 6.01094C10.9765 6.04408 11.0231 6.14214 10.9886 6.22998C10.2578 8.08582 8.94303 9.76757 7.28642 10.9656C7.25714 10.9867 7.22381 10.9976 7.18977 10.9997Z" fill="#E0FFFD"/>
<path d="M6.85561 16L6.81334 15.997C4.47853 15.5073 2.36924 14.1347 1.0266 12.2314C0.978783 12.1638 0.997251 12.0716 1.06743 12.0258C1.13802 11.9793 1.23365 11.9976 1.28126 12.0651C2.5802 13.906 4.62013 15.2337 6.8788 15.7074C6.96191 15.7248 7.01465 15.8038 6.99639 15.8836C6.98141 15.95 6.92271 15.996 6.85561 16Z" fill="#E0FFFD"/>
<path d="M7.18689 14.9997C7.12762 15.0028 7.06835 14.9799 7.0318 14.9341C6.97628 14.8644 6.99526 14.7681 7.07468 14.7188C9.41959 13.2716 11.3538 11.3227 12.6681 9.0838C12.7129 9.00797 12.8185 8.97789 12.9047 9.01745C12.991 9.05639 13.0249 9.14973 12.9804 9.22556C11.6401 11.509 9.66769 13.496 7.27663 14.9719C7.24922 14.989 7.21805 14.9979 7.18689 14.9997Z" fill="#E0FFFD"/>
</svg>
