<svg width="20" height="20" viewBox="0 0 20 20" fill="none" xmlns="http://www.w3.org/2000/svg">
<path fill-rule="evenodd" clip-rule="evenodd" d="M4.58326 0.520752C5.03199 0.520752 5.39576 0.884521 5.39576 1.33325V3.13985C8.45914 2.86704 11.5407 2.86704 14.6041 3.13985V1.33325C14.6041 0.884521 14.9679 0.520752 15.4166 0.520752C15.8653 0.520752 16.2291 0.884521 16.2291 1.33325V3.30106C17.8466 3.52976 19.1244 4.80909 19.3407 6.44099L19.4344 7.14835C19.8288 10.1235 19.7948 13.1399 19.3333 16.1054C19.1047 17.5745 17.9112 18.7028 16.4317 18.8487L15.1393 18.9762C11.7213 19.3133 8.27848 19.3133 4.86051 18.9762L3.56809 18.8487C2.08854 18.7028 0.895072 17.5745 0.666478 16.1054C0.205023 13.1399 0.170962 10.1235 0.565334 7.14836L0.659098 6.44099C0.875415 4.80907 2.15326 3.52972 3.77076 3.30105V1.33325C3.77076 0.884521 4.13453 0.520752 4.58326 0.520752ZM5.06552 4.80296C8.34714 4.47934 11.6526 4.47934 14.9343 4.80296L15.9152 4.89969C16.8541 4.99229 17.6058 5.71917 17.7298 6.65452L17.8235 7.36189C17.8563 7.60901 17.8859 7.85642 17.9125 8.10408H2.08732C2.11385 7.85643 2.14349 7.60901 2.17624 7.36189L2.27001 6.65452C2.39399 5.71917 3.14563 4.99229 4.08461 4.89969L5.06552 4.80296ZM1.95816 9.72908C1.8518 11.7745 1.95658 13.8276 2.27215 15.8556C2.38681 16.5924 2.98544 17.1584 3.72757 17.2316L5.01999 17.359C8.33189 17.6856 11.6679 17.6856 14.9798 17.359L16.2722 17.2316C17.0143 17.1584 17.613 16.5924 17.7276 15.8556C18.0432 13.8276 18.148 11.7745 18.0416 9.72908H1.95816Z" fill="#0C4E42"/>
</svg>
