<svg width="17" height="12" viewBox="0 0 17 12" fill="none" xmlns="http://www.w3.org/2000/svg">
<path d="M6.78791 1.66291C7.15403 1.2968 7.15403 0.703204 6.78791 0.337087C6.4218 -0.0290291 5.8282 -0.0290291 5.46209 0.337087L0.462087 5.33709C0.279029 5.52015 0.1875 5.76007 0.1875 6C0.1875 6.12712 0.212799 6.24832 0.258636 6.35886C0.304386 6.46943 0.372203 6.57303 0.462087 6.66291L5.46209 11.6629C5.8282 12.029 6.4218 12.029 6.78791 11.6629C7.15403 11.2968 7.15403 10.7032 6.78791 10.3371L3.38833 6.9375H15.5C16.0178 6.9375 16.4375 6.51777 16.4375 6C16.4375 5.48223 16.0178 5.0625 15.5 5.0625H3.38833L6.78791 1.66291Z" fill="#FAFFFD"/>
</svg>
