<svg width="26" height="26" viewBox="0 0 26 26" fill="none" xmlns="http://www.w3.org/2000/svg">
<path d="M9.09967 5.6875C6.08708 5.6875 3.52051 7.94008 3.52051 10.8656C3.52051 12.8838 4.46555 14.5829 5.71804 15.9905C6.96623 17.3931 8.57658 18.5705 10.0324 19.5559L12.5442 21.2562C12.8193 21.4424 13.18 21.4424 13.4551 21.2562L15.967 19.5559C17.4228 18.5705 19.0331 17.3931 20.2813 15.9905C21.5338 14.5829 22.4788 12.8838 22.4788 10.8656C22.4788 7.94008 19.9123 5.6875 16.8997 5.6875C15.3467 5.6875 13.9803 6.41565 12.9997 7.35782C12.0191 6.41565 10.6526 5.6875 9.09967 5.6875Z" fill="#0B392C"/>
</svg>
